<?xml version="1.0" encoding="utf-8"?>
<!-- Generator: Adobe Illustrator 23.0.1, SVG Export Plug-In . SVG Version: 6.00 Build 0)  -->
<svg version="1.1" id="Layer_1" xmlns="http://www.w3.org/2000/svg" xmlns:xlink="http://www.w3.org/1999/xlink" x="0px" y="0px"
	 viewBox="0 0 1366 768" style="enable-background:new 0 0 1366 768;" xml:space="preserve">
<style type="text/css">
	.st0{fill:#F2CB57;}
	.st1{fill:#FFD097;}
	.st2{fill:#EFB87B;}
	.st3{fill:#C1432E;}
	.st4{fill:#A33021;}
	.st5{display:none;}
	.st6{fill:#EAEAEA;}
	.st7{fill:#D4D5D6;}
	.st8{fill:#C7C8C9;}
	.st9{fill:#E0E1E2;}
</style>
<title>Artboard 1</title>
<g id="Background">
	<circle class="st0" cx="697.5" cy="383.5" r="269.5"/>
</g>
<g>
	<path d="M571.5,207.8c0,0-13.3,51.4-2.8,84.1c0,0,5.8,20.7,13.7,27.9c0,0,0.5,1.6,1.3,3.9l70.5-202l-0.2-0.1
		c-17.3,6.7-33.1,16.6-46.8,29.2C607.3,150.7,586.6,156.7,571.5,207.8z"/>
	<polygon points="791.8,165.4 809.1,318.1 833.1,225.3 807.2,170.9 	"/>
	<polygon class="st1" points="785,373.7 785,538.7 610.6,538.7 611.1,435.6 610.1,371.9 	"/>
	<path class="st2" d="M610.1,371.9l2.2,36.7c6.1,5.4,15.1,13.2,26.1,22.3c33,27.3,49.8,41,62.7,41.2c19,0.3,34.5-13.6,51.8-29.1
		c0,0,4.4-4,32.1-34.4l0,0v-34.9"/>
	<path class="st1" d="M804.6,189.9c-10.1-24.4-26.7-50.4-73.5-69.1s-92.2,3.4-117.8,26.1s-33.4,63.2-36.8,84.7
		c-0.2,1.1-0.3,2.2-0.5,3.4c-3.1,21-5.2,47.4-1.6,61.9c3.8,15.3,16.9,45.8,17.9,47.8c0,0,2,4.3,6.1,11c0,0,6.5,9,11.7,16.3
		c3.4,4.8,6.3,8.7,6.4,8.9l1.3,1.5c9.9,11.3,22.6,23,38,31.6c7.9,4.5,16.4,7.9,25.2,10.3c58.5,15.4,84.7-23.2,84.7-23.2l28.4-40.1
		c0,0,10.5-26.7,14.7-42c0.9-4.4,1.4-8.9,1.5-13.4c0,0,3.3-24.5,4.8-45.1C815.1,260.3,814.7,214.3,804.6,189.9z"/>
	<path class="st3" d="M806,125.9c0,0-54.8-94.7-154.6-70s-112.7,144-112.7,144c-19,17.9-4.1,41.4-4.1,41.4
		c2.8,23.2,8.7,41.5,15.7,55.8c6.1,12.9,14.5,24.6,24.7,34.5c1.6,1.5,3.1,2.8,4.5,4c3.7,3.2,7.8,6,12.2,8.3
		c-1.3-1.3-5.7-13.7-8-20.2c-0.8-2.4-1.3-3.9-1.3-3.9c-7.9-7.2-13.7-27.9-13.7-27.9c-10.5-32.6,2.8-84.1,2.8-84.1
		c15.1-51.1,35.8-57,35.8-57c13.6-12.6,29.5-22.4,46.8-29.2c14.2-5.5,31-9.1,49.2-7.7c54.4,4.4,91.1,55.3,91.1,55.3
		c9.8,0.4,25.5,47.7,25.5,47.7c8.6,4.4-10.7,101.2-10.7,101.2c29.1-16.6,26.7-83.2,26.7-83.2C847.6,183.8,806,125.9,806,125.9z"/>
	<path class="st4" d="M615.5,119.4c-0.5-0.8,28.1-29.6,69.5-32.2c44.8-2.8,79,26.5,78.6,27.2S730.9,89.1,687,91.2
		C644.8,93.3,615.9,120.2,615.5,119.4z"/>
	<path id="Frame" d="M574.9,211l24.4,1.9c0,0,70.3-21.9,100.1,5.2h22.3c0,0,33-23.4,80.3-6.8c0,0,13.4,3.6,15.8,3.8
		c0,0,2.7-0.1,1.5,6.1s-2,10-5.6,12.6c-1.8,2.7-3,5.7-3.8,8.8c0,0-6.5,18.9-12,23.9s-17.1,13.4-31.2,12.9s-22.1-2.4-31.2-10.2
		s-13-28-13.2-29.2c0,0,0.8-9.6-10.7-10.1S699,246,699,246s-5.7,19.5-20.5,28.2s-42,4.7-42.6,1.8c0,0-19.7-7.7-22.9-23
		c0,0-4.8-18.4-9.4-22l-4-4.6l-24.7-3.8L574.9,211z"/>
	<path id="Lens" class="st1" d="M621.4,218.6c0,0-10.6,5.1-6.2,26s17.8,25.8,17.8,25.8s30.3,12.1,47.1-5.3s14.2-29.5,14.2-29.5
		s2.6-16.3-16.1-22.3S632.6,207.9,621.4,218.6z"/>
	<path id="Lens-2" class="st1" d="M736.3,220.2c0,0-8.8,1.4-6.2,26s26.9,29.5,26.9,29.5s24.3,2.4,35.5-9.5s12.6-27.2,12.6-27.2
		s3.1-18.6-18.1-25.2S738.5,213.8,736.3,220.2z"/>
	<path class="st5" d="M742.5,235.4c0,0,21.8,3.6,29.6,0C762.7,239.7,751.9,239.7,742.5,235.4z"/>
	<path class="st5" d="M634.5,240.7c0,0,21,10.4,38.6-2.9C673.1,237.8,657.8,246.4,634.5,240.7z"/>
	<path class="st5" d="M741.2,231.2c0,0,12.6-25.8,45.4,0c-6.6-3.9-13.8-6.6-21.3-7.9c0,0-3,14-18.7,3.8
		C744.5,228,742.7,229.4,741.2,231.2z"/>
	<path class="st5" d="M673.6,233.9c-15.5-24.8-52.5,1.5-52.5,1.5l17.1-5.4l5.6-2.5c0,0,10.2,16.7,19.3-0.5L673.6,233.9z"/>
	<polygon points="731.2,185.7 737.6,190.3 759.5,191.3 784.2,195.9 789.6,194.9 770.6,185.7 756.4,182.2 	"/>
	<polygon points="673.8,188.8 678.8,195.6 661,192.2 640.5,194.8 616.2,201 605,201 620.5,188.8 646.9,187.1 659.8,185.7 	"/>
	<path class="st5" d="M693.4,307.1c-28.2,9.5-14.1-20.4-14.1-20.4s-5.4,14.1-1.3,18.1c0,0,2.2,2.9,8.5,3.2L693.4,307.1z"/>
	<path class="st5" d="M727.4,306.2c31.3,3,13.1-20.1,13.1-20.1s6.4,12.4,0.7,17c0,0-1.6,1.3-6.4,1.7L727.4,306.2z"/>
	<path class="st5" d="M689.1,303.2c-2.2-4.6,6.1-4.6,6.1-4.6s7.2,0.9,8.1,4.6H689.1z"/>
	<path class="st5" d="M734,300.9c0,0-6.2-8.1-14.4,0C719.6,300.9,733.5,302.6,734,300.9z"/>
	<path class="st1" d="M581.2,313.3c-9.4,7.9-12.5,4.2-12.5,4.2c-8-12.7,4.5-25.8,4.5-25.8L581.2,313.3z"/>
	<path class="st1" d="M814.1,289.2c0,0,12.6,21.1-3.9,19.5"/>
	<circle cx="573.9" cy="311.7" r="3.3"/>
	<circle cx="814.6" cy="304.8" r="2.5"/>
	<path class="st6" d="M594.3,348.7c-5.5-3.2-14.1,1.2-20.9,5.6c-9.2,5.8-25,17.8-43,41.7c-2.8,10.4-4.5,21.1-5.1,31.9
		c0,0-22,32.8-9.6,41.4s50.3,15.5,50.3,15.5l22,14c0,0,12.7,44.2,50.8,48s30,0,30,0s18.4,2.9,18.8,1.7c0,0,24.9,5.2,28.7,3.4
		s35.9,10.4,35.9,10.4c15.2-5.3,29.1-13.9,40.5-25.3l17.6-13.7c3.9-1.2,10.8-3.5,19.5-6.2c47.1-14.8,63.9-19,77.9-34.1
		c7.9-8.5,9.4-14.5,9.3-19c-0.2-10.4-8.6-17.7-11.2-19.7c-3.6-12.3-9-24-16-34.8c-28.8-43.7-76.4-56.1-91.6-59.5L785,373.7l1.9,34.3
		c0,0,15.1,17.4-5,36.6c0,0-18.7,46.6-21.7,63.7l-52,30.3c0,0-26.6-38.5-71.2-51.7l-25.8-51.2l-1.1-63.7c-3.4-4.3-6.5-8.9-9.2-13.6
		C597.4,352.4,596.8,350.1,594.3,348.7z"/>
	<path class="st7" d="M591.6,377.1l-17.7,6.7c-9.4,5-16.4,13.7-19.2,24c0.4,9.2,3.8,17.9,9.9,24.8c5.9,9.5,14,17.3,23.7,22.9
		l48.7,31.4l-25.8-51.2v-56.2l-1.1-7.5L591.6,377.1z"/>
	<path class="st8" d="M785,373.7c10.1,3.8,19.8,8.7,28.8,14.8c13.6,9.1,31,20.8,35,40.1c1.5,6.4,1.1,13-1,19.2
		c-2.4,6.1-6.5,11.4-11.8,15.3c-6.5,5.3-13.7,10.6-21.4,15.9c-17.1,11.5-35.3,21.3-54.4,29.3c2-8.7,4.1-15.6,5.7-20.2
		c5.1-15.3,8.9-21,12.5-35.8c1.7-6.9,2.6-12.7,2.6-12.7c0.8-7.4,1.6-13.4,2.2-17.4c1.2-7.6,1.7-9.2,1.9-13.5
		c0.1-2.5,0.1-4.3,0.1-4.9c0-1.7,0-8.6-0.1-22.6C785,379.5,785,376.9,785,373.7z"/>
	<path class="st8" d="M610.1,371.9c-0.4-0.1-0.9,0.1-4.4,3.7c-3.8,3.9-5,5.5-8.2,9.1s-4.2,4.4-5.7,6.8c-1,1.6-1.7,3.3-2.4,5
		c0.2,2,0.6,4,1.3,5.9c1.1,3.2,2.7,6.3,4.7,9c3.4,4.6,8.6,12.8,15.7,24.3c-0.2-9.5-0.1-17.2,0-22.5c0.1-7.3,0.2-14.7,0.3-22
		C611.7,378.2,611.9,372.5,610.1,371.9z"/>
	<path class="st9" d="M756.4,535c0-0.3,0-0.7,0-1s0-1,0-1.5c0.2-0.3,0.4-0.6,0.8-0.8c0.5-0.3,1.1-0.4,1.8-0.5
		c0.8-0.2,1.7-0.3,2.5-0.4c1.4-0.1,2.7,0.1,4,0.5c0.8,0.2,1.6,0.6,2.3,1.1c0.2,0.6,0.3,1.3,0.5,1.9c0.2,0.8,0.1,1.6-0.2,2.4
		c-0.3,0.7-0.7,1.4-1.3,2l-2.2,5.7l-0.5,13.3l-0.5,17.5l-1.1,17.6l-1.6,23.4l-2,8.3l0.3,6.9l-1.7,27.6l-1.3,30.2v6.8l-2.5,4.2
		l-2,0.7l-1.6,14l-3.3,0.6l-2.5-1l0.8-13.6l-1.7-1.4c0.2-3.5,0.5-6.9,0.7-10.3s0.5-6.8,0.7-10.2c1.3-9.4,2.5-18.8,3.8-28.1l0.3-24.5
		l0.8-17.4l2.7-22.3l1.1-36.9L756.4,535z"/>
	<path class="st7" d="M813.1,371.9c6.7,2.5,28.9,11.2,40.3,25c0.6,0.7,2,2.3,4.5,5.4c2.3,2.8,5.8,7,12.1,14.3c5.2,6,7.7,8.9,9.7,14
		c2.3,5.8,3.2,12,2.5,18.2c-0.5,3.9-1.1,7.9-1.6,11.8c-1.6,4.3-4.1,8.3-7.3,11.6c-5.9,6.2-12.2,7.8-24.5,12.3
		c-14.3,5.2-8.1,3.8-23.9,9.5c-19.1,6.9-33.5,10.9-40.6,12.9c-20.4,5.9-40.3,13.2-59.8,21.7c5.3-3,9.7-5.5,12.6-7.2
		c3.3-1.9,5-2.9,13.2-7.7l9.8-5.7c19.8-11.5,38.8-20.7,58.3-33.6c8.4-5.6,16.5-11.6,24.2-18c7.6-9.7,9.1-22.8,3.7-33.9
		c-4.7-10.9-12.4-17.4-27.8-29.8c-5.4-4.4-8.2-6.6-12.6-9.3c-10.6-6.4-20.3-5.7-21-9.9c-0.3-2.3,2.3-4.5,2.7-4.8
		C789.2,367.7,793.8,364.8,813.1,371.9z"/>
	<path class="st9" d="M649,504.8c0-0.3,0-0.6,0-0.9s0-0.9,0-1.3c-0.1-0.3-0.4-0.6-0.7-0.7c-0.6-0.3-1.2-0.4-1.8-0.4
		c-0.8-0.2-1.7-0.3-2.5-0.3c-1.4-0.1-2.7,0.1-4,0.4c-0.8,0.2-1.6,0.5-2.3,1l-0.5,1.7c-0.2,0.7-0.1,1.5,0.2,2.2
		c0.3,0.7,0.7,1.3,1.3,1.8l2.2,5.2l0.5,12.2l0.5,16l1.1,16.1l1.6,21.3l2,7.6L646,593l1.7,25.2l1.3,27.6v6.2l2.5,3.8l2,0.7l1.6,12.8
		l3.3,0.6l2.6-0.9l-0.8-12.4l1.7-1.3c-0.2-3.2-0.5-6.3-0.7-9.5s-0.5-6.2-0.7-9.4c-1.3-8.6-2.5-17.1-3.8-25.7l-0.3-22.4l-0.8-15.9
		l-2.7-20.4l-1.1-33.8L649,504.8z"/>
</g>
</svg>
