<svg xmlns="http://www.w3.org/2000/svg" viewBox="0 0 622.44 766.74"><defs><style>.cls-1{fill:#f2cb57;}.cls-2{fill:#db8263;}.cls-3{fill:#ffd097;}.cls-4{fill:#efb87b;}.cls-5{fill:#c1432e;}.cls-6{fill:#a33021;}.cls-7{fill:#eaeaea;}.cls-8{fill:#d4d5d6;}.cls-9{fill:#c7c8c9;}.cls-10{fill:#e0e1e2;}</style></defs><title>aboutme-img</title><g id="Background"><circle class="cls-1" cx="311.22" cy="383.08" r="311.22"/></g><g id="Layer_1" data-name="Layer 1"><path d="M584.7,181.43s-15.4,59.37-3.24,97.06c0,0,6.68,23.91,15.8,32.22,0,0,.62,1.83,1.57,4.55L680.3,82l-.23-.12a172.15,172.15,0,0,0-54,33.7S602.12,122.47,584.7,181.43Z" transform="translate(-419 -1.26)"/><polygon points="420.08 131.28 440.05 307.59 467.82 200.4 437.87 137.53 420.08 131.28"/><path class="cls-2" d="M632.89,111" transform="translate(-419 -1.26)"/><path class="cls-3" d="M811.05,56.71" transform="translate(-419 -1.26)"/><polygon class="cls-3" points="412.26 371.79 412.26 562.3 210.87 562.3 211.49 443.29 210.24 369.73 412.26 371.79"/><path class="cls-4" d="M629.24,371l2.55,42.35c7.07,6.23,17.4,15.21,30.13,25.74,38.15,31.55,57.52,47.33,72.46,47.6,21.93.39,39.84-15.67,59.85-33.6,0,0,5.09-4.57,37-39.74h0V373.06" transform="translate(-419 -1.26)"/><path class="cls-3" d="M853.9,160.77C842.25,132.63,823.09,102.54,769,81S662.49,84.83,632.89,111s-38.57,73-42.46,97.77c-.2,1.29-.4,2.61-.59,3.94-3.57,24.21-6,54.72-1.83,71.51,4.36,17.71,19.47,52.88,20.66,55.24,0,0,2.36,5,7,12.72L629.24,371c4,5.49,7.28,10.08,7.4,10.23l1.53,1.77c11.41,13.07,26.09,26.54,43.94,36.54a124.29,124.29,0,0,0,29.06,11.87C778.68,449.14,809,404.54,809,404.54l32.77-46.32s12.08-30.8,17-48.54a83.26,83.26,0,0,0,1.72-15.53S864.33,265.81,866,242C866,242,865.54,188.91,853.9,160.77Z" transform="translate(-419 -1.26)"/><path class="cls-5" d="M855.54,86.9S792.23-22.52,677,6,546.84,172.3,546.84,172.3c-22,20.64-4.71,47.82-4.71,47.82,3.22,26.76,10,47.92,18.07,64.49,9,18.59,19.66,31.39,28.59,39.86,1.81,1.72,3.56,3.26,5.2,4.63,8.23,6.85,14,9.54,14,9.54-1.46-1.51-6.58-15.87-9.2-23.38-1-2.72-1.57-4.55-1.57-4.55-9.12-8.31-15.8-32.22-15.8-32.22-12.16-37.69,3.24-97.06,3.24-97.06,17.42-59,41.34-65.85,41.34-65.85a172.15,172.15,0,0,1,54-33.7c16.45-6.34,35.79-10.55,56.81-8.86C799.69,78.09,842,136.85,842,136.85c11.35.41,29.39,55.12,29.39,55.12,9.92,5.06-12.38,116.88-12.38,116.88,33.61-19.14,30.87-96.12,30.87-96.12C903.6,153.72,855.54,86.9,855.54,86.9Z" transform="translate(-419 -1.26)"/><path class="cls-6" d="M635.5,79.35C635,78.4,668,45.2,715.79,42.17c51.7-3.28,91.22,30.58,90.8,31.44S768.8,44.36,718.13,46.82C669.41,49.18,636,80.28,635.5,79.35Z" transform="translate(-419 -1.26)"/><path id="Frame" d="M588.64,185.1l28.19,2.17s81.19-25.3,115.64,6h25.78s38.06-27,92.75-7.83c0,0,15.49,4.1,18.27,4.37,0,0,3.17-.14,1.71,7s-2.24,11.5-6.47,14.54a32.26,32.26,0,0,0-4.37,10.18s-7.53,21.81-13.88,27.63-19.69,15.47-36.08,14.94-25.52-2.78-36-11.77S759.15,220,759,218.64c0,0,.92-11.1-12.3-11.63s-14.8,18.51-14.8,18.51S725.31,248,708.26,258s-48.52,5.42-49.18,2.11c0,0-22.74-8.86-26.44-26.57,0,0-5.55-21.28-10.84-25.38l-4.61-5.3-28.55-4.4Z" transform="translate(-419 -1.26)"/><path id="Lens" class="cls-3" d="M642.34,194s-12.23,5.94-7.19,30,20.5,29.83,20.5,29.83,35.05,14,54.44-6.16,16.4-34.11,16.4-34.11,3-18.83-18.64-25.73S655.3,181.52,642.34,194Z" transform="translate(-419 -1.26)"/><path id="Lens-2" data-name="Lens" class="cls-3" d="M775.09,195.74s-10.17,1.65-7.15,30S799,259.8,799,259.8s28,2.75,41-11,14.57-31.34,14.57-31.34,3.58-21.45-20.89-29.14S777.56,188.32,775.09,195.74Z" transform="translate(-419 -1.26)"/><path d="M782.16,213.3s25.22,4.15,34.16,0A40.91,40.91,0,0,1,782.16,213.3Z" transform="translate(-419 -1.26)"/><path d="M657.49,219.46s24.23,12,44.54-3.38C702,216.08,684.32,226,657.49,219.46Z" transform="translate(-419 -1.26)"/><path d="M780.63,208.42s14.51-29.84,52.43,0a71.67,71.67,0,0,0-24.66-9.12s-3.52,16.17-21.55,4.35A20,20,0,0,0,780.63,208.42Z" transform="translate(-419 -1.26)"/><path d="M702.61,211.6C684.75,183,642,213.3,642,213.3l19.76-6.21,6.45-2.84s11.8,19.28,22.27-.66Z" transform="translate(-419 -1.26)"/><polygon points="350.09 154.67 357.49 159.99 382.77 161.18 411.4 166.43 417.6 165.24 395.65 154.67 379.19 150.69 350.09 154.67"/><polygon points="283.85 158.25 289.57 166.12 269.05 162.18 245.44 165.16 217.28 172.32 204.4 172.32 222.29 158.25 252.83 156.34 267.62 154.67 283.85 158.25"/><path d="M725.47,296.17c-32.57,11-16.31-23.58-16.31-23.58s-6.18,16.24-1.51,20.9c0,0,2.53,3.3,9.78,3.74Z" transform="translate(-419 -1.26)"/><path d="M764.72,295.09c36.2,3.5,15.15-23.17,15.15-23.17s7.43,14.34.76,19.66c0,0-1.82,1.54-7.43,2Z" transform="translate(-419 -1.26)"/><path d="M720.52,291.58c-2.53-5.36,7-5.36,7-5.36s8.34,1,9.39,5.36Z" transform="translate(-419 -1.26)"/><path d="M772.36,288.9s-7.22-9.3-16.6,0C755.76,288.9,771.76,290.9,772.36,288.9Z" transform="translate(-419 -1.26)"/><path class="cls-3" d="M595.92,303.31c-10.91,9.17-14.5,4.85-14.5,4.85-9.21-14.61,5.25-29.8,5.25-29.8Z" transform="translate(-419 -1.26)"/><path class="cls-3" d="M864.87,275.43s14.55,24.35-4.48,22.55" transform="translate(-419 -1.26)"/><circle cx="168.49" cy="300.21" r="3.84"/><circle cx="446.42" cy="292.15" r="2.83"/><path class="cls-3" d="M630.49,444.56" transform="translate(-419 -1.26)"/><path class="cls-7" d="M611.07,344.14c-6.32-3.7-16.24,1.4-24.16,6.44-10.61,6.75-28.82,20.5-49.62,48.16a179,179,0,0,0-5.89,36.83s-25.46,37.9-11.08,47.8,58,17.92,58,17.92l25.4,16.15s14.67,51.09,58.7,55.44,34.68,0,34.68,0,21.3,3.36,21.69,1.93c0,0,28.77,6.06,33.1,3.89s41.5,12,41.5,12a123.59,123.59,0,0,0,46.83-29.18l20.31-15.86c4.47-1.43,12.49-4,22.52-7.14,54.37-17,73.79-21.91,90-39.34,9.13-9.85,10.8-16.78,10.7-22-.21-12.06-10-20.44-12.88-22.77a147.68,147.68,0,0,0-18.44-40.16c-33.22-50.45-88.23-64.82-105.81-68.64l-15.3,27.47,2.2,39.52s17.39,20.09-5.8,42.25c0,0-21.54,53.84-25.06,73.52l-60.06,35s-30.65-44.53-82.22-59.65l-29.83-59.14L629.24,371a133,133,0,0,1-10.66-15.76C614.67,348.47,613.92,345.81,611.07,344.14Z" transform="translate(-419 -1.26)"/><path class="cls-8" d="M607.88,377l-20.39,7.69a44.83,44.83,0,0,0-22.12,27.67A46.44,46.44,0,0,0,576.78,441a77.38,77.38,0,0,0,27.32,26.41l56.22,36.29-29.83-59.14V379.63L629.24,371Z" transform="translate(-419 -1.26)"/><path class="cls-9" d="M831.26,373.06a161.52,161.52,0,0,1,33.23,17.05c15.74,10.57,35.84,24.05,40.36,46.3.76,3.72,2.37,12.48-1.19,22.14a39.26,39.26,0,0,1-13.49,17.68c-7.53,6.09-15.77,12.25-24.76,18.32a358.64,358.64,0,0,1-62.81,33.8c2.3-10.06,4.76-18.05,6.54-23.37,5.87-17.64,10.27-24.21,14.39-41.32,1.92-8,3-14.67,3-14.67.9-8.54,1.86-15.41,2.57-20,1.33-8.79,1.9-10.61,2.16-15.61.15-2.82.1-4.92.08-5.64-.05-1.92-.06-10-.1-26.13C831.24,379.7,831.24,376.74,831.26,373.06Z" transform="translate(-419 -1.26)"/><path class="cls-9" d="M629.24,371c-.51-.14-1,.12-5,4.3-4.36,4.56-5.77,6.39-9.46,10.46s-4.91,5.14-6.53,7.82a31.9,31.9,0,0,0-2.75,5.74,34.22,34.22,0,0,0,1.46,6.79,36,36,0,0,0,5.45,10.38c3.9,5.38,9.92,14.81,18.12,28.08-.21-11-.12-19.91,0-26,.16-8.48.23-17,.4-25.44C631.19,378.2,631.42,371.59,629.24,371Z" transform="translate(-419 -1.26)"/><path class="cls-10" d="M798.2,559.34c0-.38,0-.77,0-1.17,0-.58,0-1.14,0-1.7a1.74,1.74,0,0,1,.85-.9,4.75,4.75,0,0,1,2-.53,14.45,14.45,0,0,1,2.94-.41,15,15,0,0,1,4.68.51,9.3,9.3,0,0,1,2.71,1.23l.6,2.19a5,5,0,0,1-.22,2.77,7.07,7.07,0,0,1-1.47,2.32c-.84,2.19-1.69,4.38-2.53,6.56l-.55,15.38-.54,20.2-1.27,20.3-1.81,27.07-2.36,9.64.37,8-2,31.89-1.44,34.86v7.89l-2.9,4.82-2.36.82-1.81,16.2-3.8.72-2.9-1.13.9-15.69-2-1.64q.4-6,.82-11.95l.81-11.83,4.35-32.51.36-28.3.91-20.09,3.08-25.74,1.26-42.65Z" transform="translate(-419 -1.26)"/><path class="cls-8" d="M863.69,371c7.74,2.87,33.35,13,46.58,28.89.67.81,2.25,2.71,5.19,6.29,2.61,3.18,6.71,8.09,13.94,16.46,6,7,8.86,10.27,11.24,16.18a44.52,44.52,0,0,1,3,21l-1.86,13.63a40.12,40.12,0,0,1-8.4,13.45c-6.82,7.12-14.07,9-28.3,14.21-16.54,6-9.33,4.44-27.56,11-22,8-38.72,12.54-46.82,14.87a560.53,560.53,0,0,0-69,25.11c6.19-3.51,11.17-6.38,14.52-8.32,3.85-2.22,5.76-3.35,15.21-8.86l11.26-6.56c22.8-13.29,44.8-23.86,67.28-38.77a330.66,330.66,0,0,0,28-20.8,36.87,36.87,0,0,0,4.24-39.13C896.76,417,887.76,409.58,870,395.19c-6.25-5.06-9.48-7.65-14.54-10.72-12.19-7.38-23.46-6.58-24.18-11.41-.41-2.71,2.64-5.19,3.09-5.56C836.12,366.07,841.46,362.72,863.69,371Z" transform="translate(-419 -1.26)"/><path class="cls-10" d="M674.25,524.46c0-.35,0-.71,0-1.07,0-.53,0-1,0-1.55a1.63,1.63,0,0,0-.86-.83,5.14,5.14,0,0,0-2-.49,17,17,0,0,0-7.61.1,10,10,0,0,0-2.72,1.12l-.6,2a4.24,4.24,0,0,0,.23,2.53,6.34,6.34,0,0,0,1.46,2.12l2.54,6,.54,14.05.54,18.45L667,585.43l1.81,24.73,2.36,8.81-.36,7.3,2,29.13,1.45,31.85v7.21l2.9,4.4,2.35.75,1.81,14.8,3.81.66,2.9-1-.91-14.33,2-1.5-.81-10.92c-.28-3.6-.55-7.21-.82-10.81q-2.18-14.85-4.34-29.7l-.37-25.85-.9-18.36-3.08-23.51-1.27-39Z" transform="translate(-419 -1.26)"/></g></svg>