<svg xmlns="http://www.w3.org/2000/svg" viewBox="0 0 800 450"><defs><style>.cls-1{fill:#4fdbff;}.cls-2{fill:#66d9cd;}.cls-3{fill:#3ba4bf;}.cls-4{fill:#286e80;}.cls-5{fill:#606060;}.cls-14,.cls-6{fill:#3f3f3f;}.cls-6{opacity:0.6;}.cls-7{fill:#e2e2e2;}.cls-8{fill:#c4c6c6;}.cls-9{fill:#ecf0f1;}.cls-10{fill:#e74c3c;}.cls-11{fill:#9b9797;}.cls-12{fill:#afdff9;}.cls-13{fill:#c1c1c1;}.cls-15{fill:#b2b2b2;}.cls-16{fill:#ccccca;}.cls-17{fill:#ededeb;}.cls-18{fill:#ba3932;}.cls-19{fill:#353535;}.cls-20{fill:#4c4c4c;}.cls-21{fill:#7f7e7e;}.cls-22{fill:#efefe8;}.cls-23{fill:#d3d3d1;}</style></defs><title>Artboard 1</title><g id="Planet"><path class="cls-1" d="M15.07,100c0,.69,0,1.37,0,2.06,0,.27,0,.54,0,.82l0,.35c0,.11,0,.22,0,.33l0,.45a2.65,2.65,0,0,1,0,.27c0,.17,0,.32.05.48s0,.23,0,.35c0,.28.06.56.1.84a.09.09,0,0,1,0,0c0,.1,0,.19,0,.29s.05.39.08.59.05.3.07.45.08.54.13.8c0,.07,0,.15.05.22s0,.2.05.3c.07.41.16.8.25,1.2,0,.17.07.34.11.51l.12.52c0,.1.05.2.07.3l.16.61c.25,1,.55,1.95.87,2.9.08.25.17.5.25.75l.09.24.18.49.18.47c.06.15.11.31.18.45s.11.29.17.43.18.43.27.64.12.29.18.42.17.39.26.58l.24.53c.05.12.11.22.17.34s.08.19.13.28l.57,1.13c.2.37.4.75.6,1.11l.27.46c.06.12.14.25.21.37l.24.4.25.41c.1.18.22.35.33.53,0,0,0,0,0,0l.32.49c.35.54.71,1.06,1.08,1.58l.35.49c.45.61.91,1.2,1.38,1.78.07.1.15.18.22.27.26.32.54.64.81,1l.29.34.15.16.35.39.29.32.57.59.32.33c.22.23.45.45.68.67l.48.46.05.06.33.3.69.62.28.25.52.45.37.31.29.24.27.21.33.27c.78.62,1.58,1.21,2.39,1.77l.44.3.41.27c.53.35,1.06.69,1.6,1l.51.3.5.29.47.26.31.17.25.14L40,141l.56.29a.23.23,0,0,1,.1.05l.55.27.37.18.28.12.28.13.55.25.43.19,0,0,.44.19h0l.43.17c.35.15.7.28,1.05.42l.3.1c.37.15.75.27,1.12.42h0c1.53.49,3.08.94,4.66,1.28l.56.13h0l.64.13.67.13.69.11.44.07.53.08.53.08,1,.12.28,0h.15l.33,0,.62.06.31,0,.6,0,.5,0,.54,0h.71a2.37,2.37,0,0,0,.53,0h.48a15.64,15.64,0,0,0,1.81,0,49,49,0,0,0,5.59-.56A46.26,46.26,0,1,0,38.56,59.71l-1,.59a46.46,46.46,0,0,0-5.46,3.83A46.77,46.77,0,0,0,21.31,76.76L21,77.3l-.23.42c-.08.16-.18.32-.26.48l0,0c-.25.47-.49.94-.73,1.43-.08.14-.15.3-.23.46a0,0,0,0,1,0,0l-.24.49-.42,1c0,.07-.05.13-.08.19-.13.3-.26.6-.38.91l0,.14c-.06.15-.13.3-.18.45s-.14.35-.2.52a.11.11,0,0,1,0,.05l-.18.51c-.07.18-.13.36-.19.55s-.12.32-.17.48l-.2.62c-.05.14-.1.3-.14.45l-.06.21c-.05.14-.08.27-.12.4l0,.09-.11.36c-.17.61-.33,1.23-.47,1.86q-.37,1.57-.63,3.18a1.92,1.92,0,0,0,0,.22c0,.16-.05.33-.08.49l-.09.64c0,.2-.05.39-.07.59l0,.23c0,.17,0,.34,0,.5s-.05.45-.06.67,0,.38-.05.56a2.18,2.18,0,0,0,0,.25.28.28,0,0,0,0,.09l0,.43c0,.38,0,.75-.05,1.13,0,.1,0,.21,0,.32V100Z"/><path class="cls-2" d="M32.13,64.16H73.92a6.32,6.32,0,0,0,6.32-6.32v-.07a46.19,46.19,0,0,0-48.11,6.39Z"/><path class="cls-3" d="M21.31,76.79H62.47a6.38,6.38,0,0,0,6.4-5.89,6.32,6.32,0,0,0-6.3-6.74H32.09A46.3,46.3,0,0,0,21.31,76.79Z"/><path class="cls-3" d="M17.46,114.68l.26.75.09.23.18.49a4.68,4.68,0,0,0,.18.48c0,.15.11.3.17.45l.18.43c.08.21.17.43.26.64l.18.42c.09.19.18.38.26.58s.17.35.25.53.1.22.16.33.09.19.14.29c.18.37.37.75.57,1.13s.4.74.6,1.11l.26.45.21.37.25.41.24.4c.11.18.22.36.34.54,0,0,0,0,0,0,.1.17.21.33.32.5.35.53.71,1.06,1.08,1.58l.35.48H73.74a6.31,6.31,0,0,0,4.57-10.78,6.29,6.29,0,0,0-4.47-1.84Z"/><path class="cls-3" d="M24,127.3c.44.61.9,1.21,1.38,1.79l.21.27.81.95.3.34.14.16.35.39.3.32c.18.2.37.4.56.59l.33.33.67.68.48.45.06.06.32.3.69.63.29.25.52.45.37.31.28.23.27.22.33.26c.78.62,1.58,1.21,2.4,1.78l.43.29.41.27c.53.35,1.06.68,1.6,1l.51.3H67.7a6.31,6.31,0,0,0,4.56-10.78,6.3,6.3,0,0,0-4.47-1.85Z"/><path class="cls-3" d="M16.29,89.42H77.76a6.31,6.31,0,0,0,4.56-10.78,6.26,6.26,0,0,0-4.47-1.85H21.31l-.31.54-.23.41c-.08.16-.17.32-.26.48l0,0c-.25.47-.49.95-.73,1.43-.07.15-.15.3-.22.46l0,0-.23.5c-.15.32-.29.64-.43,1l-.08.18c-.13.3-.25.61-.38.91,0,0,0,.1,0,.14l-.18.45c-.06.18-.13.35-.2.52,0,0,0,0,0,0-.07.17-.13.34-.19.51s-.13.37-.19.55-.11.32-.17.49-.13.4-.19.61l-.15.45-.06.22-.12.39,0,.09c0,.12-.07.24-.1.36C16.59,88.18,16.44,88.79,16.29,89.42Z"/><path class="cls-3" d="M15.12,102.05c0,.27,0,.55.05.82,0,.12,0,.23,0,.35s0,.22,0,.33,0,.3,0,.45a2.45,2.45,0,0,1,0,.27c0,.16,0,.32.05.48s0,.23,0,.35c0,.28.06.56.1.84v0c0,.1,0,.19,0,.28l.09.6c0,.15,0,.3.07.45s.08.53.13.8c0,.07,0,.15,0,.22l.06.3q.11.6.24,1.2l.12.51c0,.17.07.34.11.51s.05.2.08.3.1.41.16.62c.25,1,.54,1.94.86,2.9H67.67a6.38,6.38,0,0,0,6.4-5.9,6.32,6.32,0,0,0-6.3-6.73Z"/><path class="cls-3" d="M38,139.93l.5.29.47.26.3.17.25.13L40,141l.56.29.15.07.31.15a5.77,5.77,0,0,0,.56.27l.28.14.27.12.56.26.43.18,0,0,.44.19h0l.43.18,1.05.41c.32.12.63.22.95.36a2.44,2.44,0,0,0,.46.14h0a46.84,46.84,0,0,0,4.65,1.3l.56.12h0l.64.13.68.13.67.12.45.07.53.08.53.07,1,.12.43,0,.34,0,.62.05.3,0,.6,0,.5,0,.54,0h1.73q.9,0,1.8,0a6.32,6.32,0,0,0-6.31-6.26Z"/><path class="cls-3" d="M15.08,100c0,.69,0,1.37.05,2.06H88.61A6.37,6.37,0,0,0,95,96.17a6.32,6.32,0,0,0-6.3-6.75H16.3c-.25,1-.46,2.11-.63,3.19a1.55,1.55,0,0,0,0,.21c0,.16-.05.32-.07.49l-.09.64c0,.2-.05.39-.07.59l0,.23c0,.17,0,.34,0,.51s-.05.44-.06.66,0,.38,0,.56,0,.17,0,.25v.09l0,.43c0,.38,0,.75-.05,1.13,0,.1,0,.21,0,.32s0,.45,0,.67S15.08,99.79,15.08,100Z"/><path class="cls-4" d="M27.88,68H52.23a6.32,6.32,0,1,0,0-12.63H49a46.2,46.2,0,0,0-16.87,8.74A47,47,0,0,0,27.88,68Z"/><path class="cls-4" d="M15.46,105.92v0a2.89,2.89,0,0,1,0,.29l.09.59c0,.15,0,.3.07.45s.08.53.13.8c0,.07,0,.15,0,.22l.06.3q.11.6.24,1.2c0,.17.07.34.11.51l.12.51c0,.1.05.2.08.31s.1.4.16.61c.25,1,.54,1.94.86,2.9.08.25.17.5.26.75,0,.08.05.16.08.23l.18.5.18.47.18.45c.06.14.12.29.17.43l.27.64.18.42H56.8a6.32,6.32,0,1,0,0-12.63Z"/><path class="cls-4" d="M19,118.55c.09.19.17.39.26.58l.24.53c.06.11.11.22.16.33s.1.19.14.29l.58,1.13q.29.56.6,1.11c.08.15.17.3.26.45l.21.37.24.41c.08.13.16.27.25.4l.33.54s0,0,0,0c.11.17.22.33.32.5.35.53.71,1.06,1.08,1.58.12.16.24.32.35.49.45.6.91,1.2,1.38,1.78l.22.27.81.95.3.34a1.07,1.07,0,0,0,.14.16l.35.39h8.7a6.32,6.32,0,0,0,5.83-3.89,6.17,6.17,0,0,0,.49-2.43,6.32,6.32,0,0,0-6.32-6.31Z"/><path class="cls-4" d="M19.29,80.66h30.6a6.32,6.32,0,1,0,0-12.63h-22a46.39,46.39,0,0,0-6.57,8.74l-.31.54c-.08.14-.15.28-.23.41l-.26.48s0,0,0,0c-.25.47-.49,1-.73,1.43l-.22.46,0,0Z"/><path class="cls-4" d="M15.08,100c0,.69,0,1.38,0,2.06,0,.27,0,.55,0,.82l0,.35c0,.11,0,.22,0,.33s0,.3,0,.45,0,.18,0,.27,0,.32.05.48l0,.35c0,.28.07.56.1.84H42a6.32,6.32,0,1,0,0-12.63H15.56c0,.21-.07.43-.09.64s-.05.4-.08.59,0,.16,0,.23l-.06.51-.06.66c0,.19,0,.38,0,.56a2.28,2.28,0,0,0,0,.26s0,.05,0,.08l0,.43c0,.38,0,.75-.05,1.13,0,.1,0,.21,0,.32s0,.45,0,.67Z"/><path class="cls-4" d="M27.18,131.18l.3.32c.18.2.37.4.56.59l.33.34.67.67.48.46.06.05.32.31c.23.21.46.42.7.62l.28.25c.17.16.35.31.52.45l.37.31.29.24.27.22.33.26c.78.62,1.58,1.21,2.4,1.78l.43.29.41.28c.53.34,1.06.68,1.6,1l.52.31.5.29.47.26.3.17.25.13L40,141l.57.29.14.07.31.15.56.27.28.13.28.13.56.25.42.19,0,0,.45.19h0l.43.18,1.05.41.3.11,1.12.39h0a6.32,6.32,0,0,0-.5-12.63Z"/><path class="cls-4" d="M15.56,93.29H59.15a6.32,6.32,0,0,0,0-12.63H19.29l-.43,1-.07.18c-.13.3-.26.61-.38.91l-.06.14-.18.46c-.06.17-.13.34-.19.52a.08.08,0,0,0,0,0c-.06.17-.13.34-.19.52s-.13.36-.19.54-.11.33-.16.49-.14.4-.2.61-.1.3-.14.45,0,.15-.07.22-.08.26-.11.39l0,.09c0,.12-.07.24-.1.36-.17.62-.33,1.23-.48,1.86-.24,1-.45,2.11-.63,3.19l0,.21C15.61,93,15.58,93.13,15.56,93.29Z"/></g><g id="Spaceship"><ellipse class="cls-5" cx="532.31" cy="134.56" rx="3.05" ry="7.63"/><ellipse class="cls-6" cx="60.96" cy="66.01" rx="20.96" ry="4.71"/><path class="cls-7" d="M67.72,64.88l-12.91.06a41.56,41.56,0,0,1-6.1-21.59A46.43,46.43,0,0,1,54.28,22c2.11-3.62,4.61-6,7.1-5.95s4.91,2.36,7,5.95a47.07,47.07,0,0,1,5.41,21.28A42.12,42.12,0,0,1,67.72,64.88Z"/><circle class="cls-8" cx="61.3" cy="31.58" r="4.63"/><circle class="cls-9" cx="61.21" cy="31.66" r="4.38"/><path class="cls-8" d="M71.63,49.12l-2,0a11.15,11.15,0,0,0,.06-1.32c0-.33,0-.65-.06-1h2a4.84,4.84,0,0,1,.13,1A4.73,4.73,0,0,1,71.63,49.12Z"/><rect class="cls-10" x="60.54" y="56.58" width="1.52" height="11.11" rx="0.73"/><path class="cls-10" d="M41.85,62.26l-1.66-4.63a1.2,1.2,0,0,1,.72-1.54l9.26-3.34a1.22,1.22,0,0,1,1.55.73l1.66,4.62a1.21,1.21,0,0,1-.72,1.55A6.87,6.87,0,0,0,43.4,63C43.32,63,42.92,63.15,41.85,62.26Z"/><path class="cls-10" d="M44.58,67.68h0a1,1,0,0,1-1-.65L40.16,57.5a1,1,0,0,1,.59-1.27l2.22-.8a1,1,0,0,1,.86.09,1.15,1.15,0,0,1,.46.73c.41,1.45,1.94,2.48,1.6,3.82-.13.51-.35.36-.65,1.06a5,5,0,0,0-.11,2.93c.24,1.48.65,1.78.4,2.51C45.5,66.64,45.14,67.66,44.58,67.68Z"/><path class="cls-10" d="M80.16,62.26l1.67-4.63a1.21,1.21,0,0,0-.73-1.54l-9.26-3.34a1.21,1.21,0,0,0-1.54.73L68.63,58.1a1.22,1.22,0,0,0,.73,1.55A6.85,6.85,0,0,1,78.61,63C78.69,63,79.09,63.15,80.16,62.26Z"/><path class="cls-10" d="M77.44,67.68h0a1,1,0,0,0,1-.65l3.44-9.53a1,1,0,0,0-.6-1.27L79,55.43a1,1,0,0,0-.86.09,1.24,1.24,0,0,0-.46.73c-.41,1.45-1.94,2.48-1.6,3.82.13.51.35.36.65,1.06a5.1,5.1,0,0,1,.12,2.93c-.25,1.48-.66,1.78-.4,2.51C76.51,66.64,76.88,67.66,77.44,67.68Z"/><path class="cls-10" d="M68.28,22h0a16.63,16.63,0,0,1-14.07,0c2.12-3.62,4.62-6,7.1-5.95S66.23,18.36,68.28,22Z"/><rect class="cls-11" x="57" y="43.78" width="8.42" height="8.42" rx="4.04"/><circle class="cls-12" cx="61.3" cy="31.58" r="3.45"/><path class="cls-9" d="M71.53,49l-1.76,0a7.39,7.39,0,0,0,.06-1.17,6,6,0,0,0-.06-.86h1.76a4.46,4.46,0,0,1,.12.86A4.11,4.11,0,0,1,71.53,49Z"/><circle class="cls-11" cx="70.72" cy="48.08" r="0.76"/><rect class="cls-9" x="57.51" y="44.12" width="7.58" height="7.58" rx="3.64"/><circle class="cls-13" cx="70.72" cy="48.08" r="0.59"/><path class="cls-11" d="M61.41,45.87a1.79,1.79,0,1,0,1.79,1.79A1.79,1.79,0,0,0,61.41,45.87Zm0,3.38A1.59,1.59,0,1,1,63,47.66,1.59,1.59,0,0,1,61.41,49.25Z"/><circle class="cls-11" cx="61.46" cy="47.57" r="0.42"/><rect class="cls-11" x="62.03" y="46.28" width="0.18" height="1.29" transform="translate(51.37 -30.18) rotate(45)"/><rect class="cls-11" x="60.56" y="46.22" width="0.18" height="1.29" transform="translate(136.67 37.12) rotate(135)"/><rect class="cls-11" x="62.09" y="47.69" width="0.18" height="1.29" transform="translate(140.31 38.55) rotate(135)"/><rect class="cls-11" x="60.62" y="47.69" width="0.18" height="1.29" transform="translate(51.96 -28.77) rotate(45)"/><path class="cls-14" d="M538.43,134.76C398.25,201.6,323.89,190.08,281.69,166c-35.49-20.25-82.55-68.93-172.15-90.47-14-3.36-25.63-5.25-33.08-6.3v-.8c7.73,1.17,19.73,3.22,34.15,6.7C204.73,97.9,250.75,145.64,291.07,165c43.38,20.81,116.48,26.2,245.86-47.92a24.29,24.29,0,0,1,2.54,11.46A23.25,23.25,0,0,1,538.43,134.76Z"/></g><g id="Astronaut"><g id="Body_Suit" data-name="Body Suit"><rect class="cls-15" x="528.75" y="82.15" width="139.41" height="174.52" rx="27.3"/><rect class="cls-7" x="538.93" y="118" width="120.08" height="167.17" rx="54.25"/><rect class="cls-16" x="574.54" y="183.41" width="54.44" height="50.88" rx="22.99"/><path class="cls-17" d="M627,197.94v16.22c0,10-4.59,18.09-10.26,18.09H581.75c-5.67,0-10.26-8.1-10.26-18.09V197.94a30.39,30.39,0,0,1,.76-6.85,24.77,24.77,0,0,1,1-3.19c.1-.24.19-.49.29-.72a19.6,19.6,0,0,1,.86-1.78c1.86-3.42,4.48-5.56,7.39-5.56h34.94c2.91,0,5.53,2.14,7.39,5.56a19.6,19.6,0,0,1,.86,1.78c.1.23.19.48.29.72a24.77,24.77,0,0,1,1,3.19A30.39,30.39,0,0,1,627,197.94Z"/><path class="cls-18" d="M591,221.33a4.43,4.43,0,0,1-8.38,2,4.36,4.36,0,0,1-.5-2,4.44,4.44,0,1,1,8.88,0Z"/><path class="cls-10" d="M590.48,220.5a4.44,4.44,0,0,1-7.83,2.86,4.36,4.36,0,0,1-.5-2,4.44,4.44,0,0,1,7.83-2.87A4.37,4.37,0,0,1,590.48,220.5Z"/><path class="cls-18" d="M619.05,221.33a4.43,4.43,0,0,1-8.38,2,4.36,4.36,0,0,1-.5-2,4.44,4.44,0,1,1,8.88,0Z"/><path class="cls-10" d="M618.5,220.5a4.44,4.44,0,0,1-7.83,2.86,4.36,4.36,0,0,1-.5-2,4.44,4.44,0,0,1,7.83-2.87A4.37,4.37,0,0,1,618.5,220.5Z"/><path class="cls-18" d="M605.18,221.33a4.43,4.43,0,0,1-8.38,2,4.36,4.36,0,0,1-.5-2,4.44,4.44,0,1,1,8.88,0Z"/><path class="cls-10" d="M604.63,220.5a4.44,4.44,0,0,1-7.83,2.86,4.36,4.36,0,0,1-.5-2,4.44,4.44,0,0,1,7.83-2.87A4.37,4.37,0,0,1,604.63,220.5Z"/><rect class="cls-19" x="580.14" y="193.07" width="38.16" height="20.86" rx="9.42"/><rect class="cls-20" x="584.72" y="195.62" width="33.07" height="17.81" rx="8.05"/><rect class="cls-17" x="614.23" y="197.14" width="2.04" height="14.25" rx="0.92"/><path class="cls-10" d="M625.86,188h-53c.09-.25.19-.5.29-.74.27-.64.56-1.24.87-1.81H624.7c.31.57.6,1.17.87,1.81C625.67,187.49,625.77,187.74,625.86,188Z"/><g id="Tank"><circle class="cls-5" cx="657.99" cy="123.37" r="7.63"/><path class="cls-5" d="M668.16,215.45v5.66a4.61,4.61,0,0,1-3.88,2.16,5,5,0,0,1,0-10A4.62,4.62,0,0,1,668.16,215.45Z"/><path class="cls-21" d="M665.38,221.61l-.19,0a5.39,5.39,0,0,1-3.42-1.92c-1.15-1.68.73-4.88,1.11-5.55,2.64-4.59,5.09-13,10-29.69,1.19-4.05,3.44-11.73,3-20.25-.25-5.47-1.91-18.35-15-32.73a24.07,24.07,0,0,0-3.05-1.95c-2.63-1.42-3.48-1.28-4.44-2.22a6,6,0,0,1-.83-6.93c1.61-2.67,5.9-3.68,9.43-1.39,6.52,5.52,24.31,22,25.25,45.22.4,10.08-2.44,19.87-4.16,25.8a112,112,0,0,1-12.21,27.47C669.86,218.8,667.35,221.76,665.38,221.61Z"/></g></g><g id="Legs"><g id="Left"><path class="cls-7" d="M600.09,285.54a152.3,152.3,0,0,0-37.91,20.13c-14.86,10.84-24.38,22-34.24,34.63-1.37,1.75-2.74,3.54-4.14,5.35l-.18.24a305.85,305.85,0,0,0-30.24,48L472.3,379.74a143.22,143.22,0,0,1,10.45-55.45c.82-2,1.71-4.07,2.66-6.12q2.54-5.51,5.75-11.12a143.15,143.15,0,0,1,58.67-55.71Z"/><path class="cls-18" d="M596,286.33l-55.13-28.7a9.17,9.17,0,0,0-1.44-1.7c-.18-.18-.36-.33-.54-.48v-.83a3.41,3.41,0,0,1,4.67-2.15c3.31,1.27,50.66,27.14,54.69,29.34a3.2,3.2,0,0,1,1.11,1.38c.57,1.4.14,3.44-1.11,3.89C597.38,287.41,596.29,286.54,596,286.33Z"/><rect class="cls-10" x="534.95" y="267.87" width="67.98" height="5.83" rx="2.63" transform="translate(189.27 -232.08) rotate(27.5)"/><path class="cls-21" d="M485.85,402.84l-21.5-10.78c-2.18-1.09-2.07-5.73.26-10.36l.06,0a23.45,23.45,0,0,1,4.41-4.62,9.66,9.66,0,0,1,4.27-2.06l22.93,7c2.18,1.1,2.07,5.74-.26,10.37l-2,4C491.68,401.07,488,403.93,485.85,402.84Z"/><path class="cls-15" d="M484,405.15l-47.75-19.9a9.5,9.5,0,0,1-5.12-12.43l.1,0a16.6,16.6,0,0,1,13.31-5.27l48.53,15.85a9.51,9.51,0,0,1,5.11,12.43L496.44,400A9.5,9.5,0,0,1,484,405.15Z"/><path class="cls-15" d="M536.12,225.16a1.5,1.5,0,0,0,0-3,1.5,1.5,0,0,0,0,3Z"/><path class="cls-15" d="M585.8,129.09a1.5,1.5,0,0,0,0-3,1.5,1.5,0,0,0,0,3Z"/><path class="cls-10" d="M527.94,340.3c-1.37,1.75-2.74,3.54-4.14,5.35l-41-21.36c.82-2,1.71-4.07,2.66-6.12Z"/><path class="cls-7" d="M599.45,285.54a152.3,152.3,0,0,1,37.91,20.13c14.86,10.84,24.38,22,34.24,34.63,1.37,1.75,2.74,3.54,4.14,5.35l.18.24a305.11,305.11,0,0,1,30.24,48l21.08-14.15a143.22,143.22,0,0,0-10.45-55.45c-.82-2-1.71-4.07-2.66-6.12q-2.53-5.51-5.75-11.12a143.15,143.15,0,0,0-58.67-55.71Z"/><path class="cls-18" d="M603.41,286.33l55.14-28.7a9.49,9.49,0,0,1,1.43-1.7c.19-.18.37-.33.55-.48v-.83a3.41,3.41,0,0,0-4.67-2.15c-3.31,1.27-50.67,27.14-54.7,29.34a3.27,3.27,0,0,0-1.11,1.38c-.56,1.4-.13,3.44,1.11,3.89C602.08,287.41,603.16,286.54,603.41,286.33Z"/><rect class="cls-10" x="596.61" y="267.87" width="67.98" height="5.83" rx="2.63" transform="translate(1314.99 219.85) rotate(152.5)"/><path class="cls-21" d="M713.69,402.84l21.5-10.78c2.18-1.09,2.07-5.73-.26-10.36l0,0a23.85,23.85,0,0,0-4.42-4.62,9.66,9.66,0,0,0-4.27-2.06l-22.93,7c-2.18,1.1-2.07,5.74.26,10.37l2,4C707.86,401.07,711.51,403.93,713.69,402.84Z"/><path class="cls-15" d="M715.54,405.15l47.74-19.9a9.5,9.5,0,0,0,5.12-12.43l-.1,0A16.6,16.6,0,0,0,755,367.53l-48.53,15.85a9.51,9.51,0,0,0-5.11,12.43L703.1,400A9.51,9.51,0,0,0,715.54,405.15Z"/><path class="cls-15" d="M613.74,129.09a1.5,1.5,0,0,0,0-3,1.5,1.5,0,0,0,0,3Z"/><path class="cls-10" d="M671.6,340.3c1.37,1.75,2.74,3.54,4.14,5.35l41-21.36c-.82-2-1.71-4.07-2.66-6.12Z"/></g></g><g id="Arms"><g id="Left-2" data-name="Left"><path class="cls-7" d="M545,147v33.57A130.85,130.85,0,0,0,483.44,170h-.11c-1.47.11-2.91.24-4.32.4a130.56,130.56,0,0,0-37.83,10.14l-4.07-6.66a27.33,27.33,0,0,1,1.95-8.88c6.29-15.38,26.12-21,39.95-23.58,1.56-.29,3.05-.54,4.43-.76,1.55-.24,3-.44,4.2-.62C511.42,136.61,531.74,141.88,545,147Z"/><path class="cls-18" d="M547,183.41h-1.94A2.1,2.1,0,0,1,543,181.3V146.13a2.1,2.1,0,0,1,2.08-2.11l.69-.56a3.37,3.37,0,0,1,2.72,1.18,3,3,0,0,1,.61,1.49V181.3A2.1,2.1,0,0,1,547,183.41Z"/><rect class="cls-10" x="543" y="143.21" width="4.07" height="40.2" rx="1.84"/><path class="cls-18" d="M543,180.83a2.56,2.56,0,0,0,.28,1.11,3.61,3.61,0,0,0,1.66,1.38,5.52,5.52,0,0,1-4.44-2.22,5.25,5.25,0,0,1-.95-2.66l3.45,1.28"/><path class="cls-21" d="M413.8,184.16l-.55-1.3a14,14,0,0,1,1.22-5.38c.51-1.16,1.88-3.77,6.66-7.4A47.35,47.35,0,0,1,435,162.91a10.48,10.48,0,0,1,8-.82,8.07,8.07,0,0,1,5.22,6.06l.55,1.3c2.43,5.77-.85,12.65-7.31,15.37l-12.52,2.8a18.32,18.32,0,0,1-9.1-.15A15.51,15.51,0,0,1,413.8,184.16Z"/><path class="cls-15" d="M411.15,185.85l-.61-1.44a15.74,15.74,0,0,1,1-5.8c.47-1.24,1.73-4,6.38-7.77a41.59,41.59,0,0,1,13.59-7.21,9.51,9.51,0,0,1,8.05-.56,9.71,9.71,0,0,1,5.51,6.82l.6,1.44A12.52,12.52,0,0,1,439,187.74l-12.46,2.52a17.1,17.1,0,0,1-9.15-.56A16.86,16.86,0,0,1,411.15,185.85Z"/><rect class="cls-15" x="437.62" y="174.53" width="7.39" height="21.22" rx="3.34" transform="translate(11.51 -25.34) rotate(3.33)"/><path class="cls-10" d="M484,140.2v30.26h-.12c-1.51.11-3,.25-4.46.41V141C481,140.68,482.55,140.42,484,140.2Z"/></g><g id="Right-2" data-name="Right"><path class="cls-7" d="M653.41,179.72a128.9,128.9,0,0,1,103.85,0q2-3.33,4.06-6.66a27,27,0,0,0-1.94-8.88c-7.79-19.07-36.41-23.21-48.59-25-23.77-3.44-44.09,1.84-57.38,6.94Z"/><path class="cls-18" d="M651.42,182.39h1.94a2.1,2.1,0,0,0,2.08-2.11V145.11a2.1,2.1,0,0,0-2.08-2.11l-.69-.56a3.37,3.37,0,0,0-2.72,1.18,3,3,0,0,0-.61,1.49v35.17A2.1,2.1,0,0,0,651.42,182.39Z"/><rect class="cls-10" x="651.37" y="142.19" width="4.07" height="40.2" rx="1.84" transform="translate(1306.82 324.58) rotate(-180)"/><path class="cls-10" d="M710.9,139.09v30.26H711c1.52.11,3,.25,4.46.41v-29.9C713.87,139.57,712.33,139.32,710.9,139.09Z"/><path class="cls-18" d="M655.5,180a2.49,2.49,0,0,1-.27,1.11,3.72,3.72,0,0,1-1.67,1.39,5.54,5.54,0,0,0,4.44-2.22,5.25,5.25,0,0,0,1-2.67l-3.45,1.28"/><path class="cls-21" d="M784.74,183.33l.55-1.3a13.93,13.93,0,0,0-1.22-5.38c-.51-1.16-1.88-3.77-6.66-7.4a46.74,46.74,0,0,0-13.83-7.17,10.48,10.48,0,0,0-8-.82,8.06,8.06,0,0,0-5.22,6.06l-.55,1.3c-2.42,5.77.85,12.65,7.31,15.37l12.52,2.8a18.23,18.23,0,0,0,9.1-.16A15.31,15.31,0,0,0,784.74,183.33Z"/><path class="cls-15" d="M787.39,185l.61-1.44a15.82,15.82,0,0,0-1-5.81c-.47-1.23-1.73-4-6.38-7.76A41.76,41.76,0,0,0,767,162.79a9.11,9.11,0,0,0-13.55,6.27l-.61,1.44a12.52,12.52,0,0,0,6.69,16.41L772,189.43A16.86,16.86,0,0,0,787.39,185Z"/><rect class="cls-15" x="753.54" y="173.69" width="7.39" height="21.22" rx="3.34" transform="translate(1523.89 324.29) rotate(176.67)"/></g></g><g id="Helmet"><path class="cls-10" d="M647.63,113.55c0,29.19-21.74,52.85-48.55,52.85s-48.55-23.66-48.55-52.85c0-27.22,18.91-49.64,43.21-52.53a44.63,44.63,0,0,1,10.67,0C628.72,63.91,647.63,86.33,647.63,113.55Z"/><path class="cls-18" d="M649.57,110.78c0,29.19-22.48,52.85-50.22,52.85S549.14,140,549.14,110.78c0-27.23,19.56-49.64,44.7-52.54a49.21,49.21,0,0,1,11,0C630,61.14,649.57,83.55,649.57,110.78Z"/><path class="cls-7" d="M653.17,106.06a54,54,0,1,1-59.88-53.63,53.36,53.36,0,0,1,11.85,0A54,54,0,0,1,653.17,106.06Z"/><path class="cls-19" d="M645,109.1c-1.76,19.7-19.45,43.36-45.73,43.37S555,129.05,553.58,109.1c-.16-2.14-.76-17.6,10.22-28.44C573.69,70.9,586.89,70.93,600,71s25.61.07,35.11,9.43C646,91.15,645.25,106.68,645,109.1Z"/><path class="cls-20" d="M640.89,110.37C639.48,127,625.34,147,604.33,147s-35.4-19.76-36.55-36.61c-.13-1.81-.61-14.85,8.17-24,7.91-8.25,18.46-8.22,28.91-8.19s20.47.06,28.07,8C641.65,95.22,641.06,108.33,640.89,110.37Z"/><path class="cls-22" d="M635.42,129c-2.34,3.49-10.89,15.79-27.18,19.33a40.16,40.16,0,0,1-26.36-3,38.65,38.65,0,0,1-12.76-10.27,55.42,55.42,0,0,0,22.47,7.21c5,.48,14.83,1.42,25.24-3.6,12.17-5.87,18.55-16.72,22.75-23.86a77.12,77.12,0,0,0,3.61-6.94A48.52,48.52,0,0,1,635.42,129Z"/><ellipse class="cls-22" cx="625.42" cy="81.9" rx="4.2" ry="5.62" transform="translate(162.19 510.01) rotate(-50.2)"/><ellipse class="cls-22" cx="634.07" cy="91.06" rx="2.87" ry="3.95" transform="translate(13.04 248.08) rotate(-22.36)"/><rect class="cls-23" x="539.94" y="93.35" width="10.18" height="24.93" rx="4.6"/><rect class="cls-23" x="648.32" y="93.35" width="10.18" height="24.93" rx="4.6"/><path class="cls-23" d="M605.07,53.16v4.15a6,6,0,0,1-5.75,6.06,5.85,5.85,0,0,1-6-5.85V53.16q0-.31,0-.63a53.09,53.09,0,0,1,11.64,0Q605.07,52.85,605.07,53.16Z"/><rect class="cls-7" x="598.46" y="30.25" width="1.02" height="25.44"/><circle class="cls-7" cx="598.97" cy="29.74" r="1.53"/></g></g></svg>