<svg id="Layer_1" data-name="Layer 1" xmlns="http://www.w3.org/2000/svg" viewBox="0 0 1366 768"><defs><style>.cls-1{fill:#f2cb57;}.cls-2{fill:#ffd097;}.cls-3{fill:#efb87b;}.cls-4{fill:#c1432e;}.cls-5{fill:#a33021;}.cls-6{fill:#eaeaea;}.cls-7{fill:#d4d5d6;}.cls-8{fill:#c7c8c9;}.cls-9{fill:#e0e1e2;}</style></defs><title>Artboard 1</title><g id="Background"><circle class="cls-1" cx="697.5" cy="383.5" r="269.5"/></g><path d="M571.49,207.78s-13.34,51.42-2.81,84.06c0,0,5.79,20.7,13.69,27.9,0,0,.53,1.58,1.35,3.93l70.55-202-.2-.1a149.06,149.06,0,0,0-46.79,29.18S586.58,156.72,571.49,207.78Z"/><polygon points="791.77 165.45 809.06 318.13 833.11 225.31 807.17 170.86 791.77 165.45"/><polygon class="cls-2" points="784.99 373.72 784.99 538.7 610.6 538.7 611.14 435.64 610.06 371.94 784.99 373.72"/><path class="cls-3" d="M610.06,371.93l2.21,36.68c6.11,5.39,15.07,13.16,26.09,22.28,33,27.33,49.81,41,62.74,41.22,19,.34,34.5-13.56,51.83-29.09,0,0,4.41-4,32.06-34.41h0V373.72"/><path class="cls-2" d="M804.6,189.89c-10.09-24.37-26.68-50.42-73.53-69.11s-92.22,3.36-117.85,26.05-33.41,63.23-36.77,84.66c-.17,1.11-.34,2.25-.51,3.4-3.09,21-5.17,47.39-1.59,61.93,3.78,15.34,16.87,45.79,17.89,47.84a117.72,117.72,0,0,0,6.1,11s6.5,9,11.72,16.26c3.43,4.76,6.3,8.74,6.41,8.86l1.32,1.54c9.88,11.31,22.59,23,38.05,31.63A107.05,107.05,0,0,0,681,424.24C739.46,439.6,765.71,401,765.71,401l28.37-40.12s10.46-26.67,14.73-42a71.38,71.38,0,0,0,1.49-13.44s3.33-24.54,4.8-45.13C815.1,260.27,814.68,214.26,804.6,189.89Z"/><path class="cls-4" d="M806,125.92s-54.82-94.74-154.64-70-112.68,144-112.68,144c-19,17.87-4.07,41.41-4.07,41.41,2.79,23.17,8.67,41.49,15.65,55.84A118.27,118.27,0,0,0,575,331.65c1.57,1.49,3.08,2.82,4.51,4a62.72,62.72,0,0,0,12.15,8.26c-1.26-1.31-5.7-13.74-8-20.25-.82-2.35-1.35-3.93-1.35-3.93-7.9-7.2-13.69-27.9-13.69-27.9-10.53-32.64,2.81-84.06,2.81-84.06,15.09-51.06,35.79-57,35.79-57A149.06,149.06,0,0,1,654,121.59c14.25-5.49,31-9.14,49.19-7.67,54.4,4.38,91.07,55.27,91.07,55.27,9.83.35,25.45,47.73,25.45,47.73,8.6,4.39-10.72,101.22-10.72,101.22,29.1-16.58,26.74-83.25,26.74-83.25C847.64,183.79,806,125.92,806,125.92Z"/><path class="cls-5" d="M615.48,119.38c-.47-.81,28.11-29.57,69.53-32.19,44.77-2.84,79,26.48,78.63,27.23S730.91,89.09,687,91.22C644.84,93.26,615.94,120.19,615.48,119.38Z"/><path id="Frame" d="M574.9,211l24.41,1.88s70.3-21.9,100.14,5.22h22.32s33-23.38,80.32-6.79c0,0,13.41,3.55,15.82,3.78,0,0,2.74-.11,1.49,6.07s-1.95,10-5.61,12.59a27.84,27.84,0,0,0-3.78,8.82s-6.53,18.88-12,23.92S781,279.88,766.76,279.43,744.65,277,735.6,269.2s-13.05-28-13.16-29.19c0,0,.8-9.62-10.65-10.07S699,246,699,246s-5.72,19.46-20.49,28.16-42,4.69-42.58,1.83c0,0-19.69-7.67-22.9-23,0,0-4.8-18.43-9.38-22l-4-4.59-24.72-3.81Z"/><path id="Lens" class="cls-2" d="M621.4,218.65s-10.59,5.15-6.23,26,17.76,25.83,17.76,25.83,30.35,12.11,47.14-5.33,14.2-29.54,14.2-29.54,2.59-16.3-16.14-22.28S632.63,207.86,621.4,218.65Z"/><path id="Lens-2" class="cls-2" d="M736.35,220.17s-8.8,1.43-6.18,26,26.9,29.53,26.9,29.53,24.28,2.38,35.47-9.53S805.16,239,805.16,239s3.09-18.57-18.1-25.23S738.5,213.75,736.35,220.17Z"/><polygon points="731.16 185.7 737.57 190.31 759.46 191.34 784.25 195.89 789.62 194.85 770.62 185.7 756.36 182.25 731.16 185.7"/><polygon points="673.8 188.8 678.75 195.62 660.99 192.21 640.53 194.79 616.16 200.99 605 200.99 620.5 188.8 646.94 187.15 659.75 185.7 673.8 188.8"/><path class="cls-2" d="M581.2,313.33c-9.44,7.94-12.55,4.2-12.55,4.2-8-12.66,4.54-25.81,4.54-25.81Z"/><path class="cls-2" d="M814.1,289.18s12.6,21.09-3.88,19.53"/><circle cx="573.91" cy="311.73" r="3.33"/><circle cx="814.58" cy="304.76" r="2.45"/><path class="cls-6" d="M594.32,348.68c-5.47-3.2-14.06,1.21-20.92,5.58-9.19,5.84-24.95,17.75-43,41.7a155.69,155.69,0,0,0-5.1,31.89s-22,32.83-9.59,41.4S566,484.77,566,484.77l22,14s12.71,44.24,50.83,48,30,0,30,0,18.44,2.91,18.78,1.67c0,0,24.9,5.25,28.66,3.37s35.94,10.36,35.94,10.36a107,107,0,0,0,40.55-25.26l17.58-13.74c3.87-1.24,10.82-3.45,19.51-6.18,47.07-14.77,63.89-19,77.88-34.06,7.91-8.53,9.36-14.54,9.28-19.05-.19-10.44-8.64-17.7-11.16-19.72a127.77,127.77,0,0,0-16-34.77c-28.77-43.69-76.41-56.13-91.63-59.45L785,373.72,786.9,408s15.06,17.39-5,36.58c0,0-18.65,46.63-21.7,63.67l-52,30.3S681.63,500,637,486.86l-25.83-51.22-1.08-63.71a115.41,115.41,0,0,1-9.24-13.64C597.44,352.43,596.79,350.13,594.32,348.68Z"/><path class="cls-7" d="M591.56,377.11l-17.65,6.66a38.75,38.75,0,0,0-19.16,24,40.12,40.12,0,0,0,9.88,24.82,66.8,66.8,0,0,0,23.66,22.87L637,486.86l-25.83-51.22V379.42l-1.08-7.49Z"/><path class="cls-8" d="M785,373.72a139.74,139.74,0,0,1,28.78,14.77c13.64,9.15,31,20.83,35,40.1a34.66,34.66,0,0,1-1,19.17A34,34,0,0,1,836,463.06c-6.52,5.28-13.66,10.61-21.44,15.87a310.71,310.71,0,0,1-54.39,29.27c2-8.71,4.12-15.63,5.66-20.24,5.09-15.27,8.89-21,12.47-35.78,1.66-6.89,2.59-12.7,2.59-12.7.78-7.4,1.61-13.35,2.22-17.35,1.16-7.62,1.65-9.19,1.87-13.52.13-2.45.09-4.26.07-4.89,0-1.66,0-8.65-.08-22.63C785,379.47,785,376.91,785,373.72Z"/><path class="cls-8" d="M610.06,371.93c-.44-.12-.9.11-4.36,3.73-3.78,3.94-5,5.53-8.2,9.06s-4.25,4.44-5.66,6.76a28.94,28.94,0,0,0-2.37,5,29.48,29.48,0,0,0,1.26,5.88,31,31,0,0,0,4.72,9c3.38,4.65,8.59,12.82,15.69,24.31-.18-9.51-.11-17.24,0-22.52.14-7.34.2-14.68.34-22C611.74,378.18,611.94,372.45,610.06,371.93Z"/><path class="cls-9" d="M756.36,535v-2.47a1.62,1.62,0,0,1,.75-.78,4.15,4.15,0,0,1,1.76-.46,13.74,13.74,0,0,1,2.55-.36,12.58,12.58,0,0,1,4.05.45,8.44,8.44,0,0,1,2.35,1.06c.17.63.34,1.26.52,1.89a4.4,4.4,0,0,1-.2,2.41,6.19,6.19,0,0,1-1.27,2l-2.19,5.68-.47,13.32-.47,17.49-1.1,17.58-1.57,23.44-2,8.35.31,6.92-1.72,27.62-1.26,30.18v6.84l-2.51,4.17-2,.71-1.56,14-3.3.62-2.51-1,.79-13.59-1.73-1.42c.24-3.45.47-6.9.71-10.35s.47-6.83.7-10.25q1.89-14.07,3.77-28.14l.31-24.51.78-17.4,2.67-22.29,1.1-36.93Z"/><path class="cls-7" d="M813.08,371.9c6.7,2.48,28.88,11.25,40.33,25,.59.7,2,2.34,4.5,5.44,2.26,2.76,5.81,7,12.07,14.26,5.2,6,7.67,8.89,9.73,14a38.38,38.38,0,0,1,2.55,18.21q-.79,5.9-1.6,11.8a34.88,34.88,0,0,1-7.27,11.65c-5.91,6.17-12.19,7.8-24.51,12.3-14.32,5.24-8.08,3.84-23.86,9.55C805.94,501,791.48,505,784.47,507a484.48,484.48,0,0,0-59.78,21.74c5.35-3,9.67-5.52,12.57-7.2,3.33-1.92,5-2.9,13.17-7.67l9.75-5.68c19.75-11.51,38.79-20.66,58.26-33.57a287.55,287.55,0,0,0,24.25-18,32,32,0,0,0,3.67-33.89c-4.65-10.93-12.44-17.38-27.84-29.84-5.41-4.38-8.21-6.63-12.58-9.28-10.56-6.4-20.32-5.71-21-9.89-.35-2.34,2.29-4.49,2.68-4.81C789.2,367.67,793.83,364.77,813.08,371.9Z"/><path class="cls-9" d="M649,504.83v-2.27a1.44,1.44,0,0,0-.74-.72,4.55,4.55,0,0,0-1.77-.42,14.85,14.85,0,0,0-6.59.08,8.41,8.41,0,0,0-2.35,1l-.52,1.72a3.76,3.76,0,0,0,.19,2.2,5.38,5.38,0,0,0,1.27,1.83l2.2,5.2.47,12.16.47,16,1.1,16.06,1.6,21.33,2,7.63L646,593l1.73,25.23L649,645.8V652l2.51,3.81,2,.65,1.57,12.82,3.3.57L661,669l-.79-12.41,1.73-1.29c-.24-3.15-.48-6.31-.71-9.46s-.47-6.24-.7-9.36q-1.89-12.86-3.77-25.71l-.31-22.39-.79-15.9L653,552.12l-1.09-33.75Z"/></svg>