<svg xmlns="http://www.w3.org/2000/svg" viewBox="0 0 100 100"><defs><style>.cls-1{fill:#f2cb57;}.cls-2{fill:#ffd097;}.cls-3{fill:#efb87b;}.cls-4{fill:#c1432e;}.cls-5{fill:#a33021;}.cls-6{fill:#eaeaea;}.cls-7{fill:#d4d5d6;}.cls-8{fill:#c7c8c9;}.cls-9{fill:#e0e1e2;}</style></defs><title>Artboard 1</title><g id="Layer_2" data-name="Layer 2"><circle class="cls-1" cx="50" cy="48.55" r="37.42"/></g><g id="Layer_1" data-name="Layer 1"><path d="M31.75,24.48s-1.93,7.46-.4,12.19c0,0,.84,3,2,4l.2.57L43.76,12l0,0a21.85,21.85,0,0,0-6.79,4.23S33.94,17.08,31.75,24.48Z"/><polygon points="63.7 18.34 66.2 40.48 69.69 27.02 65.93 19.13 63.7 18.34"/><polygon class="cls-2" points="62.72 48.55 62.72 72.47 37.43 72.47 37.5 57.52 37.35 48.29 62.72 48.55"/><path class="cls-3" d="M37.35,48.29l.32,5.32c.88.78,2.18,1.9,3.78,3.23,4.79,4,7.22,5.94,9.1,6,2.75,0,5-2,7.52-4.22,0,0,.63-.57,4.65-5h0V48.55"/><path class="cls-2" d="M65.56,21.89c-1.46-3.54-3.87-7.31-10.66-10s-13.38.48-17.09,3.77S33,24.81,32.47,27.92c0,.16,0,.33-.07.49-.45,3-.75,6.88-.23,9a58,58,0,0,0,2.59,6.94s.3.63.89,1.6l1.7,2.36c.49.69.91,1.26.93,1.28a2.37,2.37,0,0,0,.19.22A21,21,0,0,0,44,54.38a15,15,0,0,0,3.64,1.49c8.48,2.23,12.29-3.37,12.29-3.37L64,46.68s1.52-3.86,2.14-6.09a10.79,10.79,0,0,0,.21-2s.49-3.56.7-6.55C67.08,32.09,67,25.42,65.56,21.89Z"/><path class="cls-4" d="M65.76,12.61s-8-13.74-22.42-10.15S27,23.34,27,23.34c-2.76,2.59-.59,6-.59,6a25.24,25.24,0,0,0,2.27,8.1,17.31,17.31,0,0,0,3.59,5l.65.58a9.08,9.08,0,0,0,1.76,1.2,24.11,24.11,0,0,1-1.15-2.94l-.2-.57c-1.14-1-2-4-2-4-1.53-4.73.4-12.19.4-12.19,2.19-7.4,5.19-8.27,5.19-8.27A21.85,21.85,0,0,1,43.73,12a16.31,16.31,0,0,1,7.13-1.11c7.89.64,13.21,8,13.21,8,1.42.05,3.69,6.92,3.69,6.92,1.25.63-1.55,14.67-1.55,14.67,4.22-2.4,3.87-12.07,3.87-12.07C71.8,21,65.76,12.61,65.76,12.61Z"/><path class="cls-5" d="M38.13,11.66A15.86,15.86,0,0,1,48.22,7a16.52,16.52,0,0,1,11.4,3.94c0,.11-4.75-3.67-11.11-3.36C42.39,7.88,38.2,11.78,38.13,11.66Z"/><path id="Frame" d="M32.25,24.94l3.54.28S46,22,50.31,26h3.24a13.3,13.3,0,0,1,11.64-1s2,.51,2.3.55c0,0,.4,0,.21.88s-.28,1.44-.81,1.82a4.3,4.3,0,0,0-.55,1.28S65.4,32.26,64.6,33a6.73,6.73,0,0,1-4.53,1.88c-2.06-.07-3.21-.35-4.52-1.48s-1.89-4.07-1.91-4.23c0,0,.12-1.4-1.54-1.46S50.24,30,50.24,30a7.83,7.83,0,0,1-3,4.08c-2.14,1.26-6.09.68-6.18.27,0,0-2.85-1.11-3.32-3.34,0,0-.69-2.67-1.36-3.19l-.58-.66-3.58-.55Z"/><path id="Lens" class="cls-2" d="M39,26.06s-1.53.75-.9,3.76,2.57,3.75,2.57,3.75,4.4,1.76,6.84-.77,2.06-4.29,2.06-4.29a3,3,0,0,0-2.34-3.23C44.5,24.42,40.62,24.49,39,26.06Z"/><path id="Lens-2" data-name="Lens" class="cls-2" d="M55.66,26.28s-1.28.21-.9,3.76a5.06,5.06,0,0,0,3.91,4.28s3.52.35,5.14-1.38A7.35,7.35,0,0,0,65.64,29,3.35,3.35,0,0,0,63,25.35C59.94,24.38,56,25.35,55.66,26.28Z"/><path class="cls-2" d="M33.16,39.79c-1.37,1.15-1.82.61-1.82.61-1.15-1.84.66-3.75.66-3.75Z"/><path class="cls-2" d="M66.94,36.29s1.82,3.05-.57,2.83"/><circle cx="32.1" cy="39.56" r="0.48"/><circle cx="67" cy="38.55" r="0.35"/><path class="cls-6" d="M35.07,44.92c-.8-.47-2,.17-3,.8a24.23,24.23,0,0,0-6.23,6.05,22.74,22.74,0,0,0-.74,4.63s-3.2,4.76-1.39,6S31,64.65,31,64.65l3.19,2s1.84,6.41,7.37,7,4.36,0,4.36,0a13.56,13.56,0,0,0,2.72.24s3.61.76,4.16.49S58,75.87,58,75.87a15.11,15.11,0,0,0,2.45-1.09,15.7,15.7,0,0,0,3.43-2.57l2.55-2,2.83-.9c6.82-2.14,9.26-2.75,11.29-4.94a3.93,3.93,0,0,0,1.35-2.76,4,4,0,0,0-1.62-2.86,18.38,18.38,0,0,0-2.32-5c-4.17-6.34-11.08-8.14-13.28-8.62l-1.92,3.45.27,5s2.19,2.52-.73,5.3c0,0-2.7,6.77-3.14,9.24l-7.55,4.39A21.11,21.11,0,0,0,41.25,65L37.5,57.53l-.15-9.24a16.85,16.85,0,0,1-1.34-2C35.52,45.46,35.42,45.13,35.07,44.92Z"/><path class="cls-7" d="M34.66,49,32.1,50a5.83,5.83,0,0,0-1.68,1.38,5.6,5.6,0,0,0-1.09,2.1,5.4,5.4,0,0,0,.38,1.84,5.86,5.86,0,0,0,1.05,1.76,10,10,0,0,0,1.4,1.76,9.43,9.43,0,0,0,2,1.55L41.25,65,37.5,57.53V49.37l-.15-1.08Z"/><path class="cls-8" d="M62.72,48.55a20.22,20.22,0,0,1,4.17,2.14c2,1.32,4.5,3,5.07,5.81a5.15,5.15,0,0,1-.15,2.78,4.88,4.88,0,0,1-1.7,2.22c-.94.77-2,1.54-3.11,2.3a45,45,0,0,1-7.88,4.25,29.41,29.41,0,0,1,.82-2.94,53.59,53.59,0,0,0,1.81-5.19c.24-1,.37-1.84.37-1.84.11-1.07.24-1.93.32-2.51.17-1.11.24-1.34.28-2,0-.36,0-.62,0-.71s0-1.26,0-3.28C62.71,49.38,62.71,49,62.72,48.55Z"/><path class="cls-8" d="M37.35,48.29c-.07,0-.13,0-.64.54s-.72.8-1.18,1.31a6.08,6.08,0,0,0-.82,1,4.13,4.13,0,0,0-.35.72,4.56,4.56,0,0,0,.18.86,4.45,4.45,0,0,0,.69,1.3c.49.67,1.24,1.86,2.27,3.53,0-1.38,0-2.51,0-3.27,0-1.06,0-2.13,0-3.19C37.59,49.19,37.62,48.36,37.35,48.29Z"/><path class="cls-9" d="M58.56,71.94a.76.76,0,0,0,0-.15,1.48,1.48,0,0,0,0-.21.26.26,0,0,1,.11-.12.65.65,0,0,1,.26-.06,1.42,1.42,0,0,1,.37-.05,1.85,1.85,0,0,1,.58.06,1,1,0,0,1,.34.16l.08.27a.64.64,0,0,1,0,.35.9.9,0,0,1-.18.29l-.32.82-.07,1.94-.07,2.53-.16,2.55-.22,3.4L59,84.93l0,1-.25,4-.19,4.38v1l-.36.6-.3.11-.22,2-.48.09L56.83,98,57,96l-.25-.21.1-1.5.1-1.48.55-4.09,0-3.55.12-2.52L58,79.45l.16-5.36Z"/><path class="cls-7" d="M66.79,48.28c1,.36,4.19,1.63,5.85,3.63l.65.79c.33.4.84,1,1.75,2.07a6.87,6.87,0,0,1,1.41,2,5.55,5.55,0,0,1,.37,2.64l-.23,1.71a4.93,4.93,0,0,1-1.06,1.69c-.85.89-1.76,1.13-3.55,1.78-2.08.76-1.17.56-3.46,1.39-2.77,1-4.86,1.57-5.88,1.86A70.53,70.53,0,0,0,54,71c.78-.44,1.4-.8,1.82-1l1.91-1.11,1.42-.82c2.86-1.67,5.62-3,8.44-4.87a40.72,40.72,0,0,0,3.52-2.61,4.88,4.88,0,0,0,1-2.82,4.76,4.76,0,0,0-.47-2.1c-.67-1.58-1.8-2.52-4-4.32A14.25,14.25,0,0,0,65.75,50c-1.53-.93-2.94-.83-3-1.43-.06-.34.33-.66.38-.7C63.33,47.67,64,47.25,66.79,48.28Z"/><path class="cls-9" d="M43,67.56v-.33a.18.18,0,0,0-.11-.1.72.72,0,0,0-.26-.07,2.13,2.13,0,0,0-.36,0,1.88,1.88,0,0,0-.59.06,1,1,0,0,0-.34.14l-.08.25a.63.63,0,0,0,0,.32.91.91,0,0,0,.18.26l.32.76.07,1.76.07,2.32.16,2.33.23,3.1.29,1.11,0,.91L42.82,84,43,88v.91l.36.55.3.09.23,1.86.47.08.37-.13-.12-1.8.25-.18L44.76,88l-.1-1.36-.55-3.73,0-3.25L44,77.37l-.38-3-.16-4.9Z"/></g></svg>