<svg xmlns="http://www.w3.org/2000/svg" xmlns:xlink="http://www.w3.org/1999/xlink" viewBox="0 0 1920 1080"><defs><style>.cls-1{fill:#1c1c1c;}.cls-2{fill:#0f233e;}.cls-3{fill:#fff;}.cls-4{fill:none;stroke:#0f233e;stroke-miterlimit:10;}.cls-5,.cls-7{fill:#ff7813;}.cls-5{opacity:0.4;}.cls-6{fill:#ffb823;}.cls-8,.cls-9{fill:#f24000;}.cls-9{opacity:0.2;}.cls-10{fill:#f2f2eb;}.cls-11{fill:#72706f;}.cls-12{fill:#a6a6a6;}.cls-13{fill:url(#linear-gradient);}.cls-14{fill:#e2e2e2;}.cls-15{fill:#8c8c8b;}.cls-16{fill:#afafae;}.cls-17{fill:#b2b2b1;}.cls-18{fill:#d3d3cd;}.cls-19{fill:#939393;}.cls-20{fill:#b73a34;}.cls-21{fill:#e74c3c;}.cls-22{fill:#7f7e7e;}.cls-23{fill:#565454;}.cls-24{fill:url(#linear-gradient-2);}.cls-25{fill:url(#linear-gradient-3);}.cls-26{fill:url(#linear-gradient-4);}.cls-27{fill:#553285;}.cls-28{fill:#b99ed8;}.cls-29{fill:#e42265;}.cls-30{opacity:0.5;}.cls-31{fill:#c2c4c3;}.cls-32{fill:#e8e8e8;}.cls-33{fill:#dddddb;}.cls-34{fill:#fcff76;}.cls-35{fill:#ffd097;}.cls-36{fill:#efb87b;}.cls-37{fill:#c1432e;}.cls-38{fill:#a33021;}.cls-39{fill:#eaeaea;}.cls-40{fill:#d4d5d6;}.cls-41{fill:#c7c8c9;}.cls-42{fill:#e0e1e2;}.cls-43{fill:#72e5f2;}.cls-44{fill:#66d9cd;}.cls-45{fill:#3bbf82;}</style><linearGradient id="linear-gradient" x1="988.01" y1="1081" x2="988.01" y2="833" gradientUnits="userSpaceOnUse"><stop offset="0.16" stop-color="#1c1c1c"/><stop offset="1" stop-color="#fff" stop-opacity="0.2"/></linearGradient><linearGradient id="linear-gradient-2" x1="480.45" y1="-530.28" x2="1226.45" y2="-530.28" gradientTransform="translate(1295.8 1169.15) scale(0.46 1.01)" gradientUnits="userSpaceOnUse"><stop offset="0" stop-color="#1c1c1c"/><stop offset="0.17" stop-color="#214149"/><stop offset="0.39" stop-color="#286e80"/><stop offset="0.43" stop-color="#2b7689"/><stop offset="0.6" stop-color="#3797b0"/><stop offset="0.69" stop-color="#3ba4bf"/><stop offset="0.72" stop-color="#3eacc9"/><stop offset="0.83" stop-color="#47c6e6"/><stop offset="0.93" stop-color="#4dd5f9"/><stop offset="1" stop-color="#4fdbff"/></linearGradient><linearGradient id="linear-gradient-3" x1="531.71" y1="-586.48" x2="1277.71" y2="-586.48" gradientTransform="translate(1259.65 1273.38) scale(0.49 1)" xlink:href="#linear-gradient-2"/><linearGradient id="linear-gradient-4" x1="645.48" y1="-482.29" x2="1391.48" y2="-482.29" gradientTransform="translate(976.15 1068.52) scale(0.69 1)" xlink:href="#linear-gradient-2"/></defs><title>Artboard 1</title><g id="Background"><rect class="cls-1" x="0.5" y="2.5" width="1919" height="1077"/><path class="cls-2" d="M1919,3V1079H1V3H1919m1-1H0V1080H1920V2Z"/><g id="Stars"><circle class="cls-3" cx="40.3" cy="718.05" r="2.71"/><circle class="cls-3" cx="1886.03" cy="710.66" r="2.4"/><circle class="cls-3" cx="1893.03" cy="295.66" r="2.4"/><circle class="cls-3" cx="1889.52" cy="801.95" r="3.48"/><circle class="cls-3" cx="1757.48" cy="928.19" r="3.48"/><circle class="cls-3" cx="1652.48" cy="1063.99" r="3.48"/><circle class="cls-3" cx="1435.11" cy="1057.55" r="5.11"/><circle class="cls-3" cx="42.77" cy="786.04" r="2.71"/><circle class="cls-3" cx="43.3" cy="576.57" r="2.71"/><circle class="cls-3" cx="56.54" cy="829.96" r="2.71"/><circle class="cls-3" cx="201.99" cy="889.91" r="2.99"/><circle class="cls-3" cx="1160.71" cy="823.62" r="5.55"/><circle class="cls-3" cx="47.64" cy="644.86" r="4.4"/><circle class="cls-3" cx="226.96" cy="1050.21" r="5.55"/><circle class="cls-3" cx="337.45" cy="1044.66" r="5.55"/><circle class="cls-3" cx="1892.02" cy="575.07" r="3.9"/><circle class="cls-3" cx="1780.02" cy="579.07" r="3.9"/><circle class="cls-3" cx="1891.85" cy="1041.06" r="5.65"/><circle class="cls-3" cx="88.22" cy="677.76" r="4.4"/><circle class="cls-3" cx="1587.3" cy="646.05" r="2.71"/><circle class="cls-3" cx="1594.64" cy="572.86" r="4.4"/><circle class="cls-3" cx="1731.64" cy="459.86" r="4.4"/><circle class="cls-3" cx="1635.22" cy="605.76" r="4.4"/><circle class="cls-3" cx="47.5" cy="897.67" r="4.4"/><circle class="cls-3" cx="1229.69" cy="835.7" r="4.4"/><circle class="cls-3" cx="33.27" cy="1044.66" r="5.55"/><circle class="cls-3" cx="331.99" cy="930.49" r="5.55"/><circle class="cls-3" cx="1685.06" cy="987.77" r="5.65"/><circle class="cls-3" cx="1467.69" cy="1032.63" r="8.3"/><circle class="cls-3" cx="1856.41" cy="638.36" r="3.9"/><circle class="cls-3" cx="1735.41" cy="639.36" r="3.9"/><circle class="cls-3" cx="1892.42" cy="632.08" r="2.7"/><circle class="cls-3" cx="1018.02" cy="811.07" r="3.9"/><circle class="cls-3" cx="920.41" cy="807.36" r="3.9"/><circle class="cls-3" cx="969.42" cy="779.08" r="2.7"/><circle class="cls-3" cx="1874.12" cy="877.93" r="3.91"/><circle class="cls-3" cx="1718.12" cy="830.93" r="3.91"/><circle class="cls-3" cx="1891.98" cy="953.39" r="3.91"/><circle class="cls-3" cx="129.65" cy="852.03" r="1.52"/><circle class="cls-3" cx="564.54" cy="837.96" r="2.71"/><circle class="cls-3" cx="709.99" cy="897.91" r="2.99"/><circle class="cls-3" cx="555.5" cy="905.67" r="4.4"/><circle class="cls-3" cx="648.5" cy="817.67" r="4.4"/><circle class="cls-3" cx="637.65" cy="860.03" r="1.52"/><circle class="cls-3" cx="71.45" cy="1033.78" r="1.92"/><circle class="cls-3" cx="128.2" cy="799.51" r="1.52"/><circle class="cls-3" cx="41.65" cy="337.03" r="1.52"/><circle class="cls-3" cx="40.2" cy="284.51" r="1.52"/><circle class="cls-3" cx="134.22" cy="563.76" r="4.4"/><circle class="cls-3" cx="1476.69" cy="725.7" r="4.4"/><circle class="cls-3" cx="1302.65" cy="832.03" r="1.52"/><circle class="cls-3" cx="1502.2" cy="783.51" r="1.52"/><circle class="cls-3" cx="1691.2" cy="528.51" r="1.52"/><circle class="cls-3" cx="106.13" cy="941.39" r="1.92"/><circle class="cls-3" cx="299.99" cy="566.91" r="2.99"/><circle class="cls-3" cx="1086.71" cy="779.62" r="5.55"/><circle class="cls-3" cx="227.65" cy="529.03" r="1.52"/><circle class="cls-3" cx="1532.13" cy="716.39" r="1.92"/><circle class="cls-3" cx="49.45" cy="956.61" r="1.92"/><circle class="cls-3" cx="1858.47" cy="466.53" r="1.96"/><circle class="cls-3" cx="1809.2" cy="1069.86" r="1.96"/><circle class="cls-3" cx="554.14" cy="1059.86" r="2.86"/><circle class="cls-3" cx="1447.99" cy="849.29" r="1.92"/><circle class="cls-3" cx="1687.04" cy="1064.21" r="1.96"/><circle class="cls-3" cx="1818.7" cy="712.91" r="1.96"/><circle class="cls-3" cx="1795.94" cy="987.27" r="1.96"/><circle class="cls-3" cx="1372.48" cy="749.19" r="3.48"/><circle class="cls-3" cx="835.98" cy="801.39" r="3.91"/><circle class="cls-3" cx="1417.94" cy="782.27" r="1.96"/><circle class="cls-3" cx="1892.96" cy="406.5" r="1.96"/><circle class="cls-3" cx="1413.86" cy="856.11" r="1.92"/><circle class="cls-3" cx="1328.79" cy="853.92" r="1.92"/><circle class="cls-3" cx="308.66" cy="1046.58" r="1.92"/><circle class="cls-3" cx="269.41" cy="1054.26" r="1.92"/><circle class="cls-3" cx="387.99" cy="750.91" r="2.99"/><circle class="cls-3" cx="430.71" cy="823.62" r="5.55"/><circle class="cls-3" cx="412.96" cy="911.21" r="5.55"/><circle class="cls-3" cx="483.99" cy="877.29" r="1.92"/><circle class="cls-3" cx="449.86" cy="884.11" r="1.92"/><circle class="cls-3" cx="364.79" cy="881.92" r="1.92"/><circle class="cls-3" cx="494.66" cy="907.58" r="1.92"/><circle class="cls-3" cx="455.41" cy="915.26" r="1.92"/><circle class="cls-3" cx="501.03" cy="742.62" r="5.55"/><circle class="cls-3" cx="578.78" cy="798.21" r="5.55"/><circle class="cls-3" cx="741.78" cy="827.21" r="5.55"/><circle class="cls-3" cx="419.88" cy="709.11" r="1.92"/><circle class="cls-3" cx="483.33" cy="798.26" r="1.92"/><circle class="cls-3" cx="1443.99" cy="940.49" r="5.55"/><circle class="cls-3" cx="1524.96" cy="921.21" r="5.55"/><circle class="cls-3" cx="1572.86" cy="858.11" r="1.92"/><circle class="cls-3" cx="1476.79" cy="891.92" r="1.92"/><circle class="cls-3" cx="1702.66" cy="909.58" r="1.92"/><circle class="cls-3" cx="64.48" cy="467.19" r="3.48"/><circle class="cls-3" cx="9.66" cy="448.58" r="1.92"/><circle class="cls-3" cx="1574.41" cy="905.26" r="1.92"/><circle class="cls-3" cx="181.65" cy="682.03" r="1.52"/><circle class="cls-3" cx="180.2" cy="629.51" r="1.52"/><circle class="cls-3" cx="1754.22" cy="366.76" r="4.4"/><circle class="cls-3" cx="1852.22" cy="356.76" r="4.4"/><circle class="cls-3" cx="1801.65" cy="485.03" r="1.52"/><circle class="cls-3" cx="1800.2" cy="432.51" r="1.52"/></g><line class="cls-4" x1="1919.5" y1="1079.5" x2="1712.74" y2="1079.5"/><line class="cls-4" x1="263.29" y1="1079.5" x2="0.5" y2="1079.5"/></g><g id="Sun"><path class="cls-5" d="M254.29,409.5a73.6,73.6,0,0,1-73.63,73.64c-2.15,0-4.29-.1-6.39-.28a73,73,0,0,1-21.65-5.25l-.77-.33-.34-.14c-.54-.23-1.07-.47-1.6-.72l-.36-.16-.88-.42a73.62,73.62,0,0,1-19.78-14l-.75-.75-.87-.9-.76-.81-.08-.09c-.28-.31-.56-.61-.83-.92l-.11-.12-.23-.26c-.21-.23-.41-.47-.61-.71l-.66-.78-.77-.94c-.34-.42-.67-.84-1-1.27l-.47-.61c-.32-.42-.62-.84-.93-1.26l-.76-1.08q-1.75-2.55-3.32-5.25c-.65-1.14-1.27-2.29-1.86-3.47l-.41-.81a.54.54,0,0,1,0-.11c-.14-.28-.28-.57-.41-.85s-.25-.54-.37-.8a1.42,1.42,0,0,1-.08-.18l-.37-.82c-.33-.76-.65-1.52-1-2.29l-.18-.46c-.07-.19-.15-.37-.22-.56l-.16-.45c-.08-.2-.15-.4-.22-.59s-.12-.31-.17-.47q-.29-.78-.54-1.56l-.15-.47c-.06-.16-.11-.33-.16-.5a.42.42,0,0,1,0-.1c-.13-.42-.26-.84-.38-1.26q-.51-1.73-.93-3.48a72.79,72.79,0,0,1-1.89-12.27c-.12-1.69-.18-3.39-.18-5.11,0-.48,0-.95,0-1.43v-.42c0-.44,0-.88,0-1.32l0-.66c0-.27,0-.54,0-.82s0-.54,0-.82c0-.55.09-1.09.14-1.63.12-1.19.26-2.37.43-3.54.1-.68.21-1.36.32-2s.24-1.35.38-2,.31-1.45.48-2.17c.06-.28.13-.55.19-.82s.17-.67.26-1,.13-.5.19-.75.13-.46.2-.69.13-.47.2-.71l.18-.61.16-.5c0-.12.07-.24.11-.35s.12-.39.19-.59l.12-.36c.07-.2.13-.41.2-.61l.09-.24c.09-.27.18-.54.28-.81s.22-.61.34-.91l.21-.58c.68-1.76,1.42-3.5,2.23-5.19a73.46,73.46,0,0,1,6.15-10.56,74.52,74.52,0,0,1,12.65-13.92q1.1-.93,2.22-1.83A73.63,73.63,0,0,1,254.29,409.5Z"/><path class="cls-6" d="M244.94,409.38A63.87,63.87,0,0,1,181,473.3q-2.81,0-5.55-.24a63.08,63.08,0,0,1-18.79-4.56l-.67-.28-.3-.13c-.46-.19-.92-.4-1.39-.61l-.3-.15-.77-.36a63.62,63.62,0,0,1-17.17-12.14l-.65-.65-.76-.78-.66-.71-.07-.07-.72-.8-.1-.11c-.06-.07-.13-.14-.19-.22l-.53-.61-.57-.68c-.23-.27-.45-.55-.67-.82s-.58-.73-.87-1.1l-.4-.53c-.28-.36-.54-.73-.81-1.1l-.65-.93q-1.55-2.22-2.89-4.56c-.56-1-1.1-2-1.62-3l-.35-.7a.31.31,0,0,0,0-.1l-.35-.74c-.11-.23-.22-.46-.32-.7a1,1,0,0,1-.07-.15c-.11-.24-.21-.48-.32-.71-.29-.66-.57-1.32-.83-2l-.16-.4c-.06-.16-.13-.32-.19-.49s-.1-.26-.14-.39-.13-.34-.19-.51l-.15-.4c-.16-.45-.32-.91-.47-1.36,0-.14-.09-.27-.13-.41s-.1-.28-.14-.43l0-.09-.33-1.09c-.3-1-.56-2-.81-3a63.35,63.35,0,0,1-1.64-10.65q-.15-2.2-.15-4.44c0-.41,0-.83,0-1.24v-.36c0-.39,0-.77,0-1.15,0-.19,0-.38,0-.57s0-.48,0-.71,0-.48,0-.72l.12-1.41c.1-1,.22-2.06.37-3.07.09-.6.18-1.19.28-1.78s.21-1.17.33-1.75.27-1.26.42-1.89c0-.24.11-.47.17-.71l.21-.86.18-.64c.05-.2.1-.4.16-.6l.18-.62c0-.18.11-.35.16-.53s.09-.29.13-.44.07-.2.1-.3.11-.34.16-.51.07-.21.11-.31.11-.36.17-.53,0-.15.08-.22c.08-.23.16-.46.25-.7s.19-.52.29-.78.12-.34.19-.51c.58-1.53,1.23-3,1.93-4.51a63.68,63.68,0,0,1,10.66-15.79,64.88,64.88,0,0,1,5.66-5.46c.63-.54,1.27-1.06,1.93-1.58a63.91,63.91,0,0,1,103.43,50.25Z"/><path class="cls-7" d="M217.63,357a10,10,0,0,1-7.82,3.74H139.58c.63-.54,1.27-1.06,1.93-1.58A63.86,63.86,0,0,1,217.63,357Z"/><path class="cls-7" d="M188.17,370.76v1.16a10,10,0,0,1-10,10H123.26a63.68,63.68,0,0,1,10.66-15.79,64.88,64.88,0,0,1,5.66-5.46h38.54A10.05,10.05,0,0,1,188.17,370.76Z"/><path class="cls-7" d="M180.71,455.76v1.16a10,10,0,0,1-10,10.05H153.25a63.62,63.62,0,0,1-17.17-12.14l-.65-.65-.76-.78-.66-.71-.07-.07-.72-.8-.1-.11c-.06-.07-.13-.14-.19-.22l-.53-.61-.57-.68c-.23-.27-.45-.55-.67-.82s-.58-.73-.87-1.1l-.4-.53c-.28-.36-.54-.73-.81-1.1l-.65-.93h42.24A10,10,0,0,1,180.71,455.76Z"/><path class="cls-7" d="M208.79,467A63.64,63.64,0,0,1,181,473.3q-2.81,0-5.55-.24a63.08,63.08,0,0,1-18.79-4.56l-.67-.28-.3-.13c-.46-.19-.92-.4-1.39-.61l-.3-.15-.77-.36Z"/><path class="cls-7" d="M171.76,392v1.16a10,10,0,0,1-10,10.05H117.39c.1-1,.22-2.06.37-3.07.09-.6.18-1.19.28-1.78s.22-1.17.33-1.75.27-1.26.42-1.89c0-.24.11-.47.17-.71l.21-.86.18-.64c.05-.2.1-.4.16-.6l.18-.62c0-.18.11-.35.16-.53s.09-.29.13-.44.07-.2.1-.3.11-.34.16-.51.07-.21.11-.31.11-.36.17-.53,0-.15.08-.22c.08-.23.16-.46.25-.7s.19-.52.29-.78.12-.34.19-.51c.58-1.53,1.23-3,1.93-4.51h38.46A10,10,0,0,1,171.76,392Z"/><path class="cls-7" d="M210.54,434.51v1.16a10.05,10.05,0,0,1-10,10.05H128.43q-1.55-2.22-2.89-4.56c-.56-1-1.1-2-1.62-3l-.35-.7a.31.31,0,0,0,0-.1l-.35-.74c-.11-.23-.22-.46-.32-.7a1,1,0,0,1-.07-.15c-.11-.24-.21-.48-.32-.71-.29-.66-.57-1.32-.83-2l-.16-.4c-.06-.16-.13-.32-.19-.49s-.1-.26-.14-.39-.13-.34-.19-.51l-.15-.4c-.16-.45-.32-.91-.47-1.36,0-.14-.09-.27-.13-.41s-.1-.28-.14-.43l0-.09-.33-1.09c-.3-1-.56-2-.81-3h81.6A10,10,0,0,1,210.54,434.51Z"/><path class="cls-7" d="M184.92,413.26v1.16a10.05,10.05,0,0,1-10,10.05h-56a63.35,63.35,0,0,1-1.64-10.65q-.15-2.2-.15-4.44c0-.41,0-.83,0-1.24v-.36c0-.39,0-.77,0-1.15,0-.19,0-.38,0-.57s0-.48,0-.71,0-.48,0-.72l.12-1.41h57.48A10,10,0,0,1,184.92,413.26Z"/><path class="cls-8" d="M157.27,459.78a10.36,10.36,0,0,1-2.89,7.19l-.16.17-.2.19-.77-.36a63.62,63.62,0,0,1-17.17-12.14l-.65-.65-.76-.78-.66-.71-.07-.07-.72-.8-.1-.11c-.06-.07-.13-.14-.19-.22l-.53-.61-.57-.68c-.23-.27-.45-.55-.67-.82h15.71A10.4,10.4,0,0,1,157.27,459.78Z"/><path class="cls-8" d="M148.76,376.57a10.28,10.28,0,0,1-1.51,5.39,10.15,10.15,0,0,1-1.54,2,10.38,10.38,0,0,1-7.36,3.05H121.14c.06-.17.12-.34.19-.51.58-1.53,1.23-3,1.93-4.51a63.68,63.68,0,0,1,10.66-15.79h4.43A10.41,10.41,0,0,1,148.76,376.57Z"/><path class="cls-8" d="M142.41,397.38a10.39,10.39,0,0,1-1.79,5.84,10.09,10.09,0,0,1-1.26,1.51,10.37,10.37,0,0,1-7.35,3H117.12c0-.39,0-.77,0-1.15,0-.19,0-.38,0-.57s0-.48,0-.71,0-.48,0-.72l.12-1.41c.1-1,.22-2.06.37-3.07.09-.6.18-1.19.28-1.78s.21-1.17.33-1.75.27-1.26.42-1.89c0-.24.11-.47.17-.71l.21-.86.18-.64c.05-.2.1-.4.16-.6l.18-.62c0-.18.11-.35.16-.53s.09-.29.13-.44.07-.2.1-.3.11-.34.16-.51.07-.21.11-.31.11-.36.17-.53,0-.15.08-.22c.08-.23.16-.46.25-.7s.19-.52.29-.78H132A10.4,10.4,0,0,1,142.41,397.38Z"/><path class="cls-8" d="M166.44,355.77a10.4,10.4,0,0,1-10.4,10.4H133.92a64.88,64.88,0,0,1,5.66-5.46c.63-.54,1.27-1.06,1.93-1.58A63.94,63.94,0,0,1,163,348,10.39,10.39,0,0,1,166.44,355.77Z"/><path class="cls-8" d="M155.71,418.18a10.35,10.35,0,0,1-2.11,6.29,11.75,11.75,0,0,1-.93,1.06,10.38,10.38,0,0,1-7.36,3.05H120l-.33-1.09c-.3-1-.56-2-.81-3a63.35,63.35,0,0,1-1.64-10.65q-.15-2.2-.15-4.44c0-.41,0-.83,0-1.24v-.36h28.19A10.39,10.39,0,0,1,155.71,418.18Z"/><path class="cls-8" d="M144,439a10.35,10.35,0,0,1-2.48,6.74,8.22,8.22,0,0,1-.57.61,10.33,10.33,0,0,1-7.35,3.05h-2.45c-.3-.36-.58-.73-.87-1.1l-.4-.53c-.28-.36-.54-.73-.81-1.1l-.65-.93q-1.55-2.22-2.89-4.56c-.56-1-1.1-2-1.62-3l-.35-.7a.31.31,0,0,0,0-.1l-.35-.74c-.11-.23-.22-.46-.32-.7a1,1,0,0,1-.07-.15c-.11-.24-.21-.48-.32-.71-.29-.66-.57-1.32-.83-2l-.16-.4c-.06-.16-.13-.32-.19-.49s-.1-.26-.14-.39-.13-.34-.19-.51l-.15-.4c-.16-.45-.32-.91-.47-1.36,0-.14-.09-.27-.13-.41s-.1-.28-.14-.43l0-.09h13.58A10.4,10.4,0,0,1,144,439Z"/><path class="cls-9" d="M279,409.5A100.44,100.44,0,0,1,178.5,510c-2.94,0-5.85-.12-8.72-.38a99.63,99.63,0,0,1-29.54-7.16l-1.06-.45-.47-.2c-.73-.31-1.45-.63-2.18-1l-.48-.22-1.21-.58a100.61,100.61,0,0,1-27-19.08l-1-1-1.19-1.23c-.35-.36-.69-.74-1-1.11l-.11-.12c-.38-.42-.76-.83-1.13-1.25l-.15-.17-.31-.35-.83-1c-.31-.35-.6-.71-.9-1.06s-.71-.86-1-1.29-.92-1.15-1.36-1.73l-.64-.84c-.43-.57-.85-1.14-1.26-1.72l-1-1.47q-2.41-3.48-4.53-7.16c-.89-1.56-1.74-3.13-2.55-4.74l-.55-1.1-.07-.16c-.19-.38-.38-.77-.56-1.16L87,451.22c0-.08-.07-.16-.11-.25-.17-.37-.33-.74-.5-1.12-.45-1-.89-2.07-1.3-3.12-.09-.21-.17-.42-.25-.63s-.21-.51-.3-.76l-.23-.62c-.11-.26-.2-.53-.3-.8l-.23-.63c-.25-.71-.5-1.43-.73-2.14l-.21-.64c-.08-.23-.15-.45-.22-.68a.83.83,0,0,1,0-.15c-.19-.57-.36-1.13-.53-1.71q-.69-2.36-1.27-4.75a99.29,99.29,0,0,1-2.58-16.74c-.16-2.31-.24-4.63-.24-7,0-.65,0-1.3,0-1.95V407l.06-1.81c0-.29,0-.6,0-.89s0-.75.06-1.12,0-.75.08-1.12c0-.75.11-1.49.18-2.23.16-1.62.35-3.23.58-4.83q.21-1.39.45-2.79c.16-.92.33-1.84.52-2.76s.41-2,.64-3l.27-1.12c.12-.45.23-.9.35-1.35s.17-.68.27-1,.17-.63.26-.94.18-.66.28-1,.16-.55.25-.83l.21-.69.15-.48c.08-.26.17-.53.26-.79s.1-.33.16-.5.18-.55.28-.83l.12-.33c.12-.37.25-.74.38-1.11s.31-.82.46-1.24l.3-.78c.92-2.41,1.94-4.78,3-7.09a100.22,100.22,0,0,1,16.75-24.83,101.67,101.67,0,0,1,8.9-8.59c1-.84,2-1.67,3-2.48A100.49,100.49,0,0,1,279,409.5Z"/></g><g id="Moon"><g id="Moon-2" data-name="Moon"><path class="cls-10" d="M1712.74,1079.5H263.29q9-8,18.45-15.73,10.17-8.41,20.74-16.58c106.12-82.07,240.88-145,393-180.81a1246.25,1246.25,0,0,1,160.08-26.71l7.59-.75h0Q924.4,833.06,988,833q47.93,0,94.66,3.39l.31,0A1265.58,1265.58,0,0,1,1247,859a1181.49,1181.49,0,0,1,131.54,35,1088.08,1088.08,0,0,1,108.05,42c70.87,32,135.25,70.71,191.45,114.79q8.22,6.43,16.22,13,9.09,7.51,17.88,15.21Z"/><path class="cls-11" d="M1486.63,936a58.51,58.51,0,0,1-108.05-42q51.78,17.06,100,38.38C1481.27,933.54,1484,934.74,1486.63,936Z"/><path class="cls-11" d="M597,1018a39,39,0,0,1-76.36,11.22h0a39,39,0,0,1,70.72-31.43h0A38.79,38.79,0,0,1,597,1018Z"/><circle class="cls-11" cx="1143.5" cy="999.5" r="58.5"/><path class="cls-11" d="M440,1009a10,10,0,0,1-10,10,9,9,0,0,1-1.48-.12h0a10,10,0,0,1,0-19.76h0A9,9,0,0,1,430,999,10,10,0,0,1,440,1009Z"/><path class="cls-11" d="M668,922a10,10,0,0,1-8.48,9.88h0A9,9,0,0,1,658,932a10,10,0,0,1,0-20,9,9,0,0,1,1.48.12h0A10,10,0,0,1,668,922Z"/><path class="cls-11" d="M1304,918a10,10,0,0,1-10,10,9.84,9.84,0,0,1-4.62-1.14A10,10,0,0,1,1294,908a8.71,8.71,0,0,1,1.62.14A10,10,0,0,1,1304,918Z"/><path class="cls-11" d="M395,1071a38.61,38.61,0,0,1-.54,6.5c-.14.84-.31,1.68-.51,2.5h-75.9c-.2-.82-.37-1.66-.51-2.5A39,39,0,1,1,395,1071Z"/><path class="cls-11" d="M947,1057c0,1.49,0,3-.16,4.44a62.94,62.94,0,0,1-4.16,18.56H825.32a62.94,62.94,0,0,1-4.16-18.56c-.11-1.47-.16-3-.16-4.44a63,63,0,0,1,126,0Z"/><path class="cls-11" d="M1083,836.41a115,115,0,0,1-227.45,3.26l1.4-.14,6.19-.61h0c2.42-.23,4.84-.46,7.26-.67Q928.16,833,988,833q41.06,0,81.23,2.5,6.81.4,13.59.9Z"/><path class="cls-11" d="M1637.68,1079.5H1410.33a115,115,0,0,1,227.35,0Z"/><path class="cls-11" d="M786,964.5a19.52,19.52,0,0,1-26.9,18h0a19.5,19.5,0,1,1,19.81-33.09h0A19.47,19.47,0,0,1,786,964.5Z"/><path class="cls-11" d="M1314,1020.5a18.67,18.67,0,0,1-.1,2v0a19.5,19.5,0,0,1-38.8,0v0a18.67,18.67,0,0,1-.1-2,19.5,19.5,0,0,1,39,0Z"/><path class="cls-12" d="M1082.82,836.4c-16.86,44.15-61.36,75.68-113.58,75.68-51,0-94.58-30.05-112.32-72.55l6.19-.61h0c2.42-.23,4.84-.46,7.26-.67Q928.16,833,988,833q41.06,0,81.23,2.5Q1076,835.91,1082.82,836.4Z"/><path class="cls-12" d="M394.46,1077.5c-.11.67-.24,1.34-.39,2H317.93c-.15-.66-.28-1.33-.39-2a39,39,0,0,1,76.92,0Z"/><path class="cls-12" d="M437,1009a10,10,0,0,1-8.48,9.88h0a10,10,0,0,1,0-19.76h0A10,10,0,0,1,437,1009Z"/><path class="cls-12" d="M593,1009a39,39,0,0,1-72.36,20.22h0a39,39,0,0,1,70.72-31.43h0A38.77,38.77,0,0,1,593,1009Z"/><path class="cls-12" d="M668,922a10,10,0,0,1-8.48,9.88h0a10,10,0,0,1,0-19.76h0A10,10,0,0,1,668,922Z"/><path class="cls-12" d="M786,964.5a19.52,19.52,0,0,1-26.9,18h0a19.51,19.51,0,0,1,19.81-33.09h0A19.47,19.47,0,0,1,786,964.5Z"/><path class="cls-12" d="M946.84,1061.44a62.33,62.33,0,0,1-4,18.06H825.14a62.33,62.33,0,0,1-4-18.06,63,63,0,0,1,125.68,0Z"/><circle class="cls-12" cx="1138" cy="1006" r="51"/><path class="cls-12" d="M1313.9,1022.49v0a19.5,19.5,0,0,1-38.8,0v0a19.5,19.5,0,0,1,38.8,0Z"/><path class="cls-12" d="M1301,917a10,10,0,0,1-10,10,8.71,8.71,0,0,1-1.62-.14A10,10,0,0,1,1294,908a8.71,8.71,0,0,1,1.62.14A10,10,0,0,1,1301,917Z"/><path class="cls-12" d="M1478.57,932.35a54,54,0,0,1-100-38.38Q1430.36,911,1478.57,932.35Z"/><path class="cls-12" d="M1637.68,1079.5H1431.22a115.07,115.07,0,0,1,130.67-91.11,115.12,115.12,0,0,1,75.79,91.11Z"/><path class="cls-13" d="M1717.81,1081H258.21q11.49-10.17,23.53-20,10.17-8.31,20.74-16.38C408.6,963.54,543.36,901.35,695.44,866a1260.35,1260.35,0,0,1,160.08-26.39c2.53-.26,5.06-.5,7.59-.74h0Q924.4,833.06,988,833q47.93,0,94.66,3.35l.31,0A1279.72,1279.72,0,0,1,1247,858.69a1194.12,1194.12,0,0,1,131.54,34.55,1096.23,1096.23,0,0,1,108.05,41.48c70.87,31.66,135.25,69.86,191.45,113.42q8.22,6.36,16.22,12.89,9.09,7.42,17.88,15C1714.07,1077.7,1715.94,1079.35,1717.81,1081Z"/></g></g><g id="Astronaut"><g id="Helmet"><path class="cls-14" d="M649.22,705.59a40.32,40.32,0,1,1-46.8-39.79l.39-.06a39.64,39.64,0,0,1,6.1-.47,42.06,42.06,0,0,1,4.92.3l.78.11A40.3,40.3,0,0,1,649.22,705.59Z"/><rect class="cls-15" x="565.45" y="690.45" width="8.65" height="19.27" rx="4.33"/><rect class="cls-16" x="564.27" y="690.45" width="8.65" height="19.27" rx="4.33"/><rect class="cls-15" x="643.72" y="690.45" width="8.65" height="19.27" rx="4.33"/><rect class="cls-17" x="644.9" y="690.45" width="8.65" height="19.27" rx="4.33"/><path class="cls-15" d="M614.61,667.25v8.25a5.9,5.9,0,1,1-11.8,0v-8.19a40.59,40.59,0,0,1,11-.16Z"/><path class="cls-16" d="M614.61,665.68v8.25a5.9,5.9,0,1,1-11.8,0v-8.19a39.64,39.64,0,0,1,6.1-.47,42.06,42.06,0,0,1,4.92.3Z"/><rect class="cls-18" x="608.32" y="647.18" width="0.79" height="20.06"/><circle class="cls-18" cx="608.71" cy="647.18" r="1.18"/></g><g id="Bodysuit"><rect class="cls-14" x="562.3" y="733.32" width="92.43" height="136.88" rx="46.22"/></g><g id="Arms"><g id="Left"><path class="cls-14" d="M568.59,738.43l-.39,25.17a50.81,50.81,0,0,0-7.87,8.26c-4.1,5.42-6.44,10.83-9,21.3,0,.17-.09.34-.13.52-.18.7-.35,1.43-.53,2.18,0,.16-.08.33-.11.5-1,4.14-2,9-3.17,14.84-1.32,6.57-2.79,14.09-4.32,22.42l-11-.4a126.83,126.83,0,0,1-.39-33c.31-2.55.63-5.19,1-7.88,0-.19,0-.38.08-.58q.16-1.07.33-2.16c0-.2.06-.39.1-.59,1.76-10.73,5-22.16,13.43-32.84A65,65,0,0,1,568.59,738.43Z"/><rect class="cls-19" x="531.23" y="829.38" width="12.93" height="21.54" rx="6.46"/><rect class="cls-16" x="541.49" y="829.92" width="3.45" height="13.2" rx="1.72" transform="translate(-440.43 671.33) rotate(-47.47)"/><rect class="cls-16" x="531.23" y="830.95" width="12.93" height="21.54" rx="6.46"/><path class="cls-20" d="M551.16,793.68c-.22.86-.43,1.75-.64,2.68l-17.89-4.06c.13-.91.26-1.82.41-2.74Z"/><path class="cls-21" d="M551.29,793.16c0,.17-.09.34-.13.52-.18.7-.35,1.43-.53,2.18l-17.92-4.14q.16-1.07.33-2.16c0-.2.06-.39.1-.59Z"/></g><g id="Right"><path class="cls-14" d="M648.33,738.43l.39,25.17a50.81,50.81,0,0,1,7.87,8.26c4.1,5.42,6.44,10.83,9,21.3,0,.17.08.34.13.52.17.7.34,1.43.52,2.18l.12.5c1,4.14,2,9,3.16,14.84,1.32,6.57,2.79,14.09,4.33,22.42l11-.4a126.83,126.83,0,0,0,.39-33c-.3-2.55-.62-5.19-1-7.88l-.09-.58q-.15-1.07-.33-2.16c0-.2-.06-.39-.1-.59-1.76-10.73-5-22.16-13.42-32.84A65,65,0,0,0,648.33,738.43Z"/><rect class="cls-19" x="673.56" y="829.38" width="12.93" height="21.54" rx="6.46" transform="translate(1360.04 1680.3) rotate(180)"/><rect class="cls-16" x="673.56" y="830.95" width="12.93" height="21.54" rx="6.46" transform="translate(1360.04 1683.45) rotate(-180)"/><rect class="cls-16" x="672.77" y="829.92" width="3.45" height="13.2" rx="1.72" transform="translate(514.02 1899.04) rotate(-132.53)"/><path class="cls-20" d="M665.77,794.07c.21.86.42,1.75.64,2.68l17.89-4.06c-.13-.9-.27-1.82-.42-2.73Z"/><path class="cls-21" d="M665.64,793.55c0,.17.08.34.13.52l.52,2.18,17.92-4.13q-.15-1.08-.33-2.16c0-.2-.06-.4-.1-.6Z"/></g></g><g id="Legs"><g id="Left-2" data-name="Left"><rect class="cls-16" x="575.49" y="954.94" width="23.08" height="10.62" rx="5.31"/><path class="cls-14" d="M608.5,851.5l-2,17.88c-.12,1.06-.25,2.11-.37,3.17l-4.56,39.91c0,.4-.08.79-.13,1.18l-.27,2.36c0,.4-.09.79-.14,1.18q-2.32,20.46-4.67,40.91H578.05l-2.7-40.91c0-.39-.06-.78-.08-1.18-.06-.78-.11-1.57-.16-2.36l-.08-1.18-3.57-54.06c-.08-1.14-.16-2.28-.23-3.41s-.15-2.33-.23-3.49Z"/><path class="cls-20" d="M606.46,870.17c-.12,1.06-.25,2.11-.37,3.17l-34.63-14.16c-.08-1.13-.16-2.27-.23-3.41Z"/><path class="cls-21" d="M606.46,869.38c-.12,1.06-.25,2.11-.37,3.17L571.46,858.4c-.08-1.14-.16-2.28-.23-3.41Z"/><path class="cls-20" d="M601.4,913.64l-.27,2.36c0,.4-.09.79-.14,1.18H575.35c0-.39-.06-.78-.08-1.18-.06-.78-.11-1.57-.16-2.36Z"/><path class="cls-21" d="M601.53,912.46c0,.4-.08.79-.13,1.18l-.27,2.36H575.27c-.06-.78-.11-1.57-.16-2.36l-.08-1.18Z"/></g><g id="Right-2" data-name="Right"><rect class="cls-16" x="618.12" y="954.94" width="23.08" height="10.62" rx="5.31"/><path class="cls-14" d="M608.5,851.5l2,17.88c.12,1.06.25,2.11.37,3.17l4.56,39.91c0,.4.08.79.13,1.18l.27,2.36c0,.4.09.79.14,1.18q2.32,20.46,4.67,40.91H639l2.7-40.91c0-.39.06-.78.08-1.18.06-.78.11-1.57.16-2.36l.08-1.18,3.57-54.06c.08-1.14.16-2.28.23-3.41s.15-2.33.23-3.49Z"/><path class="cls-20" d="M610.54,870.17c.12,1.06.25,2.11.37,3.17l34.63-14.16c.08-1.13.16-2.27.23-3.41Z"/><path class="cls-21" d="M610.54,869.38c.12,1.06.25,2.11.37,3.17l34.63-14.15c.08-1.14.16-2.28.23-3.41Z"/><path class="cls-20" d="M615.6,913.64l.27,2.36c0,.4.09.79.14,1.18h25.64c0-.39.06-.78.08-1.18.06-.78.11-1.57.16-2.36Z"/><path class="cls-21" d="M615.47,912.46c0,.4.08.79.13,1.18l.27,2.36h25.86c.06-.78.11-1.57.16-2.36l.08-1.18Z"/></g></g><g id="Tank"><path class="cls-16" d="M663,734.55v84.07q0,.61,0,1.23a31.33,31.33,0,0,1-.68,5.51,32.31,32.31,0,0,1-31.6,25.56H586.35a32.31,32.31,0,0,1-31.6-25.56,31.33,31.33,0,0,1-.68-5.51q0-.61,0-1.23V734.55a32.58,32.58,0,0,1,1.19-8.7,32.31,32.31,0,0,1,31.12-23.6h44.33a32.31,32.31,0,0,1,31.12,23.6,32.58,32.58,0,0,1,1.19,8.7Z"/><path class="cls-22" d="M554.49,735.62l.15,0a4.08,4.08,0,0,1,2.64,1.48c.89,1.3-.56,3.77-.86,4.29-2,3.55-3.93,10-7.72,23A47.72,47.72,0,0,0,546.34,780c.19,4.23,1.48,14.19,11.58,25.31a21.54,21.54,0,0,0,2.36,1.5c2,1.1,2.69,1,3.43,1.71a4.66,4.66,0,0,1,.65,5.36c-1.25,2.07-4.57,2.85-7.3,1.08-5-4.27-18.79-17.05-19.51-35-.32-7.79,1.88-15.36,3.22-19.94a86.25,86.25,0,0,1,9.43-21.23C551,737.79,553,735.5,554.49,735.62Z"/><path class="cls-23" d="M663,819.85a31.33,31.33,0,0,1-.68,5.51H554.75a31.33,31.33,0,0,1-.68-5.51Z"/><path class="cls-23" d="M662.83,731.35H554.2a31.07,31.07,0,0,1,1-5.5H661.8A31.07,31.07,0,0,1,662.83,731.35Z"/></g></g><g id="Comets"><rect class="cls-24" x="1517.24" y="625.64" width="343.84" height="13.16" rx="6.5" transform="translate(3491.97 685.35) rotate(161.17)"/><rect class="cls-25" x="1518.24" y="680.4" width="362.8" height="13" rx="6.5" transform="translate(3530.02 788.4) rotate(161.17)"/><rect class="cls-26" x="1420.88" y="579.73" width="513.99" height="13" rx="6.5" transform="translate(3455.17 599.48) rotate(161.17)"/></g><g id="Planets"><g id="Ring"><path class="cls-27" d="M389.05,745c0,1,0,2-.06,3a75.71,75.71,0,0,1-8.75,32.55.56.56,0,0,0-.05.08,76,76,0,0,1-140.37-15.26c-.23-.84-.45-1.69-.66-2.54v0a73.46,73.46,0,0,1-1.84-11.37q-.27-3.18-.27-6.44a76,76,0,0,1,151.76-6.15Q389.05,741.9,389.05,745Z"/><path class="cls-28" d="M347.83,693.79v7.3a3.31,3.31,0,0,1-3.32,3.32H248.79a76.1,76.1,0,0,1,11.33-13.94h84.39A3.31,3.31,0,0,1,347.83,693.79Z"/><path class="cls-28" d="M380.19,780.64a76,76,0,0,1-5.74,9.16H356a4.58,4.58,0,1,1,0-9.16Z"/><path class="cls-28" d="M374.45,789.8a76.43,76.43,0,0,1-7.88,9.16H308.16a4.58,4.58,0,1,1,0-9.16Z"/><path class="cls-28" d="M386.26,765.47a75.55,75.55,0,0,1-6,15.09H341.37a4.58,4.58,0,0,1-4.58-4.58v-5.93a4.58,4.58,0,0,1,4.58-4.58Z"/><path class="cls-28" d="M309,716.21v7.42a3.5,3.5,0,0,1-3.61,3.37H238.17a53.35,53.35,0,0,1,4.76-14.16h62.46A3.5,3.5,0,0,1,309,716.21Z"/><rect class="cls-28" x="257" y="699.87" width="35.55" height="17.83" rx="8.92"/><path class="cls-28" d="M276.84,754.76v7.31a3.31,3.31,0,0,1-3.32,3.31h-33.7a75.32,75.32,0,0,1-2.5-13.94h36.2A3.32,3.32,0,0,1,276.84,754.76Z"/><path class="cls-28" d="M389.05,745.05c0,1,0,2-.09,3h-24.8c-4,0-7.16-2-7.16-4.51a3.89,3.89,0,0,1,2.1-3.18,9.56,9.56,0,0,1,5.06-1.32h24.51A48.65,48.65,0,0,1,389.05,745.05Z"/><path class="cls-29" d="M386.41,723.92a75.19,75.19,0,0,1,1.75,8.26c9.78,4,15.49,8.74,15.49,13.88,0,5.3-6.06,10.21-16.38,14.24-16.34,6.38-43.36,10.55-73.93,10.55-31,0-58.28-4.28-74.56-10.8-9.94-4-15.75-8.8-15.75-14,0-5,5.47-9.72,14.88-13.63.08-.53.16-1.07.26-1.6.4-2.34.91-4.65,1.53-6.91-19,5.86-30.7,14-30.7,22.94,0,9.3,12.62,17.68,32.83,23.58,18.62,5.44,43.67,8.77,71.22,8.77s52.61-3.33,71.22-8.77c20.21-5.9,32.84-14.28,32.84-23.58C417.11,737.89,405.37,729.78,386.41,723.92Z"/><g class="cls-30"><path class="cls-1" d="M313.05,820.5a75.71,75.71,0,0,1-72.75-55.25c-.22-.83-.44-1.66-.64-2.49-.11-1.73-.16-3.27-.16-4.76a70.73,70.73,0,0,1,7.59-31.94,73.1,73.1,0,0,1,4.91-8.37,76.54,76.54,0,0,1,12.08-13.85,85.37,85.37,0,0,1,111.38-1.33,75.29,75.29,0,0,1,12.85,36.38c.16,2,.24,4.07.24,6.11,0,1,0,2-.06,3a75.24,75.24,0,0,1-8.66,32.28l-.06.1a75.36,75.36,0,0,1-13.55,18.24A75.08,75.08,0,0,1,313.05,820.5Z"/><path class="cls-2" d="M320.53,683a83.68,83.68,0,0,1,54.56,19.84,74.9,74.9,0,0,1,12.72,36.09c.16,2,.24,4,.24,6.07,0,1,0,2-.06,3a74.6,74.6,0,0,1-8.6,32.06l-.05.08v0l0,0a75,75,0,0,1-138.53-15l-.63-2.42c-.1-1.67-.15-3.21-.15-4.7a70.82,70.82,0,0,1,1.17-12.84,71.56,71.56,0,0,1,6.36-18.87,73.76,73.76,0,0,1,4.89-8.32,76.55,76.55,0,0,1,12-13.76A83.27,83.27,0,0,1,320.53,683m0-1a84.41,84.41,0,0,0-56.79,21.47,77.35,77.35,0,0,0-12.15,13.94,73.48,73.48,0,0,0-5,8.43A71.31,71.31,0,0,0,239,758c0,1.62.06,3.22.16,4.81v0c.21.85.43,1.7.66,2.54a76,76,0,0,0,140.37,15.26.56.56,0,0,1,.05-.08A75.71,75.71,0,0,0,389,748c0-1,.06-2,.06-3q0-3.11-.24-6.15a75.59,75.59,0,0,0-13-36.68A84.55,84.55,0,0,0,320.53,682Z"/></g></g></g><g id="Flag"><g id="Actual_Flag" data-name="Actual Flag"><g id="Pole"><path class="cls-31" d="M509.4,957.48l-93.2-355.1a5.08,5.08,0,0,1-3.28,1,6.36,6.36,0,0,1-1.09-.17l93.17,355Z"/><path class="cls-31" d="M416.2,602.38a3.28,3.28,0,0,0,1.37-2.46c.09-2-1.85-3.71-4.34-3.82s-4.56,1.43-4.65,3.43a3.89,3.89,0,0,0,3.25,3.66,6.36,6.36,0,0,0,1.09.17A5.08,5.08,0,0,0,416.2,602.38Z"/></g><path class="cls-32" d="M553,702a51.38,51.38,0,0,1-31.24,4.85L501,622.36A70,70,0,0,0,529,619a341.24,341.24,0,0,0,24,83Z"/><path class="cls-3" d="M534,704.37a284.13,284.13,0,0,0-96.29.91Q427.34,658,417,610.77A207.25,207.25,0,0,1,511.55,609a194.94,194.94,0,0,1,16,41.8A204.92,204.92,0,0,1,534,704.37Z"/><polyline class="cls-33" points="534 704 521 707 519.83 702.44"/></g><circle class="cls-34" cx="485.25" cy="654.14" r="36.14"/><g id="Me"><path d="M464.62,634.8S464,641.87,466,646c0,0,1.2,2.62,2.4,3.4,0,0,.1.2.26.49l5.07-28.17h0a19.91,19.91,0,0,0-5.57,4.84S465.54,627.73,464.62,634.8Z"/><polygon points="492.84 624.57 498.34 644.37 499.56 631.61 494.99 624.96 492.84 624.57"/><polygon class="cls-35" points="496.33 652.23 499.8 674.02 476.76 677.69 474.66 664.07 473.18 655.67 496.33 652.23"/><path class="cls-36" d="M473.18,655.67l1.06,4.8c.92.59,2.27,1.42,3.92,2.4,4.94,2.91,7.44,4.36,9.15,4.12,2.52-.35,4.28-2.52,6.24-4.93,0,0,.5-.62,3.51-5.22h0l-.73-4.61"/><path class="cls-35" d="M495.05,627.53c-1.85-3-4.59-6.1-11.17-7.59s-12.12,2.39-15,5.93-3.08,9-3.07,12v.47c0,2.83.32,6.37,1.1,8.21a52.08,52.08,0,0,0,3.37,5.94s.36.53,1,1.33l1.89,1.9,1,1,.21.17a19.54,19.54,0,0,0,5.69,3.38,14.08,14.08,0,0,0,3.54.83c8.05.8,10.7-4.86,10.7-4.86l2.91-5.89s.82-3.75,1.06-5.87a10,10,0,0,0-.09-1.8s-.07-3.32-.31-6.07C497.92,636.6,496.89,630.53,495.05,627.53Z"/><path class="cls-37" d="M493.89,619s-9.24-11.36-21.91-6-11.85,21.39-11.85,21.39c-2.14,2.77.33,5.56.33,5.56a23.58,23.58,0,0,0,3.24,7,16,16,0,0,0,4,4c.24.16.47.31.68.43a8.25,8.25,0,0,0,1.78.84,22.88,22.88,0,0,1-1.48-2.51c-.16-.29-.26-.49-.26-.49-1.2-.78-2.4-3.4-2.4-3.4-2.07-4.09-1.4-11.16-1.4-11.16.92-7.07,3.53-8.29,3.53-8.29a19.91,19.91,0,0,1,5.57-4.84,14.88,14.88,0,0,1,6.34-2c7.28-.57,13.19,5.39,13.19,5.39,1.31-.16,4.37,5.77,4.37,5.77,1.23.39.72,13.59.72,13.59,3.49-2.8,1.78-11.56,1.78-11.56C500.6,625.81,493.89,619,493.89,619Z"/><path class="cls-38" d="M468.58,622.19a14.56,14.56,0,0,1,8.5-5.72,15.26,15.26,0,0,1,11,1.95c0,.1-4.86-2.66-10.61-1.46C471.91,618.12,468.65,622.29,468.58,622.19Z"/><path id="Frame" d="M465.14,635.15l3.27-.27s8.82-4.37,13.34-1.42l2.95-.47a12.3,12.3,0,0,1,10.47-2.59s1.84.19,2.16.17c0,0,.37-.07.33.77s-.05,1.36-.48,1.78a3.9,3.9,0,0,0-.31,1.25,11.61,11.61,0,0,1-1.08,3.41,6.22,6.22,0,0,1-3.86,2.37,5.82,5.82,0,0,1-4.33-.69c-1.36-.84-2.31-3.43-2.35-3.58a1.29,1.29,0,0,0-1.62-1.11c-1.52.18-1.36,2.39-1.36,2.39a7.2,7.2,0,0,1-2.11,4.15c-1.77,1.46-5.45,1.5-5.59,1.14,0,0-2.76-.6-3.51-2.56,0,0-1-2.33-1.7-2.71l-.63-.52-3.34,0Z"/><path id="Lens" class="cls-35" d="M471.45,635.18s-1.29.91-.28,3.56,2.89,3,2.89,3,4.27,1,6.12-1.69,1.25-4.2,1.25-4.2a2.77,2.77,0,0,0-2.6-2.61C476.23,632.89,472.7,633.52,471.45,635.18Z"/><path id="Lens-2" data-name="Lens" class="cls-35" d="M486.67,633s-1.14.38-.27,3.56a4.67,4.67,0,0,0,4.17,3.34s3.26-.2,4.49-2a6.73,6.73,0,0,0,1.09-3.85,3.09,3.09,0,0,0-2.92-3C490.29,630.61,486.82,632.07,486.67,633Z"/><path class="cls-35" d="M468.13,648.54c-1.08,1.25-1.57.82-1.57.82-1.32-1.51.06-3.51.06-3.51Z"/><path class="cls-35" d="M498.39,640.44s2.11,2.52-.1,2.67"/><circle cx="467.13" cy="648.48" r="0.44"/><circle cx="498.78" cy="642.49" r="0.33"/><path class="cls-39" d="M470.61,652.93c-.79-.31-1.83.46-2.65,1.18a22.41,22.41,0,0,0-4.8,6.41,21.16,21.16,0,0,0,0,4.33s-2.22,4.8-.4,5.67,7,1,7,1l3.2,1.38s2.61,5.58,7.72,5.28,4-.64,4-.64a12.67,12.67,0,0,0,2.52-.17s3.4.17,3.85-.16,5,.61,5,.61a13.12,13.12,0,0,0,2.07-1.35,14.4,14.4,0,0,0,2.76-2.84l2-2.18,2.45-1.23c5.91-2.94,8-3.85,9.57-6.14a3.62,3.62,0,0,0,.83-2.71,3.73,3.73,0,0,0-1.89-2.37,17.29,17.29,0,0,0-2.85-4.26c-4.72-5.17-11.27-5.81-13.35-5.93l-1.25,3.43,1,4.48s2.36,2,.11,4.94a73.38,73.38,0,0,0-1.53,8.87l-6.23,5.09a19.54,19.54,0,0,0-10.5-5.32l-4.49-6.22-1.48-8.4a13.94,13.94,0,0,1-1.51-1.61C471.1,653.36,471,653.07,470.61,652.93Z"/><path class="cls-40" d="M470.84,656.75,468.65,658a5.13,5.13,0,0,0-1.34,1.5,2.91,2.91,0,0,0-.07,3.69,5.45,5.45,0,0,0,1.21,1.45,9,9,0,0,0,3.61,2.52l7.09,3.13-4.49-6.22-1.18-7.43-.3-1Z"/><path class="cls-41" d="M496.33,652.23a18.79,18.79,0,0,1,4.11,1.34c2,.92,4.54,2.1,5.46,4.56A4.37,4.37,0,0,1,505,663c-.75.83-1.58,1.69-2.5,2.54a41.84,41.84,0,0,1-6.57,5c.08-1.2.22-2.16.32-2.8a49.62,49.62,0,0,0,.9-5c.07-.94.07-1.73.07-1.73-.05-1-.07-1.8-.07-2.34a17.74,17.74,0,0,0,0-1.82c0-.33-.08-.57-.09-.65s-.19-1.14-.49-3C496.45,653,496.39,652.65,496.33,652.23Z"/><path class="cls-41" d="M473.18,655.67c-.06,0-.12,0-.5.59s-.55.83-.89,1.37a5.3,5.3,0,0,0-.61,1,4.66,4.66,0,0,0-.21.71,4.92,4.92,0,0,0,.29.75,4.45,4.45,0,0,0,.82,1.09c.54.54,1.4,1.51,2.58,2.88-.22-1.26-.38-2.28-.47-3-.14-1-.29-1.94-.42-2.92C473.53,656.46,473.44,655.7,473.18,655.67Z"/><path class="cls-42" d="M495.94,674.14a.59.59,0,0,0,0-.13l0-.2a.2.2,0,0,1,.08-.12.5.5,0,0,1,.22-.09,1.91,1.91,0,0,1,.33-.1,1.6,1.6,0,0,1,.55,0,1.24,1.24,0,0,1,.33.09l.11.24a.53.53,0,0,1,0,.32.71.71,0,0,1-.12.29l-.17.8.22,1.77.3,2.32.23,2.35.28,3.13-.09,1.14.19.91.35,3.69.47,4,.14.9-.24.61-.25.13.08,1.89-.42.15-.35-.07-.18-1.82-.26-.15-.13-1.38-.12-1.37-.09-3.8-.48-3.24-.26-2.32-.12-3-.63-4.9Z"/><path class="cls-40" d="M500,651.39c.94.19,4.05.88,5.85,2.46l.71.62c.36.32.92.81,1.9,1.63a6.44,6.44,0,0,1,1.58,1.65,5.22,5.22,0,0,1,.72,2.35l0,1.6a4.59,4.59,0,0,1-.72,1.69c-.65.94-1.44,1.28-3,2.14-1.78,1-1,.68-3,1.76-2.37,1.32-4.2,2.14-5.09,2.56a65,65,0,0,0-7.44,4.13l1.51-1.22,1.58-1.29,1.17-1c2.37-1.94,4.69-3.55,7-5.67a36.44,36.44,0,0,0,2.82-2.89,4.45,4.45,0,0,0,.51-2.71,4.52,4.52,0,0,0-.73-1.84c-.85-1.35-2-2-4.31-3.36a14.55,14.55,0,0,0-1.86-1c-1.53-.62-2.8-.32-3-.86-.1-.31.2-.65.25-.7S497.31,650.86,500,651.39Z"/><path class="cls-42" d="M481.12,672.41a.5.5,0,0,0,0-.12,1.1,1.1,0,0,1,0-.18s0-.05-.12-.08a.77.77,0,0,0-.24,0h-.34a2.3,2.3,0,0,0-.53.14,1.5,1.5,0,0,0-.29.18l0,.24a.51.51,0,0,0,.07.29.84.84,0,0,0,.21.21l.4.64.32,1.6.39,2.1.49,2.1.66,2.79.43,1,.09.84.76,3.3.74,3.62.13.82.42.45.28,0,.48,1.66h.44l.32-.17-.37-1.62.2-.21-.29-1.24-.29-1.22-1-3.32-.51-3-.44-2.08-.78-2.63-.86-4.44Z"/></g></g><g id="Earth"><path class="cls-43" d="M1703,737c0,1,0,1.93-.06,2.89l-.06,1.16c0,.17,0,.33,0,.49l0,.46c0,.22,0,.43,0,.64l0,.38c0,.23,0,.45-.07.67s0,.33-.05.49c0,.4-.09.79-.14,1.19a.15.15,0,0,0,0,.07l-.06.4c0,.28-.07.55-.11.83s-.07.43-.1.64c-.06.37-.12.75-.19,1.12l-.06.31c0,.14,0,.28-.08.42-.1.57-.22,1.13-.34,1.68,0,.25-.1.49-.16.73s-.11.48-.17.72-.07.28-.1.42-.15.58-.22.86c-.36,1.38-.77,2.74-1.22,4.08l-.36,1.06-.12.33-.26.69c-.08.22-.16.44-.25.66s-.16.43-.25.64l-.24.6c-.12.3-.25.6-.38.9s-.17.4-.25.59-.24.55-.37.82-.22.49-.34.74-.15.31-.23.47-.12.27-.19.4c-.26.53-.53,1.06-.8,1.59s-.56,1.05-.85,1.56c-.12.22-.24.43-.37.64s-.2.35-.3.52-.22.38-.34.57-.22.38-.34.57-.31.5-.47.75l0,0-.45.7c-.49.75-1,1.49-1.52,2.22l-.49.68c-.63.86-1.28,1.69-1.94,2.51l-.31.38c-.37.45-.75.9-1.14,1.34l-.41.48-.2.22-.49.55-.42.45c-.26.28-.53.56-.8.83s-.3.32-.45.47c-.31.32-.63.63-1,.94l-.67.65-.08.08-.46.42-1,.88c-.13.12-.26.24-.4.35s-.48.43-.73.63l-.52.44-.4.33-.38.3-.46.38c-1.1.87-2.22,1.69-3.37,2.49l-.61.41-.58.39c-.74.48-1.49,1-2.25,1.41l-.72.43-.7.41-.66.36-.43.24-.35.19-.6.32-.79.4-.14.07-.77.38-.52.25-.39.18-.39.18-.78.35-.6.26-.07,0-.62.27h0l-.61.25-1.48.58-.42.15c-.52.2-1.05.38-1.57.56h0a63.3,63.3,0,0,1-6.54,1.83l-.79.17h0l-.91.18-.94.18-1,.16-.62.1-.75.11-.75.11-1.41.17-.4,0-.21,0-.47,0-.87.08-.43,0-.84.06-.7,0-.76,0-.48,0h-.53l-.74,0H1638c-.85,0-1.7,0-2.54,0a65,65,0,1,1,19.9-127.61,64.43,64.43,0,0,1,14.62,6.07l1.43.83a64.05,64.05,0,0,1,7.67,5.39,65.05,65.05,0,0,1,15.15,17.75l.44.76.32.58.37.68,0,.06c.35.66.69,1.32,1,2,.11.21.21.43.32.65l0,0,.33.7.6,1.35.11.26c.18.42.36.85.53,1.28l.08.2.25.63.28.73a.19.19,0,0,0,0,.07c.09.24.18.48.26.72s.18.51.27.77.16.45.23.68.19.57.28.86.14.43.2.64l.09.3.17.56,0,.12.15.51c.23.86.46,1.73.66,2.61.35,1.48.64,3,.89,4.48,0,.1,0,.2,0,.3s.07.46.11.69l.12.9c0,.28.07.55.1.83,0,.11,0,.22,0,.33s.05.47.08.7.06.63.08.94,0,.53.07.79,0,.24,0,.35a.49.49,0,0,1,0,.12c0,.2,0,.41,0,.61,0,.53,0,1.05.07,1.58,0,.15,0,.3,0,.45,0,.32,0,.63,0,.95S1703,736.72,1703,737Z"/><path class="cls-44" d="M1679.08,686.63h-58.75a8.89,8.89,0,0,1-8.88-8.88v-.1a64.91,64.91,0,0,1,67.63,9Z"/><path class="cls-44" d="M1694.23,704.38h-58a8.88,8.88,0,1,1,0-17.75h42.85a65.05,65.05,0,0,1,15.15,17.75Z"/><path class="cls-44" d="M1699.65,757.65l-.36,1.06-.12.33-.26.69c-.08.22-.16.44-.25.66s-.16.43-.25.64l-.24.6c-.12.3-.25.6-.38.9s-.17.4-.25.59-.24.55-.37.82-.22.49-.34.74-.15.31-.23.47-.12.27-.19.4c-.26.53-.53,1.06-.8,1.59s-.56,1.05-.85,1.56c-.12.22-.24.43-.37.64s-.2.35-.3.52-.22.38-.34.57-.22.38-.34.57-.31.5-.47.75l0,0-.45.7c-.49.75-1,1.49-1.52,2.22l-.49.68h-70.07a8.88,8.88,0,1,1,0-17.75Z"/><path class="cls-44" d="M1690.45,775.4c-.63.86-1.28,1.69-1.94,2.51l-.31.38c-.37.45-.75.9-1.14,1.34l-.41.48-.2.22c-.16.19-.33.37-.49.55l-.42.45c-.26.28-.53.56-.8.83s-.3.32-.45.47c-.31.32-.63.63-1,.94l-.67.65-.08.08-.46.42-1,.88c-.13.12-.26.24-.4.35s-.48.43-.73.63l-.52.44-.4.33-.38.3-.46.38c-1.1.87-2.22,1.69-3.37,2.49l-.61.41-.58.39c-.74.48-1.49,1-2.25,1.41l-.72.43h-41.85a8.88,8.88,0,1,1,0-17.76Z"/><path class="cls-44" d="M1701.29,722.14h-86.54a8.88,8.88,0,1,1,0-17.76h79.48l.44.76.32.58.37.68,0,.06c.35.66.69,1.32,1,2,.11.21.21.43.32.65l0,0,.33.7.6,1.35.11.26c.18.42.36.85.53,1.28l.08.2.25.63.28.73a.19.19,0,0,0,0,.07c.09.24.18.48.26.72s.18.51.27.77.16.45.23.68.19.57.28.86.14.43.2.64l.09.3.17.56,0,.12.15.51C1700.86,720.39,1701.09,721.26,1701.29,722.14Z"/><path class="cls-44" d="M1702.94,739.89l-.06,1.16c0,.17,0,.33,0,.49l0,.46c0,.22,0,.43,0,.64l0,.38c0,.23,0,.45-.07.67s0,.33-.05.49c0,.4-.09.79-.14,1.19a.15.15,0,0,0,0,.07l-.06.4c0,.28-.07.55-.11.83s-.07.43-.1.64c-.06.37-.12.75-.19,1.12l-.06.31c0,.14,0,.28-.08.42-.1.57-.22,1.13-.34,1.68,0,.25-.1.49-.16.73s-.11.48-.17.72-.07.28-.1.42-.15.58-.22.86c-.36,1.38-.77,2.74-1.22,4.08h-70.73a8.88,8.88,0,0,1,0-17.76Z"/><path class="cls-44" d="M1670.74,793.16l-.7.41-.66.36-.43.24-.35.19-.6.32-.79.4-.14.07-.77.38-.52.25-.39.18-.39.18-.78.35-.6.26-.07,0-.62.27h0l-.61.25-1.48.58-.42.15c-.52.2-1.05.38-1.57.56h0a63.3,63.3,0,0,1-6.54,1.83l-.79.17h0l-.91.18-.94.18-1,.16-.62.1-.75.11-.75.11-1.41.17-.61.06-.47,0-.87.08-.43,0-.84.06-.7,0-.76,0-.48,0h-.53l-.74,0H1638c-.85,0-1.7,0-2.54,0a8.88,8.88,0,0,1,8.88-8.79Z"/><path class="cls-44" d="M1703,737c0,1,0,1.93-.06,2.89H1599.48a8.88,8.88,0,0,1,0-17.75h101.81c.35,1.48.64,3,.89,4.48,0,.1,0,.2,0,.3s.07.46.11.69l.12.9c0,.28.07.55.1.83,0,.11,0,.22,0,.33s.05.47.08.7.06.63.08.94,0,.53.07.79,0,.24,0,.35a.49.49,0,0,1,0,.12c0,.2,0,.41,0,.61,0,.53,0,1.05.07,1.58,0,.15,0,.3,0,.45,0,.32,0,.63,0,.95S1703,736.72,1703,737Z"/><path class="cls-45" d="M1685,692.1h-34.23a8.88,8.88,0,1,1,0-17.76h4.59A65.28,65.28,0,0,1,1685,692.1Z"/><path class="cls-45" d="M1702.47,745.37a.15.15,0,0,0,0,.07l-.06.4c0,.28-.07.55-.11.83s-.07.43-.1.64c-.06.37-.12.75-.19,1.12l-.06.31c0,.14,0,.28-.08.42-.1.57-.22,1.13-.34,1.68,0,.25-.1.49-.16.73s-.11.48-.17.72-.07.28-.1.42-.15.58-.22.86c-.36,1.38-.77,2.74-1.22,4.08l-.36,1.06-.12.33-.26.69c-.08.22-.16.44-.25.66s-.16.43-.25.64l-.24.6c-.12.3-.25.6-.38.9s-.17.4-.25.59h-53.21a8.89,8.89,0,0,1-8.2-5.47,8.88,8.88,0,0,1,8.2-12.28Z"/><path class="cls-45" d="M1697.54,763.12c-.12.27-.24.55-.37.82s-.22.49-.34.74-.15.31-.23.47-.12.27-.19.4c-.26.53-.53,1.06-.8,1.59s-.56,1.05-.85,1.56c-.12.22-.24.43-.37.64s-.2.35-.3.52-.22.38-.34.57-.22.38-.34.57-.31.5-.47.75l0,0-.45.7c-.49.75-1,1.49-1.52,2.22l-.49.68c-.63.86-1.28,1.69-1.94,2.51l-.31.38c-.37.45-.75.9-1.14,1.34l-.41.48-.2.22c-.16.19-.33.37-.49.55h-12.24a8.89,8.89,0,0,1-8.2-5.48,8.74,8.74,0,0,1-.68-3.4,8.88,8.88,0,0,1,8.88-8.88Z"/><path class="cls-45" d="M1697.08,709.85h-43a8.85,8.85,0,0,1-8.19-5.47,8.88,8.88,0,0,1,8.19-12.28h31a64.92,64.92,0,0,1,9.23,12.28l.44.76.32.58.37.68,0,.06c.35.66.69,1.32,1,2,.11.21.21.43.32.65l0,0Z"/><path class="cls-45" d="M1703,737c0,1,0,1.93-.06,2.89l-.06,1.16c0,.17,0,.33,0,.49l0,.46c0,.22,0,.43,0,.64l0,.38c0,.23,0,.45-.07.67s0,.33-.05.49c0,.4-.09.79-.14,1.19h-37.31a8.88,8.88,0,1,1,0-17.76h37.17l.12.9c0,.28.07.55.1.83,0,.11,0,.22,0,.33s.05.47.08.7.06.63.08.94,0,.53.07.79,0,.24,0,.35a.49.49,0,0,1,0,.12c0,.2,0,.41,0,.61,0,.53,0,1.05.07,1.58,0,.15,0,.3,0,.45,0,.32,0,.63,0,.95S1703,736.72,1703,737Z"/><path class="cls-45" d="M1686,780.88l-.42.45c-.26.28-.53.56-.8.83s-.3.32-.45.47c-.31.32-.63.63-1,.94l-.67.65-.08.08-.46.42-1,.88c-.13.12-.26.24-.4.35s-.48.43-.73.63l-.52.44-.4.33-.38.3-.46.38c-1.1.87-2.22,1.69-3.37,2.49l-.61.41-.58.39c-.74.48-1.49,1-2.25,1.41l-.72.43-.7.41-.66.36-.43.24-.35.19-.6.32-.79.4-.14.07-.77.38-.52.25-.39.18-.39.18-.78.35-.6.26-.07,0-.62.27h0l-.61.25-1.48.58-.42.15c-.52.2-1.05.38-1.57.56h0a8.88,8.88,0,0,1-7.51-5.44,9,9,0,0,1-.67-3.41,8.88,8.88,0,0,1,8.88-8.87Z"/><path class="cls-45" d="M1702.33,727.61H1641a8.88,8.88,0,0,1-8.2-5.47,9,9,0,0,1-.67-3.41,8.88,8.88,0,0,1,8.87-8.88h56l.6,1.35.11.26c.18.42.36.85.53,1.28l.08.2.25.63.28.73a.19.19,0,0,0,0,.07c.09.24.18.48.26.72s.18.51.27.77.16.45.23.68.19.57.28.86.14.43.2.64l.09.3.17.56,0,.12.15.51c.23.86.46,1.73.66,2.61.35,1.48.64,3,.89,4.48,0,.1,0,.2,0,.3S1702.29,727.38,1702.33,727.61Z"/><g class="cls-30"><path class="cls-1" d="M1644.72,801.16c-1-.13-1.91-.28-2.81-.46-15.68-11.61-25.41-32.79-25.41-55.3,0-25.41,12.17-48.53,31-58.91a43.75,43.75,0,0,1,21.35-5.59h1c.44.25.88.5,1.31.76a62.74,62.74,0,0,1,7.61,5.35,64.55,64.55,0,0,1,15,17.61s.35.6.43.75.25.46.33.59l.36.66c.38.72.71,1.37,1,2l.19.38.13.26,0,.07,0,0c.1.22.21.43.31.65l.7,1.59c.18.41.36.84.53,1.26l.32.83.25.64v0l.08.18.23.65c.07.19.13.36.18.52l.09.25c.08.22.15.44.22.67s.19.57.28.86.14.42.2.63l.26.87,0,.1.14.5c.24.86.46,1.73.66,2.6.33,1.4.62,2.86.89,4.45l0,.27.12.73.12.88.09.81a2.51,2.51,0,0,1,0,.32l.08.73c0,.28.06.6.08.9s0,.47.06.7v.1c0,.11,0,.21,0,.31v.12l0,.63c0,.5,0,1,.07,1.49l0,.56v.91c0,.29,0,.57,0,.84,0,1,0,1.92-.06,2.87l-.06,1.15c0,.15,0,.32,0,.49l-.11,1.47-.12,1.14-.13,1.1v.22l0,.33c0,.26-.07.49-.1.73l0,.1c0,.17-.06.37-.08.57l0,.19c-.06.32-.11.65-.17,1l-.06.3c0,.15,0,.26-.07.38-.11.62-.23,1.17-.35,1.71l-.15.72-.28,1.15-.22.85c-.34,1.31-.74,2.67-1.2,4l-.48,1.38-.26.68c-.08.22-.15.44-.24.65l-.06.16c-.06.16-.12.32-.19.47l-.24.61c-.12.3-.25.6-.38.89,0,.14-.25.6-.25.6l-.09.19-.27.6c-.12.26-.22.5-.34.74a3.58,3.58,0,0,1-.17.34l-.11.23a2.39,2.39,0,0,1-.13.28c-.26.53-.51,1-.77,1.54l-.2.37-.67,1.23c-.12.22-.24.42-.37.63s-.14.27-.21.38l-.09.15-.33.55c-.13.22-.23.4-.34.57l-.47.75-.48.75c-.49.74-1,1.48-1.51,2.2-.12.18-.25.35-.37.52l-.11.16c-.55.74-1.16,1.53-1.93,2.49l-.32.39c-.35.43-.73.87-1.11,1.31l-.42.48a1.8,1.8,0,0,1-.18.2l-.5.57-.42.44c-.25.28-.52.55-.78.82l-.45.47c-.3.3-.6.6-.91.89l-.68.66-.13.13-.43.39c-.32.3-.63.59-1,.87-.13.12-.25.24-.38.34s-.49.44-.73.63-.36.31-.53.44l-.39.33-.38.3-.48.39c-1,.79-2.09,1.6-3.32,2.46l-1.19.8c-.73.47-1.47.94-2.22,1.39-.25.15-.47.29-.71.42l-.72.42-.64.35-.79.44-.54.28-.82.42-.12.06-.79.39-.21.1-.29.14-.79.37-.77.34-.59.26-.63.27h0l-.1,0-.59.24-1.48.58-.42.15c-.45.18-.9.33-1.35.49l-.13,0-.09,0a61.66,61.66,0,0,1-6.49,1.81l-.77.17-.41.08h0l-1.45.28-1,.16-.61.1-.74.1-.77.12-1.39.16Z"/><path class="cls-2" d="M1668.87,681.4h.84l1.19.7a62.55,62.55,0,0,1,7.55,5.31,66.44,66.44,0,0,1,5.83,5.38,64.15,64.15,0,0,1,9.08,12.09l.17.29.26.45.1.19c.08.14.16.27.21.37l.2.37.17.31,0,.06h0c.39.74.71,1.36,1,2l.18.36.12.24.06.17,0,0c.08.19.17.36.25.53l.41.93.19.42,0,.1.06.14c.18.42.35.84.53,1.28l0,.07a.34.34,0,0,0,0,.1c0,.11.08.22.13.33s.08.2.11.29l.15.37.11.29a.84.84,0,0,0,0,.17q.13.33.24.66v.05c.06.16.12.32.17.48l.09.26c.07.21.15.42.22.67s.19.55.28.85.13.4.19.61l.08.26v0h0l.08.27c0,.09,0,.19.07.25l0,.1v.06l.13.47c.24.87.46,1.72.66,2.58.32,1.38.61,2.81.87,4.39,0,0,0,.1,0,.16a.34.34,0,0,1,0,.1v.07l.06.33c0,.12,0,.24,0,.32l0,.13.1.78c0,.27.07.53.1.8v.07c0,.08,0,.16,0,.28s0,.22,0,.33,0,.25,0,.34c0,.3.06.6.08.9v0l.06.7v.06c0,.1,0,.19,0,.27v.17h0c0,.11,0,.22,0,.33a2.64,2.64,0,0,1,0,.29c0,.52,0,1,.07,1.59a1.15,1.15,0,0,1,0,.19c0,.07,0,.15,0,.22s0,.31,0,.46v.5c0,.26,0,.53,0,.8,0,1,0,1.91-.06,2.84l0,.58,0,.55c0,.17,0,.34,0,.51l0,.43c0,.11,0,.22,0,.33s0,.2,0,.33l0,.36,0,.33c0,.12,0,.23,0,.31l0,.26c0,.08,0,.15,0,.23s0,.4-.07.6l-.06.52a.55.55,0,0,0,0,.17l0,.38c0,.24-.06.47-.1.71v0c0,.21-.07.42-.1.62v0l0,.14c0,.31-.1.64-.16.94l0,.17,0,.14v.06l-.07.39c-.1.55-.22,1.11-.34,1.65,0,.24-.09.46-.15.69l-.09.37c0,.12,0,.23-.09.38s0,.12,0,.18,0,.16-.05.22l-.12.47-.1.37c-.34,1.3-.74,2.65-1.21,4-.12.34-.23.68-.34,1l-.09.25,0,.06-.14.35-.13.36-.24.64-.06.14c-.05.15-.11.31-.19.49l-.24.6c-.11.28-.24.57-.38.9l-.15.35-.08.2-.09.2-.29.63c-.1.24-.21.47-.34.74,0,.1-.09.2-.14.3l-.08.15,0,.1-.14.28-.78,1.56-.17.32c-.22.4-.44.82-.68,1.23-.11.2-.22.4-.34.59l0,0,0,0-.18.31-.1.17c-.1.17-.2.35-.34.56s-.2.36-.33.56-.3.48-.45.72l0,0h0l-.22.34-.22.34c-.45.69-.94,1.41-1.5,2.2l-.38.52-.1.14c-.54.74-1.15,1.53-1.92,2.49l-.13.16-.16.2c-.36.44-.74.88-1.15,1.34l-.4.48-.14.14,0,0,0,0-.26.29-.21.24-.21.22-.21.23c-.25.27-.52.54-.78.8l0,0,0,0c-.13.14-.27.29-.42.43-.3.31-.61.61-.94.93s-.44.43-.65.64l-.11.11-.18.16-.24.22-1,.88c-.11.1-.22.2-.34.29l0,0,0,0c-.22.21-.44.4-.71.62s-.33.29-.51.43l-.37.31-.42.32-.2.17-.22.19c-1,.8-2.1,1.6-3.3,2.44l-.26.17-.36.24-.29.19-.27.19c-.71.46-1.47.94-2.24,1.4-.23.14-.44.28-.71.43l-.33.19-.33.19-.41.23-.27.14-.41.23-.11.06-.24.13-.57.31-.4.2-.37.18-.16.09-.75.37-.22.1-.29.14-.39.18-.39.18-.77.35-.56.24,0,0h0l0,0-.32.14-.13.06h0l-.18.08-.6.24-1.44.57-.32.11-.12.05c-.44.17-.89.32-1.34.48h0l-.16,0a63.34,63.34,0,0,1-6.44,1.81l-.76.16-.81.15v0l-.11,0-.46.09-.47.09-1,.16-.59.09c-.24,0-.47.08-.75.11l-.35,0-.37.06-.74.09-.62.07-.23,0h-.07c-.92-.12-1.77-.25-2.62-.42A60.19,60.19,0,0,1,1624,777.48a75.72,75.72,0,0,1-7-32.08c0-25.23,12.07-48.18,30.74-58.47a43.25,43.25,0,0,1,21.11-5.53h0m0-1a44.43,44.43,0,0,0-21.59,5.65C1628.84,696.2,1616,719,1616,745.4c0,23.68,10.3,44.41,25.7,55.77,1,.2,2,.36,3,.49l.4,0,1.41-.17.75-.11.75-.11.62-.1,1-.16.94-.18.91-.18h0l.79-.17a63.3,63.3,0,0,0,6.54-1.83h0c.52-.18,1-.36,1.57-.56l.42-.15,1.48-.58.61-.25h0l.62-.27.07,0,.6-.26.78-.35.39-.18.39-.18.52-.25.77-.38.14-.07.79-.4.6-.32.35-.19.43-.24.66-.36.7-.41.72-.43c.76-.45,1.51-.93,2.25-1.41l.58-.39.61-.41c1.15-.8,2.27-1.62,3.37-2.49l.46-.38.38-.3.4-.33.52-.44c.25-.2.49-.41.73-.63s.27-.23.4-.35l1-.88.46-.42.08-.08.67-.65c.32-.31.64-.62,1-.94.15-.15.31-.31.45-.47s.54-.55.8-.83l.42-.45.49-.55.2-.22.41-.48c.39-.44.77-.89,1.14-1.34l.31-.38c.66-.82,1.31-1.65,1.94-2.51l.49-.68c.52-.73,1-1.47,1.52-2.22l.45-.7,0,0c.16-.25.32-.5.47-.75s.23-.38.34-.57.23-.38.34-.57.21-.34.3-.52.25-.42.37-.64c.29-.51.57-1,.85-1.56s.54-1.06.8-1.59c.07-.13.13-.27.19-.4s.16-.31.23-.47.23-.49.34-.74.25-.55.37-.82.17-.39.25-.59.26-.6.38-.9l.24-.6c.09-.21.17-.43.25-.64s.17-.44.25-.66l.26-.69.12-.33.36-1.06c.45-1.34.86-2.7,1.22-4.08.07-.28.15-.57.22-.86s.07-.28.1-.42.11-.48.17-.72.11-.48.16-.73c.12-.55.24-1.11.34-1.68,0-.14.06-.28.08-.42l.06-.31c.07-.37.13-.75.19-1.12,0-.21.06-.43.1-.64s.08-.55.11-.83l.06-.4a.15.15,0,0,1,0-.07c0-.4.09-.79.14-1.19,0-.16,0-.32.05-.49s0-.44.07-.67l0-.38c0-.21,0-.42,0-.64l0-.46c0-.16,0-.32,0-.49l.06-1.16c0-1,.06-1.92.06-2.89,0-.28,0-.56,0-.84s0-.63,0-.95c0-.15,0-.3,0-.45,0-.53,0-1-.07-1.58,0-.2,0-.41,0-.61a.49.49,0,0,0,0-.12c0-.11,0-.23,0-.35s0-.53-.07-.79,0-.63-.08-.94-.05-.47-.08-.7,0-.22,0-.33c0-.28-.06-.55-.1-.83l-.12-.9c0-.23-.07-.46-.11-.69s0-.2,0-.3c-.25-1.51-.54-3-.89-4.48-.2-.88-.43-1.75-.66-2.61l-.15-.51,0-.12-.17-.56-.09-.3c-.06-.21-.13-.43-.2-.64s-.18-.57-.28-.86-.15-.46-.23-.68-.17-.52-.27-.77-.17-.48-.26-.72a.19.19,0,0,1,0-.07l-.28-.73-.25-.63-.08-.2c-.17-.43-.35-.86-.53-1.28l-.11-.26-.6-1.35-.33-.7,0,0c-.11-.22-.21-.44-.32-.65-.33-.68-.67-1.34-1-2l0-.06-.37-.68-.32-.58-.44-.76a65.05,65.05,0,0,0-15.15-17.75,64.05,64.05,0,0,0-7.67-5.39l-1.43-.83Z"/></g></g></svg>