<svg xmlns="http://www.w3.org/2000/svg" xmlns:xlink="http://www.w3.org/1999/xlink" viewBox="0 0 1366 768"><defs><style>.cls-1{fill:#1c1c1c;}.cls-2{fill:#0f233e;}.cls-3{fill:#fff;}.cls-4{fill:#f2f2eb;}.cls-5{fill:#72706f;}.cls-6{fill:#a6a6a6;}.cls-7{fill:url(#linear-gradient);}.cls-8{fill:#c2c4c3;}.cls-9{fill:#e8e8e8;}.cls-10{fill:#dddddb;}.cls-11{fill:#fcff76;}.cls-12{fill:#ffd097;}.cls-13{fill:#efb87b;}.cls-14{fill:#c1432e;}.cls-15{fill:#a33021;}.cls-16{fill:#eaeaea;}.cls-17{fill:#d4d5d6;}.cls-18{fill:#c7c8c9;}.cls-19{fill:#e0e1e2;}.cls-20{fill:#e2e2e2;}.cls-21{fill:#8c8c8b;}.cls-22{fill:#afafae;}.cls-23{fill:#b2b2b1;}.cls-24{fill:#d3d3cd;}.cls-25{fill:#939393;}.cls-26{fill:#b73a34;}.cls-27{fill:#e74c3c;}.cls-28{fill:#7f7e7e;}.cls-29{fill:#565454;}</style><linearGradient id="linear-gradient" x1="681" y1="768" x2="681" y2="544" gradientUnits="userSpaceOnUse"><stop offset="0.1" stop-color="#1c1c1c"/><stop offset="0.85" stop-opacity="0.3"/></linearGradient></defs><title>Artboard 1</title><g id="bg"><rect class="cls-1" x="-1.5" y="-0.29" width="1367" height="767.08"/><path class="cls-2" d="M1365,.21V766.29H-1V.21H1365m1-1H-2V767.29H1366V-.79Z"/><circle class="cls-3" cx="7.61" cy="611.98" r="1.07"/><circle class="cls-3" cx="737.2" cy="609.06" r="0.95"/><circle class="cls-3" cx="739.97" cy="445.01" r="0.95"/><circle class="cls-3" cx="738.58" cy="645.14" r="1.37"/><circle class="cls-3" cx="686.39" cy="695.04" r="1.37"/><circle class="cls-3" cx="644.88" cy="748.72" r="1.37"/><circle class="cls-3" cx="558.96" cy="746.18" r="2.02"/><circle class="cls-3" cx="8.58" cy="638.85" r="1.07"/><circle class="cls-3" cx="8.79" cy="556.05" r="1.07"/><circle class="cls-3" cx="14.03" cy="656.21" r="1.07"/><circle class="cls-3" cx="71.52" cy="679.91" r="1.18"/><circle class="cls-3" cx="450.49" cy="653.71" r="2.19"/><circle class="cls-3" cx="10.51" cy="583.04" r="1.74"/><circle class="cls-3" cx="81.39" cy="743.27" r="2.19"/><circle class="cls-3" cx="125.07" cy="741.08" r="2.19"/><circle class="cls-3" cx="739.57" cy="555.46" r="1.54"/><circle class="cls-3" cx="695.3" cy="557.04" r="1.54"/><circle class="cls-3" cx="739.51" cy="739.66" r="2.23"/><circle class="cls-3" cx="26.55" cy="596.05" r="1.74"/><circle class="cls-3" cx="619.12" cy="583.52" r="1.07"/><circle class="cls-3" cx="622.02" cy="554.58" r="1.74"/><circle class="cls-3" cx="676.18" cy="509.92" r="1.74"/><circle class="cls-3" cx="638.06" cy="567.59" r="1.74"/><circle class="cls-3" cx="10.45" cy="682.98" r="1.74"/><circle class="cls-3" cx="477.76" cy="658.48" r="1.74"/><circle class="cls-3" cx="4.83" cy="741.08" r="2.19"/><circle class="cls-3" cx="122.91" cy="695.95" r="2.19"/><circle class="cls-3" cx="657.76" cy="718.59" r="2.23"/><circle class="cls-3" cx="571.84" cy="736.33" r="3.28"/><circle class="cls-3" cx="725.5" cy="580.48" r="1.54"/><circle class="cls-3" cx="677.67" cy="580.87" r="1.54"/><circle class="cls-3" cx="739.73" cy="578" r="1.07"/><circle class="cls-3" cx="394.09" cy="648.75" r="1.54"/><circle class="cls-3" cx="355.51" cy="647.28" r="1.54"/><circle class="cls-3" cx="374.88" cy="636.1" r="1.07"/><circle class="cls-3" cx="732.5" cy="675.17" r="1.55"/><circle class="cls-3" cx="670.83" cy="656.6" r="1.55"/><circle class="cls-3" cx="739.56" cy="705.01" r="1.55"/><circle class="cls-3" cx="42.93" cy="664.94" r="0.6"/><circle class="cls-3" cx="214.84" cy="659.38" r="1.07"/><circle class="cls-3" cx="272.33" cy="683.07" r="1.18"/><circle class="cls-3" cx="211.26" cy="686.14" r="1.74"/><circle class="cls-3" cx="248.02" cy="651.36" r="1.74"/><circle class="cls-3" cx="243.73" cy="668.1" r="0.6"/><circle class="cls-3" cx="19.92" cy="736.78" r="0.76"/><circle class="cls-3" cx="42.35" cy="644.18" r="0.6"/><circle class="cls-3" cx="8.14" cy="461.36" r="0.6"/><circle class="cls-3" cx="7.57" cy="440.6" r="0.6"/><circle class="cls-3" cx="44.74" cy="550.99" r="1.74"/><circle class="cls-3" cx="575.4" cy="615" r="1.74"/><circle class="cls-3" cx="506.6" cy="657.03" r="0.6"/><circle class="cls-3" cx="585.48" cy="637.85" r="0.6"/><circle class="cls-3" cx="660.19" cy="537.05" r="0.6"/><circle class="cls-3" cx="33.63" cy="700.26" r="0.76"/><circle class="cls-3" cx="110.26" cy="552.23" r="1.18"/><circle class="cls-3" cx="421.24" cy="636.32" r="2.19"/><circle class="cls-3" cx="81.66" cy="537.26" r="0.6"/><circle class="cls-3" cx="597.31" cy="611.32" r="0.76"/><circle class="cls-3" cx="11.23" cy="706.28" r="0.76"/><circle class="cls-3" cx="726.31" cy="512.55" r="0.77"/><circle class="cls-3" cx="706.84" cy="751.04" r="0.77"/><circle class="cls-3" cx="210.72" cy="747.09" r="1.13"/><circle class="cls-3" cx="564.05" cy="663.85" r="0.76"/><circle class="cls-3" cx="658.55" cy="748.81" r="0.77"/><circle class="cls-3" cx="701.59" cy="718.4" r="0.77"/><circle class="cls-3" cx="534.2" cy="624.29" r="1.37"/><circle class="cls-3" cx="322.13" cy="644.92" r="1.55"/><circle class="cls-3" cx="552.18" cy="637.36" r="0.77"/><circle class="cls-3" cx="739.94" cy="488.83" r="0.77"/><circle class="cls-3" cx="550.56" cy="666.55" r="0.76"/><circle class="cls-3" cx="516.93" cy="665.68" r="0.76"/><circle class="cls-3" cx="113.69" cy="741.84" r="0.76"/><circle class="cls-3" cx="98.17" cy="744.88" r="0.76"/><circle class="cls-3" cx="145.05" cy="624.97" r="1.18"/><circle class="cls-3" cx="161.93" cy="653.71" r="2.19"/><circle class="cls-3" cx="154.92" cy="688.33" r="2.19"/><circle class="cls-3" cx="182.99" cy="674.92" r="0.76"/><circle class="cls-3" cx="169.5" cy="677.62" r="0.76"/><circle class="cls-3" cx="135.87" cy="676.75" r="0.76"/><circle class="cls-3" cx="187.21" cy="686.9" r="0.76"/><circle class="cls-3" cx="171.7" cy="689.93" r="0.76"/><circle class="cls-3" cx="189.73" cy="621.69" r="2.19"/><circle class="cls-3" cx="220.46" cy="643.66" r="2.19"/><circle class="cls-3" cx="284.9" cy="655.12" r="2.19"/><circle class="cls-3" cx="157.65" cy="608.44" r="0.76"/><circle class="cls-3" cx="182.73" cy="643.68" r="0.76"/><circle class="cls-3" cx="562.47" cy="699.91" r="2.19"/><circle class="cls-3" cx="594.48" cy="692.28" r="2.19"/><circle class="cls-3" cx="613.41" cy="667.34" r="0.76"/><circle class="cls-3" cx="575.44" cy="680.7" r="0.76"/><circle class="cls-3" cx="664.72" cy="687.69" r="0.76"/><circle class="cls-3" cx="17.17" cy="512.82" r="1.37"/><circle class="cls-3" cx="614.02" cy="685.98" r="0.76"/><circle class="cls-3" cx="63.48" cy="597.74" r="0.6"/><circle class="cls-3" cx="62.91" cy="576.98" r="0.6"/><circle class="cls-3" cx="150.64" cy="429.92" r="1.07"/><circle class="cls-3" cx="151.6" cy="456.79" r="1.07"/><circle class="cls-3" cx="471.79" cy="193.05" r="1.07"/><circle class="cls-3" cx="157.03" cy="474.16" r="1.07"/><circle class="cls-3" cx="214.5" cy="497.9" r="1.18"/><circle class="cls-3" cx="153.57" cy="400.98" r="1.74"/><circle class="cls-3" cx="224.32" cy="561.27" r="2.19"/><circle class="cls-3" cx="268" cy="559.12" r="2.19"/><circle class="cls-3" cx="169.6" cy="414" r="1.74"/><circle class="cls-3" cx="153.43" cy="500.92" r="1.74"/><circle class="cls-3" cx="147.76" cy="559.02" r="2.19"/><circle class="cls-3" cx="265.88" cy="513.99" r="2.19"/><circle class="cls-3" cx="185.92" cy="482.9" r="0.6"/><circle class="cls-3" cx="677.84" cy="296.38" r="1.07"/><circle class="cls-3" cx="674.26" cy="323.14" r="1.74"/><circle class="cls-3" cx="162.85" cy="554.73" r="0.76"/><circle class="cls-3" cx="185.36" cy="462.14" r="0.6"/><circle class="cls-3" cx="507.74" cy="187.99" r="1.74"/><circle class="cls-3" cx="176.59" cy="518.22" r="0.76"/><circle class="cls-3" cx="573.26" cy="189.23" r="1.18"/><circle class="cls-3" cx="544.66" cy="174.26" r="0.6"/><circle class="cls-3" cx="154.18" cy="524.22" r="0.76"/><circle class="cls-3" cx="673.72" cy="384.09" r="1.13"/><circle class="cls-3" cx="256.61" cy="559.87" r="0.76"/><circle class="cls-3" cx="241.1" cy="562.89" r="0.76"/><circle class="cls-3" cx="288.07" cy="443.02" r="1.18"/><circle class="cls-3" cx="304.93" cy="471.77" r="2.19"/><circle class="cls-3" cx="297.89" cy="506.39" r="2.19"/><circle class="cls-3" cx="645.99" cy="311.92" r="0.76"/><circle class="cls-3" cx="632.5" cy="314.62" r="0.76"/><circle class="cls-3" cx="278.85" cy="494.79" r="0.76"/><circle class="cls-3" cx="650.21" cy="323.9" r="0.76"/><circle class="cls-3" cx="634.7" cy="326.93" r="0.76"/><circle class="cls-3" cx="652.73" cy="258.69" r="2.19"/><circle class="cls-3" cx="683.46" cy="280.66" r="2.19"/><circle class="cls-3" cx="300.69" cy="426.51" r="0.76"/><circle class="cls-3" cx="645.73" cy="280.68" r="0.76"/><circle class="cls-3" cx="480.17" cy="149.82" r="1.37"/><circle class="cls-3" cx="458.5" cy="142.46" r="0.76"/><circle class="cls-3" cx="206.53" cy="415.72" r="0.6"/><circle class="cls-3" cx="205.97" cy="394.96" r="0.6"/><circle class="cls-3" cx="685.1" cy="473.11" r="1.74"/><circle class="cls-3" cx="723.84" cy="469.16" r="1.74"/><circle class="cls-3" cx="703.85" cy="519.87" r="0.6"/><circle class="cls-3" cx="703.28" cy="499.1" r="0.6"/><circle class="cls-3" cx="11.61" cy="140.84" r="1.07"/><circle class="cls-3" cx="741.2" cy="143.76" r="0.95"/><circle class="cls-3" cx="743.97" cy="307.81" r="0.95"/><circle class="cls-3" cx="742.58" cy="107.68" r="1.37"/><circle class="cls-3" cx="690.39" cy="57.77" r="1.37"/><circle class="cls-3" cx="648.88" cy="4.09" r="1.37"/><circle class="cls-3" cx="562.96" cy="6.64" r="2.02"/><circle class="cls-3" cx="12.58" cy="113.96" r="1.07"/><circle class="cls-3" cx="12.79" cy="196.77" r="1.07"/><circle class="cls-3" cx="18.03" cy="96.6" r="1.07"/><circle class="cls-3" cx="75.52" cy="72.91" r="1.18"/><circle class="cls-3" cx="454.49" cy="99.11" r="2.19"/><circle class="cls-3" cx="14.51" cy="169.77" r="1.74"/><circle class="cls-3" cx="85.39" cy="9.54" r="2.19"/><circle class="cls-3" cx="129.07" cy="11.74" r="2.19"/><circle class="cls-3" cx="743.57" cy="197.36" r="1.54"/><circle class="cls-3" cx="699.3" cy="195.78" r="1.54"/><circle class="cls-3" cx="743.51" cy="13.16" r="2.23"/><circle class="cls-3" cx="30.55" cy="156.77" r="1.74"/><circle class="cls-3" cx="623.12" cy="169.3" r="1.07"/><circle class="cls-3" cx="306.1" cy="379.3" r="1.74"/><circle class="cls-3" cx="680.18" cy="242.9" r="1.74"/><circle class="cls-3" cx="642.06" cy="185.23" r="1.74"/><circle class="cls-3" cx="14.45" cy="69.84" r="1.74"/><circle class="cls-3" cx="481.76" cy="94.33" r="1.74"/><circle class="cls-3" cx="8.83" cy="11.74" r="2.19"/><circle class="cls-3" cx="301.91" cy="527.86" r="2.19"/><circle class="cls-3" cx="661.76" cy="34.22" r="2.23"/><circle class="cls-3" cx="575.84" cy="16.49" r="3.28"/><circle class="cls-3" cx="729.5" cy="172.34" r="1.54"/><circle class="cls-3" cx="681.67" cy="171.95" r="1.54"/><circle class="cls-3" cx="743.73" cy="174.82" r="1.07"/><circle class="cls-3" cx="398.09" cy="104.07" r="1.54"/><circle class="cls-3" cx="359.51" cy="105.54" r="1.54"/><circle class="cls-3" cx="378.88" cy="116.71" r="1.07"/><circle class="cls-3" cx="736.5" cy="77.64" r="1.55"/><circle class="cls-3" cx="674.83" cy="96.22" r="1.55"/><circle class="cls-3" cx="743.56" cy="47.81" r="1.55"/><circle class="cls-3" cx="46.93" cy="87.88" r="0.6"/><circle class="cls-3" cx="393.84" cy="564.44" r="1.07"/><circle class="cls-3" cx="451.33" cy="540.74" r="1.18"/><circle class="cls-3" cx="390.26" cy="537.68" r="1.74"/><circle class="cls-3" cx="427.02" cy="572.46" r="1.74"/><circle class="cls-3" cx="422.73" cy="555.72" r="0.6"/><circle class="cls-3" cx="23.92" cy="16.04" r="0.76"/><circle class="cls-3" cx="46.35" cy="108.64" r="0.6"/><circle class="cls-3" cx="12.14" cy="291.45" r="0.6"/><circle class="cls-3" cx="11.57" cy="312.22" r="0.6"/><circle class="cls-3" cx="48.74" cy="201.83" r="1.74"/><circle class="cls-3" cx="579.4" cy="137.81" r="1.74"/><circle class="cls-3" cx="510.6" cy="95.78" r="0.6"/><circle class="cls-3" cx="589.48" cy="114.97" r="0.6"/><circle class="cls-3" cx="664.19" cy="215.77" r="0.6"/><circle class="cls-3" cx="37.63" cy="52.56" r="0.76"/><circle class="cls-3" cx="114.26" cy="200.58" r="1.18"/><circle class="cls-3" cx="425.24" cy="116.5" r="2.19"/><circle class="cls-3" cx="85.66" cy="215.56" r="0.6"/><circle class="cls-3" cx="601.31" cy="141.5" r="0.76"/><circle class="cls-3" cx="15.23" cy="46.54" r="0.76"/><circle class="cls-3" cx="730.31" cy="240.26" r="0.77"/><circle class="cls-3" cx="710.84" cy="1.77" r="0.77"/><circle class="cls-3" cx="214.72" cy="5.73" r="1.13"/><circle class="cls-3" cx="568.05" cy="88.96" r="0.76"/><circle class="cls-3" cx="662.55" cy="4.01" r="0.77"/><circle class="cls-3" cx="714.59" cy="142.87" r="0.77"/><circle class="cls-3" cx="705.59" cy="34.42" r="0.77"/><circle class="cls-3" cx="538.2" cy="128.53" r="1.37"/><circle class="cls-3" cx="501.13" cy="578.89" r="1.55"/><circle class="cls-3" cx="556.18" cy="115.45" r="0.77"/><circle class="cls-3" cx="743.94" cy="263.99" r="0.77"/><circle class="cls-3" cx="554.56" cy="86.26" r="0.76"/><circle class="cls-3" cx="520.93" cy="87.13" r="0.76"/><circle class="cls-3" cx="117.69" cy="10.98" r="0.76"/><circle class="cls-3" cx="102.17" cy="7.94" r="0.76"/><circle class="cls-3" cx="324.05" cy="598.85" r="1.18"/><circle class="cls-3" cx="340.93" cy="570.11" r="2.19"/><circle class="cls-3" cx="333.92" cy="535.49" r="2.19"/><circle class="cls-3" cx="361.99" cy="548.9" r="0.76"/><circle class="cls-3" cx="348.5" cy="546.2" r="0.76"/><circle class="cls-3" cx="314.87" cy="547.07" r="0.76"/><circle class="cls-3" cx="366.21" cy="536.92" r="0.76"/><circle class="cls-3" cx="350.7" cy="533.89" r="0.76"/><circle class="cls-3" cx="368.73" cy="602.13" r="2.19"/><circle class="cls-3" cx="399.46" cy="580.16" r="2.19"/><circle class="cls-3" cx="463.9" cy="568.69" r="2.19"/><circle class="cls-3" cx="336.65" cy="615.37" r="0.76"/><circle class="cls-3" cx="498.02" cy="391.36" r="1.74"/><circle class="cls-3" cx="360.26" cy="292.23" r="1.18"/><circle class="cls-3" cx="331.66" cy="277.26" r="0.6"/><circle class="cls-3" cx="572.13" cy="384.92" r="1.55"/><circle class="cls-3" cx="395.05" cy="364.97" r="1.18"/><circle class="cls-3" cx="411.93" cy="393.71" r="2.19"/><circle class="cls-3" cx="439.73" cy="361.69" r="2.19"/><circle class="cls-3" cx="470.46" cy="383.66" r="2.19"/><circle class="cls-3" cx="534.9" cy="395.12" r="2.19"/><circle class="cls-3" cx="407.65" cy="348.44" r="0.76"/><circle class="cls-3" cx="432.73" cy="383.68" r="0.76"/><circle class="cls-3" cx="313.48" cy="337.74" r="0.6"/><circle class="cls-3" cx="312.91" cy="316.98" r="0.6"/><circle class="cls-3" cx="464.5" cy="237.9" r="1.18"/><circle class="cls-3" cx="474.32" cy="301.27" r="2.19"/><circle class="cls-3" cx="518" cy="299.12" r="2.19"/><circle class="cls-3" cx="403.43" cy="240.92" r="1.74"/><circle class="cls-3" cx="397.76" cy="299.02" r="2.19"/><circle class="cls-3" cx="515.88" cy="253.99" r="2.19"/><circle class="cls-3" cx="412.85" cy="294.73" r="0.76"/><circle class="cls-3" cx="426.59" cy="258.22" r="0.76"/><circle class="cls-3" cx="404.18" cy="264.22" r="0.76"/><circle class="cls-3" cx="506.61" cy="299.87" r="0.76"/><circle class="cls-3" cx="491.1" cy="302.89" r="0.76"/><circle class="cls-3" cx="547.89" cy="246.39" r="2.19"/><circle class="cls-3" cx="528.85" cy="234.79" r="0.76"/><circle class="cls-3" cx="551.91" cy="267.86" r="2.19"/><circle class="cls-3" cx="574.05" cy="338.85" r="1.18"/><circle class="cls-3" cx="590.93" cy="310.11" r="2.19"/><circle class="cls-3" cx="583.92" cy="275.49" r="2.19"/><circle class="cls-3" cx="564.87" cy="287.07" r="0.76"/><circle class="cls-3" cx="586.65" cy="355.37" r="0.76"/><circle class="cls-3" cx="361.73" cy="580.13" r="0.76"/><circle class="cls-3" cx="119.91" cy="65.86" r="2.19"/><circle class="cls-3" cx="211.84" cy="102.44" r="1.07"/><circle class="cls-3" cx="269.33" cy="78.74" r="1.18"/><circle class="cls-3" cx="208.26" cy="75.68" r="1.74"/><circle class="cls-3" cx="245.02" cy="110.46" r="1.74"/><circle class="cls-3" cx="240.73" cy="93.72" r="0.6"/><circle class="cls-3" cx="319.13" cy="116.89" r="1.55"/><circle class="cls-3" cx="142.05" cy="136.85" r="1.18"/><circle class="cls-3" cx="158.93" cy="108.11" r="2.19"/><circle class="cls-3" cx="151.92" cy="73.49" r="2.19"/><circle class="cls-3" cx="179.99" cy="86.9" r="0.76"/><circle class="cls-3" cx="166.5" cy="84.2" r="0.76"/><circle class="cls-3" cx="132.87" cy="85.07" r="0.76"/><circle class="cls-3" cx="184.21" cy="74.92" r="0.76"/><circle class="cls-3" cx="168.7" cy="71.89" r="0.76"/><circle class="cls-3" cx="186.73" cy="140.13" r="2.19"/><circle class="cls-3" cx="217.46" cy="118.16" r="2.19"/><circle class="cls-3" cx="281.9" cy="106.69" r="2.19"/><circle class="cls-3" cx="154.65" cy="153.37" r="0.76"/><circle class="cls-3" cx="179.73" cy="118.13" r="0.76"/><circle class="cls-3" cx="566.47" cy="52.91" r="2.19"/><circle class="cls-3" cx="598.48" cy="60.54" r="2.19"/><circle class="cls-3" cx="617.41" cy="85.47" r="0.76"/><circle class="cls-3" cx="579.44" cy="72.11" r="0.76"/><circle class="cls-3" cx="668.72" cy="65.13" r="0.76"/><circle class="cls-3" cx="21.17" cy="240" r="1.37"/><circle class="cls-3" cx="-0.5" cy="247.36" r="0.76"/><circle class="cls-3" cx="618.02" cy="66.84" r="0.76"/><circle class="cls-3" cx="67.48" cy="155.08" r="0.6"/><circle class="cls-3" cx="66.91" cy="175.84" r="0.6"/><circle class="cls-3" cx="40.52" cy="291.91" r="1.18"/><circle class="cls-3" cx="91.91" cy="275.86" r="2.19"/><circle class="cls-3" cx="525.84" cy="478.44" r="1.07"/><circle class="cls-3" cx="583.33" cy="454.74" r="1.18"/><circle class="cls-3" cx="522.26" cy="451.68" r="1.74"/><circle class="cls-3" cx="559.02" cy="486.46" r="1.74"/><circle class="cls-3" cx="554.73" cy="469.72" r="0.6"/><circle class="cls-3" cx="79.26" cy="419.58" r="1.18"/><circle class="cls-3" cx="291.13" cy="326.89" r="1.55"/><circle class="cls-3" cx="456.05" cy="512.85" r="1.18"/><circle class="cls-3" cx="472.93" cy="484.11" r="2.19"/><circle class="cls-3" cx="465.92" cy="449.49" r="2.19"/><circle class="cls-3" cx="493.99" cy="462.9" r="0.76"/><circle class="cls-3" cx="480.5" cy="460.2" r="0.76"/><circle class="cls-3" cx="446.87" cy="461.07" r="0.76"/><circle class="cls-3" cx="498.21" cy="450.92" r="0.76"/><circle class="cls-3" cx="482.7" cy="447.89" r="0.76"/><circle class="cls-3" cx="500.73" cy="516.13" r="2.19"/><circle class="cls-3" cx="531.46" cy="494.16" r="2.19"/><circle class="cls-3" cx="595.9" cy="482.69" r="2.19"/><circle class="cls-3" cx="468.65" cy="529.37" r="0.76"/><circle class="cls-3" cx="493.73" cy="494.13" r="0.76"/><circle class="cls-3" cx="219.91" cy="150.86" r="2.19"/><circle class="cls-3" cx="311.84" cy="187.44" r="1.07"/><circle class="cls-3" cx="369.33" cy="163.74" r="1.18"/><circle class="cls-3" cx="308.26" cy="160.68" r="1.74"/><circle class="cls-3" cx="345.02" cy="195.46" r="1.74"/><circle class="cls-3" cx="340.73" cy="178.72" r="0.6"/><circle class="cls-3" cx="242.05" cy="221.85" r="1.18"/><circle class="cls-3" cx="258.93" cy="193.11" r="2.19"/><circle class="cls-3" cx="251.92" cy="158.49" r="2.19"/><circle class="cls-3" cx="279.99" cy="171.9" r="0.76"/><circle class="cls-3" cx="266.5" cy="169.2" r="0.76"/><circle class="cls-3" cx="232.87" cy="170.07" r="0.76"/><circle class="cls-3" cx="284.21" cy="159.92" r="0.76"/><circle class="cls-3" cx="268.7" cy="156.89" r="0.76"/><circle class="cls-3" cx="286.73" cy="225.13" r="2.19"/><circle class="cls-3" cx="317.46" cy="203.16" r="2.19"/><circle class="cls-3" cx="381.9" cy="191.69" r="2.19"/><circle class="cls-3" cx="254.65" cy="238.37" r="0.76"/><circle class="cls-3" cx="279.73" cy="203.13" r="0.76"/><circle class="cls-3" cx="32.48" cy="374.08" r="0.6"/><circle class="cls-3" cx="31.91" cy="394.84" r="0.6"/><circle class="cls-3" cx="689.1" cy="279.7" r="1.74"/><circle class="cls-3" cx="727.84" cy="283.66" r="1.74"/><circle class="cls-3" cx="707.85" cy="232.95" r="0.6"/><circle class="cls-3" cx="707.28" cy="253.71" r="0.6"/><circle class="cls-3" cx="161.84" cy="301.38" r="1.07"/><circle class="cls-3" cx="158.26" cy="328.14" r="1.74"/><circle class="cls-3" cx="129.99" cy="316.92" r="0.76"/><circle class="cls-3" cx="116.5" cy="319.62" r="0.76"/><circle class="cls-3" cx="134.21" cy="328.9" r="0.76"/><circle class="cls-3" cx="118.7" cy="331.93" r="0.76"/><circle class="cls-3" cx="136.73" cy="263.69" r="2.19"/><circle class="cls-3" cx="167.46" cy="285.66" r="2.19"/><circle class="cls-3" cx="129.73" cy="285.68" r="0.76"/><circle class="cls-3" cx="227.97" cy="312.81" r="0.95"/><circle class="cls-3" cx="164.18" cy="247.9" r="1.74"/><circle class="cls-3" cx="214.31" cy="245.26" r="0.77"/><circle class="cls-3" cx="227.94" cy="268.99" r="0.77"/><circle class="cls-3" cx="173.1" cy="284.7" r="1.74"/><circle class="cls-3" cx="211.84" cy="288.66" r="1.74"/><circle class="cls-3" cx="191.85" cy="237.95" r="0.6"/><circle class="cls-3" cx="191.28" cy="258.71" r="0.6"/><circle class="cls-3" cx="780.33" cy="757.72" r="1.37"/><circle class="cls-3" cx="866.25" cy="755.18" r="2.02"/><circle class="cls-3" cx="1353.69" cy="688.91" r="1.18"/><circle class="cls-3" cx="974.72" cy="662.71" r="2.19"/><circle class="cls-3" cx="1343.82" cy="752.27" r="2.19"/><circle class="cls-3" cx="1300.14" cy="750.08" r="2.19"/><circle class="cls-3" cx="806.09" cy="592.52" r="1.07"/><circle class="cls-3" cx="803.19" cy="563.58" r="1.74"/><circle class="cls-3" cx="787.15" cy="576.59" r="1.74"/><circle class="cls-3" cx="947.45" cy="667.48" r="1.74"/><circle class="cls-3" cx="1302.3" cy="704.95" r="2.19"/><circle class="cls-3" cx="767.45" cy="727.59" r="2.23"/><circle class="cls-3" cx="853.38" cy="745.33" r="3.28"/><circle class="cls-3" cx="1031.13" cy="657.75" r="1.54"/><circle class="cls-3" cx="1069.71" cy="656.28" r="1.54"/><circle class="cls-3" cx="1050.34" cy="645.1" r="1.07"/><circle class="cls-3" cx="1210.38" cy="668.38" r="1.07"/><circle class="cls-3" cx="1152.88" cy="692.07" r="1.18"/><circle class="cls-3" cx="1213.96" cy="695.14" r="1.74"/><circle class="cls-3" cx="1177.19" cy="660.36" r="1.74"/><circle class="cls-3" cx="1181.48" cy="677.1" r="0.6"/><circle class="cls-3" cx="849.82" cy="624" r="1.74"/><circle class="cls-3" cx="918.61" cy="666.03" r="0.6"/><circle class="cls-3" cx="839.73" cy="646.85" r="0.6"/><circle class="cls-3" cx="765.02" cy="546.05" r="0.6"/><circle class="cls-3" cx="1314.95" cy="561.23" r="1.18"/><circle class="cls-3" cx="1003.97" cy="645.32" r="2.19"/><circle class="cls-3" cx="1343.55" cy="546.26" r="0.6"/><circle class="cls-3" cx="827.9" cy="620.32" r="0.76"/><circle class="cls-3" cx="1214.49" cy="756.09" r="1.13"/><circle class="cls-3" cx="861.16" cy="672.85" r="0.76"/><circle class="cls-3" cx="766.67" cy="757.81" r="0.77"/><circle class="cls-3" cx="891.01" cy="633.29" r="1.37"/><circle class="cls-3" cx="1103.08" cy="653.92" r="1.55"/><circle class="cls-3" cx="873.04" cy="646.36" r="0.77"/><circle class="cls-3" cx="874.65" cy="675.55" r="0.76"/><circle class="cls-3" cx="908.28" cy="674.68" r="0.76"/><circle class="cls-3" cx="1311.53" cy="750.84" r="0.76"/><circle class="cls-3" cx="1327.04" cy="753.88" r="0.76"/><circle class="cls-3" cx="1280.17" cy="633.97" r="1.18"/><circle class="cls-3" cx="1263.28" cy="662.71" r="2.19"/><circle class="cls-3" cx="1270.3" cy="697.33" r="2.19"/><circle class="cls-3" cx="1242.22" cy="683.92" r="0.76"/><circle class="cls-3" cx="1255.71" cy="686.62" r="0.76"/><circle class="cls-3" cx="1289.34" cy="685.75" r="0.76"/><circle class="cls-3" cx="1238" cy="695.9" r="0.76"/><circle class="cls-3" cx="1253.52" cy="698.93" r="0.76"/><circle class="cls-3" cx="1235.48" cy="630.69" r="2.19"/><circle class="cls-3" cx="1204.75" cy="652.66" r="2.19"/><circle class="cls-3" cx="1140.32" cy="664.12" r="2.19"/><circle class="cls-3" cx="1267.56" cy="617.44" r="0.76"/><circle class="cls-3" cx="1242.48" cy="652.68" r="0.76"/><circle class="cls-3" cx="862.74" cy="708.91" r="2.19"/><circle class="cls-3" cx="830.74" cy="701.28" r="2.19"/><circle class="cls-3" cx="811.8" cy="676.34" r="0.76"/><circle class="cls-3" cx="849.78" cy="689.7" r="0.76"/><circle class="cls-3" cx="760.5" cy="696.69" r="0.76"/><circle class="cls-3" cx="811.19" cy="694.98" r="0.76"/><circle class="cls-3" cx="1274.57" cy="438.92" r="1.07"/><circle class="cls-3" cx="1273.62" cy="465.79" r="1.07"/><circle class="cls-3" cx="953.42" cy="202.05" r="1.07"/><circle class="cls-3" cx="1268.19" cy="483.16" r="1.07"/><circle class="cls-3" cx="1210.71" cy="506.9" r="1.18"/><circle class="cls-3" cx="1271.65" cy="409.98" r="1.74"/><circle class="cls-3" cx="1200.9" cy="570.27" r="2.19"/><circle class="cls-3" cx="1157.22" cy="568.12" r="2.19"/><circle class="cls-3" cx="1255.62" cy="423" r="1.74"/><circle class="cls-3" cx="1271.79" cy="509.92" r="1.74"/><circle class="cls-3" cx="1277.46" cy="568.02" r="2.19"/><circle class="cls-3" cx="1159.34" cy="522.99" r="2.19"/><circle class="cls-3" cx="1239.3" cy="491.9" r="0.6"/><circle class="cls-3" cx="1262.36" cy="563.73" r="0.76"/><circle class="cls-3" cx="1239.85" cy="471.14" r="0.6"/><circle class="cls-3" cx="917.48" cy="196.99" r="1.74"/><circle class="cls-3" cx="1248.62" cy="527.22" r="0.76"/><circle class="cls-3" cx="851.95" cy="198.23" r="1.18"/><circle class="cls-3" cx="880.55" cy="183.26" r="0.6"/><circle class="cls-3" cx="1271.03" cy="533.22" r="0.76"/><circle class="cls-3" cx="1168.6" cy="568.87" r="0.76"/><circle class="cls-3" cx="1184.12" cy="571.89" r="0.76"/><circle class="cls-3" cx="1137.14" cy="452.02" r="1.18"/><circle class="cls-3" cx="1120.28" cy="480.77" r="2.19"/><circle class="cls-3" cx="1127.33" cy="515.39" r="2.19"/><circle class="cls-3" cx="779.22" cy="320.92" r="0.76"/><circle class="cls-3" cx="792.71" cy="323.62" r="0.76"/><circle class="cls-3" cx="1146.36" cy="503.79" r="0.76"/><circle class="cls-3" cx="775" cy="332.9" r="0.76"/><circle class="cls-3" cx="790.52" cy="335.93" r="0.76"/><circle class="cls-3" cx="772.48" cy="267.69" r="2.19"/><circle class="cls-3" cx="1124.53" cy="435.51" r="0.76"/><circle class="cls-3" cx="779.48" cy="289.68" r="0.76"/><circle class="cls-3" cx="945.05" cy="158.82" r="1.37"/><circle class="cls-3" cx="966.72" cy="151.46" r="0.76"/><circle class="cls-3" cx="1218.69" cy="424.72" r="0.6"/><circle class="cls-3" cx="1219.24" cy="403.96" r="0.6"/><circle class="cls-3" cx="776.33" cy="13.09" r="1.37"/><circle class="cls-3" cx="862.25" cy="15.64" r="2.02"/><circle class="cls-3" cx="1349.69" cy="81.91" r="1.18"/><circle class="cls-3" cx="970.72" cy="108.11" r="2.19"/><circle class="cls-3" cx="1339.82" cy="18.54" r="2.19"/><circle class="cls-3" cx="1296.14" cy="20.74" r="2.19"/><circle class="cls-3" cx="802.09" cy="178.3" r="1.07"/><circle class="cls-3" cx="1119.12" cy="388.3" r="1.74"/><circle class="cls-3" cx="783.15" cy="194.23" r="1.74"/><circle class="cls-3" cx="943.45" cy="103.33" r="1.74"/><circle class="cls-3" cx="1123.3" cy="536.86" r="2.19"/><circle class="cls-3" cx="763.45" cy="43.22" r="2.23"/><circle class="cls-3" cx="849.38" cy="25.49" r="3.28"/><circle class="cls-3" cx="1027.13" cy="113.07" r="1.54"/><circle class="cls-3" cx="1065.71" cy="114.54" r="1.54"/><circle class="cls-3" cx="1046.34" cy="125.71" r="1.07"/><circle class="cls-3" cx="1031.38" cy="573.44" r="1.07"/><circle class="cls-3" cx="973.88" cy="549.74" r="1.18"/><circle class="cls-3" cx="1034.96" cy="546.68" r="1.74"/><circle class="cls-3" cx="998.19" cy="581.46" r="1.74"/><circle class="cls-3" cx="1002.48" cy="564.72" r="0.6"/><circle class="cls-3" cx="845.82" cy="146.81" r="1.74"/><circle class="cls-3" cx="914.61" cy="104.78" r="0.6"/><circle class="cls-3" cx="835.73" cy="123.97" r="0.6"/><circle class="cls-3" cx="761.02" cy="224.77" r="0.6"/><circle class="cls-3" cx="1310.95" cy="209.58" r="1.18"/><circle class="cls-3" cx="999.97" cy="125.5" r="2.19"/><circle class="cls-3" cx="1339.55" cy="224.56" r="0.6"/><circle class="cls-3" cx="823.9" cy="150.5" r="0.76"/><circle class="cls-3" cx="1210.49" cy="14.73" r="1.13"/><circle class="cls-3" cx="857.16" cy="97.96" r="0.76"/><circle class="cls-3" cx="762.67" cy="13.01" r="0.77"/><circle class="cls-3" cx="887.01" cy="137.53" r="1.37"/><circle class="cls-3" cx="924.08" cy="587.89" r="1.55"/><circle class="cls-3" cx="869.04" cy="124.45" r="0.77"/><circle class="cls-3" cx="870.65" cy="95.26" r="0.76"/><circle class="cls-3" cx="904.28" cy="96.13" r="0.76"/><circle class="cls-3" cx="1307.53" cy="19.98" r="0.76"/><circle class="cls-3" cx="1323.04" cy="16.94" r="0.76"/><circle class="cls-3" cx="1101.17" cy="607.85" r="1.18"/><circle class="cls-3" cx="1084.28" cy="579.11" r="2.19"/><circle class="cls-3" cx="1091.3" cy="544.49" r="2.19"/><circle class="cls-3" cx="1063.22" cy="557.9" r="0.76"/><circle class="cls-3" cx="1076.71" cy="555.2" r="0.76"/><circle class="cls-3" cx="1110.34" cy="556.07" r="0.76"/><circle class="cls-3" cx="1059" cy="545.92" r="0.76"/><circle class="cls-3" cx="1074.52" cy="542.89" r="0.76"/><circle class="cls-3" cx="1056.48" cy="611.13" r="2.19"/><circle class="cls-3" cx="1025.75" cy="589.16" r="2.19"/><circle class="cls-3" cx="961.32" cy="577.69" r="2.19"/><circle class="cls-3" cx="1088.56" cy="624.37" r="0.76"/><circle class="cls-3" cx="927.19" cy="400.36" r="1.74"/><circle class="cls-3" cx="1064.95" cy="301.23" r="1.18"/><circle class="cls-3" cx="1093.55" cy="286.26" r="0.6"/><circle class="cls-3" cx="853.08" cy="393.92" r="1.55"/><circle class="cls-3" cx="1030.17" cy="373.97" r="1.18"/><circle class="cls-3" cx="1013.28" cy="402.71" r="2.19"/><circle class="cls-3" cx="985.48" cy="370.69" r="2.19"/><circle class="cls-3" cx="954.75" cy="392.66" r="2.19"/><circle class="cls-3" cx="890.32" cy="404.12" r="2.19"/><circle class="cls-3" cx="1017.56" cy="357.44" r="0.76"/><circle class="cls-3" cx="992.48" cy="392.68" r="0.76"/><circle class="cls-3" cx="1111.73" cy="346.74" r="0.6"/><circle class="cls-3" cx="1112.31" cy="325.98" r="0.6"/><circle class="cls-3" cx="960.71" cy="246.9" r="1.18"/><circle class="cls-3" cx="950.9" cy="310.27" r="2.19"/><circle class="cls-3" cx="907.22" cy="308.12" r="2.19"/><circle class="cls-3" cx="1021.79" cy="249.92" r="1.74"/><circle class="cls-3" cx="1027.46" cy="308.02" r="2.19"/><circle class="cls-3" cx="909.34" cy="262.99" r="2.19"/><circle class="cls-3" cx="1012.36" cy="303.73" r="0.76"/><circle class="cls-3" cx="998.62" cy="267.22" r="0.76"/><circle class="cls-3" cx="1021.03" cy="273.22" r="0.76"/><circle class="cls-3" cx="918.6" cy="308.87" r="0.76"/><circle class="cls-3" cx="934.12" cy="311.89" r="0.76"/><circle class="cls-3" cx="877.33" cy="255.39" r="2.19"/><circle class="cls-3" cx="896.36" cy="243.79" r="0.76"/><circle class="cls-3" cx="873.3" cy="276.86" r="2.19"/><circle class="cls-3" cx="851.17" cy="347.85" r="1.18"/><circle class="cls-3" cx="834.28" cy="319.11" r="2.19"/><circle class="cls-3" cx="841.3" cy="284.49" r="2.19"/><circle class="cls-3" cx="860.34" cy="296.07" r="0.76"/><circle class="cls-3" cx="838.56" cy="364.37" r="0.76"/><circle class="cls-3" cx="1063.48" cy="589.13" r="0.76"/><circle class="cls-3" cx="1305.3" cy="74.86" r="2.19"/><circle class="cls-3" cx="1213.38" cy="111.44" r="1.07"/><circle class="cls-3" cx="1155.88" cy="87.74" r="1.18"/><circle class="cls-3" cx="1216.96" cy="84.68" r="1.74"/><circle class="cls-3" cx="1180.19" cy="119.46" r="1.74"/><circle class="cls-3" cx="1184.48" cy="102.72" r="0.6"/><circle class="cls-3" cx="1106.08" cy="125.89" r="1.55"/><circle class="cls-3" cx="1283.17" cy="145.85" r="1.18"/><circle class="cls-3" cx="1266.28" cy="117.11" r="2.19"/><circle class="cls-3" cx="1273.3" cy="82.49" r="2.19"/><circle class="cls-3" cx="1245.22" cy="95.9" r="0.76"/><circle class="cls-3" cx="1258.71" cy="93.2" r="0.76"/><circle class="cls-3" cx="1292.34" cy="94.07" r="0.76"/><circle class="cls-3" cx="1241" cy="83.92" r="0.76"/><circle class="cls-3" cx="1256.52" cy="80.89" r="0.76"/><circle class="cls-3" cx="1238.48" cy="149.13" r="2.19"/><circle class="cls-3" cx="1207.75" cy="127.16" r="2.19"/><circle class="cls-3" cx="1143.32" cy="115.69" r="2.19"/><circle class="cls-3" cx="1270.56" cy="162.37" r="0.76"/><circle class="cls-3" cx="1245.48" cy="127.13" r="0.76"/><circle class="cls-3" cx="858.74" cy="61.91" r="2.19"/><circle class="cls-3" cx="826.74" cy="69.54" r="2.19"/><circle class="cls-3" cx="807.8" cy="94.47" r="0.76"/><circle class="cls-3" cx="845.78" cy="81.11" r="0.76"/><circle class="cls-3" cx="807.19" cy="75.84" r="0.76"/><circle class="cls-3" cx="1333.3" cy="284.86" r="2.19"/><circle class="cls-3" cx="899.38" cy="487.44" r="1.07"/><circle class="cls-3" cx="841.88" cy="463.74" r="1.18"/><circle class="cls-3" cx="902.96" cy="460.68" r="1.74"/><circle class="cls-3" cx="866.19" cy="495.46" r="1.74"/><circle class="cls-3" cx="870.48" cy="478.72" r="0.6"/><circle class="cls-3" cx="1345.95" cy="428.58" r="1.18"/><circle class="cls-3" cx="1134.08" cy="335.89" r="1.55"/><circle class="cls-3" cx="969.17" cy="521.85" r="1.18"/><circle class="cls-3" cx="952.28" cy="493.11" r="2.19"/><circle class="cls-3" cx="959.3" cy="458.49" r="2.19"/><circle class="cls-3" cx="931.22" cy="471.9" r="0.76"/><circle class="cls-3" cx="944.71" cy="469.2" r="0.76"/><circle class="cls-3" cx="978.34" cy="470.07" r="0.76"/><circle class="cls-3" cx="927" cy="459.92" r="0.76"/><circle class="cls-3" cx="942.52" cy="456.89" r="0.76"/><circle class="cls-3" cx="924.48" cy="525.13" r="2.19"/><circle class="cls-3" cx="893.75" cy="503.16" r="2.19"/><circle class="cls-3" cx="829.32" cy="491.69" r="2.19"/><circle class="cls-3" cx="956.56" cy="538.37" r="0.76"/><circle class="cls-3" cx="931.48" cy="503.13" r="0.76"/><circle class="cls-3" cx="1205.3" cy="159.86" r="2.19"/><circle class="cls-3" cx="1113.38" cy="196.44" r="1.07"/><circle class="cls-3" cx="1055.88" cy="172.74" r="1.18"/><circle class="cls-3" cx="1116.96" cy="169.68" r="1.74"/><circle class="cls-3" cx="1080.19" cy="204.46" r="1.74"/><circle class="cls-3" cx="1084.48" cy="187.72" r="0.6"/><circle class="cls-3" cx="1183.17" cy="230.85" r="1.18"/><circle class="cls-3" cx="1166.28" cy="202.11" r="2.19"/><circle class="cls-3" cx="1173.3" cy="167.49" r="2.19"/><circle class="cls-3" cx="1145.22" cy="180.9" r="0.76"/><circle class="cls-3" cx="1158.71" cy="178.2" r="0.76"/><circle class="cls-3" cx="1192.34" cy="179.07" r="0.76"/><circle class="cls-3" cx="1141" cy="168.92" r="0.76"/><circle class="cls-3" cx="1156.52" cy="165.89" r="0.76"/><circle class="cls-3" cx="1138.48" cy="234.13" r="2.19"/><circle class="cls-3" cx="1107.75" cy="212.16" r="2.19"/><circle class="cls-3" cx="1043.32" cy="200.69" r="2.19"/><circle class="cls-3" cx="1170.56" cy="247.37" r="0.76"/><circle class="cls-3" cx="1145.48" cy="212.13" r="0.76"/><circle class="cls-3" cx="1263.38" cy="310.38" r="1.07"/><circle class="cls-3" cx="1266.96" cy="337.14" r="1.74"/><circle class="cls-3" cx="1295.22" cy="325.92" r="0.76"/><circle class="cls-3" cx="1308.71" cy="328.62" r="0.76"/><circle class="cls-3" cx="1291" cy="337.9" r="0.76"/><circle class="cls-3" cx="1306.52" cy="340.93" r="0.76"/><circle class="cls-3" cx="1288.48" cy="272.69" r="2.19"/><circle class="cls-3" cx="1257.75" cy="294.66" r="2.19"/><circle class="cls-3" cx="1295.48" cy="294.68" r="0.76"/><circle class="cls-3" cx="1197.25" cy="321.81" r="0.95"/><circle class="cls-3" cx="1261.04" cy="256.9" r="1.74"/><circle class="cls-3" cx="1210.9" cy="254.26" r="0.77"/><circle class="cls-3" cx="1197.27" cy="277.99" r="0.77"/><circle class="cls-3" cx="1252.11" cy="293.7" r="1.74"/><circle class="cls-3" cx="1213.37" cy="297.66" r="1.74"/><circle class="cls-3" cx="1233.37" cy="246.95" r="0.6"/><circle class="cls-3" cx="1233.94" cy="267.71" r="0.6"/></g><g id="moon"><path class="cls-4" d="M977.92,755.37c-1-2.82-2-5.63-3-8.42h0a312.24,312.24,0,0,0-26.13-53.32l-.33-.53A315,315,0,0,0,789.64,563a23.93,23.93,0,0,1,8.93,8.63,24,24,0,0,0-37.14,29.7A24,24,0,0,1,778,560a22.94,22.94,0,0,1,4.17.37A310.68,310.68,0,0,0,732.8,548l-.09,0A315.88,315.88,0,0,0,681,543.71c-1.44,0-2.87,0-4.3,0s-2.85,0-4.27.09l-1.75,0c-1.15,0-2.29.08-3.42.13-3,.13-6.06.3-9.07.52-1.33.09-2.65.2-4,.31l-2.65.24-1.07.1-2.3.23c-2.66.27-5.3.58-7.94.93q-1.1.13-2.19.3h0l-2.58.36c-1.49.21-3,.44-4.45.68s-3,.48-4.43.74l-3.54.64-.47.09c-1.43.27-2.85.55-4.27.84l-1.23.25c-1,.21-2.08.43-3.11.66l-2.16.48c-.72.15-1.44.32-2.15.49L609,552a314.21,314.21,0,0,0-182,121l-.11.16a313.7,313.7,0,0,0-38.23,69.58l-.54,1.39q-4.41,11.37-8,23.17H981.78Q980,761.28,977.92,755.37ZM503,631a16,16,0,0,1,16,15.39A16,16,0,0,0,488,652c0,.21,0,.41,0,.61A16,16,0,0,1,503,631Zm26.46,113.46A23.74,23.74,0,0,0,531,736a24,24,0,0,0-41.46-16.46,24,24,0,1,1,39.92,24.92ZM582,688a37,37,0,0,1-37-37,35.79,35.79,0,0,1,.34-5,37,37,0,0,0,73.32,0,35.79,35.79,0,0,1,.34,5A37,37,0,0,1,582,688Zm146-25a12,12,0,0,1-2.28-23.78A12,12,0,0,0,731,662a11.45,11.45,0,0,0,2.28-.22A12,12,0,0,1,728,663Zm86.3,39.24a16,16,0,0,0-19.6-24.48,16,16,0,1,1,19.6,24.48ZM844.87,753a8.5,8.5,0,0,0-16.73,0,8.29,8.29,0,0,1-.14-1.5,8.5,8.5,0,0,1,17,0A9.29,9.29,0,0,1,844.87,753ZM882,684a23.94,23.94,0,0,1-19.28-9.72,24,24,0,0,0,33.56-33.56A24,24,0,0,1,882,684Z"/><path class="cls-5" d="M733,554a62,62,0,0,1-124,0c0-.67,0-1.34,0-2l.59-.13A316.71,316.71,0,0,1,732.71,548c0,.18,0,.35,0,.53Q733,551.21,733,554Z"/><path class="cls-6" d="M732.76,548.48a62,62,0,0,1-123.13,3.39A316.71,316.71,0,0,1,732.71,548C732.73,548.13,732.74,548.3,732.76,548.48Z"/><path class="cls-5" d="M455,711.5a40.51,40.51,0,0,1-61.3,34.76,39.64,39.64,0,0,1-5-3.53A313.7,313.7,0,0,1,427,673.15l.11-.16A40.51,40.51,0,0,1,455,711.5Z"/><path class="cls-5" d="M718,747c0,1.62-.08,3.23-.23,4.81a50.7,50.7,0,0,1-4,15.48H620.2a50.7,50.7,0,0,1-4-15.48c-.15-1.58-.23-3.19-.23-4.81a51,51,0,0,1,102,0Z"/><path class="cls-6" d="M718,756.71a51.25,51.25,0,0,1-1.1,10.58H617.1a51.25,51.25,0,0,1-1.1-10.58c0-1.65.08-3.29.23-4.9a51,51,0,0,1,101.54,0C717.92,753.42,718,755.06,718,756.71Z"/><path class="cls-5" d="M619,641a35.79,35.79,0,0,1-.34,5,37,37,0,0,1-73.32,0,35.79,35.79,0,0,1-.34-5,37,37,0,0,1,74,0Z"/><path class="cls-4" d="M619,651a37,37,0,0,1-74,0,35.79,35.79,0,0,1,.34-5,37,37,0,0,0,73.32,0A35.79,35.79,0,0,1,619,651Z"/><ellipse class="cls-6" cx="582" cy="646" rx="36.66" ry="32"/><path class="cls-5" d="M743,650a12,12,0,0,1-9.72,11.78A11.45,11.45,0,0,1,731,662a12,12,0,1,1,12-12Z"/><path class="cls-4" d="M733.28,661.78a12,12,0,1,1-7.56-22.56A12,12,0,0,0,731,662,11.45,11.45,0,0,0,733.28,661.78Z"/><path class="cls-6" d="M740,651a12,12,0,0,1-6.72,10.78A11.45,11.45,0,0,1,731,662a12,12,0,0,1-5.28-22.78A11.45,11.45,0,0,1,728,639,12,12,0,0,1,740,651Z"/><path class="cls-5" d="M845,754.5a8.5,8.5,0,0,1-17,0,8.29,8.29,0,0,1,.14-1.5,8.5,8.5,0,0,1,16.73,0A9.29,9.29,0,0,1,845,754.5Z"/><path class="cls-4" d="M845,751.5a9.29,9.29,0,0,1-.13,1.5,8.5,8.5,0,0,0-16.73,0,8.29,8.29,0,0,1-.14-1.5,8.5,8.5,0,0,1,17,0Z"/><path class="cls-6" d="M844.87,753a8.5,8.5,0,1,1-8.37-7A8.51,8.51,0,0,1,844.87,753Z"/><path class="cls-5" d="M974.89,746.94h0a37,37,0,0,1-28.39,19.77,35.19,35.19,0,0,1-4.5.28,37,37,0,0,1,0-74,34.72,34.72,0,0,1,4.47.28c.77.08,1.53.2,2.29.34A312.24,312.24,0,0,1,974.89,746.94Z"/><path class="cls-6" d="M977.92,755.37A36.86,36.86,0,0,1,951,767a35.19,35.19,0,0,1-4.5-.28,37,37,0,0,1,0-73.44c.65-.08,1.3-.15,2-.19l.33.53a312.24,312.24,0,0,1,26.13,53.32h0C975.94,749.74,977,752.55,977.92,755.37Z"/><path class="cls-5" d="M531,736a23.74,23.74,0,0,1-1.54,8.46A24,24,0,1,1,531,736Z"/><path class="cls-4" d="M529.46,744.46A23.74,23.74,0,0,0,531,736a24,24,0,0,0-41.46-16.46,24,24,0,1,1,39.92,24.92Z"/><path class="cls-6" d="M531,736a23.74,23.74,0,0,1-1.54,8.46,24,24,0,0,1-39.92-24.92A24,24,0,0,1,531,736Z"/><path class="cls-5" d="M901,655a24,24,0,1,1-4.72-14.28A24,24,0,0,1,901,655Z"/><path class="cls-4" d="M906,660a24,24,0,0,1-43.28,14.28,24,24,0,0,0,33.56-33.56A23.94,23.94,0,0,1,906,660Z"/><path class="cls-6" d="M901,655a16.73,16.73,0,1,1-4.72-14.28A24,24,0,0,1,901,655Z"/><path class="cls-5" d="M806,589a24,24,0,1,1-7.43-17.35A24,24,0,0,1,806,589Z"/><path class="cls-4" d="M798.57,571.65a24,24,0,0,0-37.14,29.7A24,24,0,0,1,778,560a22.94,22.94,0,0,1,4.17.37s0,0,0,0c2.5.84,5,1.72,7.45,2.64A23.93,23.93,0,0,1,798.57,571.65Z"/><path class="cls-6" d="M789.64,563c-2.46-.92-4.95-1.8-7.45-2.64A23.31,23.31,0,0,1,789.64,563Z"/><path class="cls-6" d="M802,584a17.36,17.36,0,1,1-3.43-12.35A24,24,0,0,1,802,584Z"/><path class="cls-5" d="M520,652a16,16,0,0,1-32,.61c0-.2,0-.4,0-.61a16,16,0,1,1,32,0Z"/><path class="cls-5" d="M818,692a16,16,0,1,1-16-16A15.93,15.93,0,0,1,818,692Z"/><path class="cls-4" d="M823,688a16,16,0,0,1-8.7,14.24,16,16,0,0,0-19.6-24.48A16,16,0,0,1,823,688Z"/><path class="cls-6" d="M818,692a16,16,0,1,1-16-16A15.93,15.93,0,0,1,818,692Z"/><path class="cls-6" d="M446,707.5a40.47,40.47,0,0,1-57.82,36.62l.54-1.39A313.7,313.7,0,0,1,427,673.15,40.45,40.45,0,0,1,446,707.5Z"/><path class="cls-4" d="M519,646.39A16,16,0,0,0,488,652c0,.21,0,.41,0,.61a16,16,0,1,1,31-6.22Z"/><path class="cls-6" d="M519,647a16,16,0,0,1-31,5.61c0-.2,0-.4,0-.61a16,16,0,0,1,31-5.61C519,646.59,519,646.79,519,647Z"/><path class="cls-7" d="M983.39,768H378.61C418,638.35,538.48,544,681,544S944,638.35,983.39,768Z"/></g><g id="Flag"><g id="Pole"><path class="cls-8" d="M633.57,575.91,598.45,442.1a1.89,1.89,0,0,1-1.24.37,2.57,2.57,0,0,1-.4-.06l35.1,133.76Z"/><path class="cls-8" d="M598.45,442.1a1.27,1.27,0,0,0,.52-.92,1.74,1.74,0,0,0-3.39-.15,1.46,1.46,0,0,0,1.23,1.38,2.57,2.57,0,0,0,.4.06A1.89,1.89,0,0,0,598.45,442.1Z"/></g><path class="cls-9" d="M650,479.64a19.3,19.3,0,0,1-6,1.89,19.78,19.78,0,0,1-5.74-.06l-7.83-31.84a26.27,26.27,0,0,0,5.66-.13,27.25,27.25,0,0,0,4.9-1.13,126.91,126.91,0,0,0,3.39,15.45A128.86,128.86,0,0,0,650,479.64Z"/><path class="cls-3" d="M642.83,480.53a106.9,106.9,0,0,0-36.28.35l-7.8-35.62a78.22,78.22,0,0,1,35.63-.68,73.37,73.37,0,0,1,6,15.75A77.19,77.19,0,0,1,642.83,480.53Z"/><polyline class="cls-10" points="642.84 480.39 637.94 481.53 637.5 479.81"/><circle class="cls-11" cx="624.47" cy="461.61" r="13.62"/><path d="M616.7,454.32a9.45,9.45,0,0,0,.53,4.21,4,4,0,0,0,.9,1.28l.1.18,1.91-10.62h0a7.44,7.44,0,0,0-2.1,1.83S617,451.66,616.7,454.32Z"/><polygon points="627.33 450.46 629.4 457.93 629.86 453.12 628.14 450.61 627.33 450.46"/><polygon class="cls-12" points="628.64 460.89 629.95 469.1 621.27 470.48 620.48 465.35 619.92 462.19 628.64 460.89"/><path class="cls-13" d="M619.92,462.18l.4,1.81c.35.22.86.54,1.48.91,1.86,1.09,2.8,1.64,3.45,1.55,1-.13,1.61-.95,2.35-1.86,0,0,.19-.23,1.32-2h0l-.28-1.73"/><path class="cls-12" d="M628.16,451.58a5.94,5.94,0,0,0-4.21-2.86,5.85,5.85,0,0,0-5.66,2.23,7.42,7.42,0,0,0-1.16,4.51,1,1,0,0,0,0,.17,9.7,9.7,0,0,0,.41,3.1,20.88,20.88,0,0,0,1.27,2.24,5.11,5.11,0,0,0,.39.5l.71.71.39.39.08.07a7.14,7.14,0,0,0,2.14,1.27,5.36,5.36,0,0,0,1.34.32,3.84,3.84,0,0,0,4-1.83l1.1-2.23s.3-1.41.39-2.21a2.94,2.94,0,0,0,0-.68s0-1.24-.12-2.28A12.22,12.22,0,0,0,628.16,451.58Z"/><path class="cls-14" d="M627.73,448.38s-3.49-4.28-8.26-2.26-4.47,8.06-4.47,8.06a1.7,1.7,0,0,0,.13,2.1,8.63,8.63,0,0,0,1.22,2.65,6.06,6.06,0,0,0,1.51,1.53l.25.16a3.57,3.57,0,0,0,.67.32,8.22,8.22,0,0,1-.55-.95l-.1-.18a4,4,0,0,1-.9-1.28,9.45,9.45,0,0,1-.53-4.21c.34-2.66,1.33-3.12,1.33-3.12a7.44,7.44,0,0,1,2.1-1.83,5.67,5.67,0,0,1,2.38-.77,7.19,7.19,0,0,1,5,2c.49-.06,1.64,2.17,1.64,2.17.46.15.27,5.13.27,5.13,1.32-1.06.67-4.36.67-4.36C630.26,450.93,627.73,448.38,627.73,448.38Z"/><path class="cls-15" d="M618.19,449.57a5.45,5.45,0,0,1,3.2-2.16,5.73,5.73,0,0,1,4.13.74,6.58,6.58,0,0,0-4-.55A6.79,6.79,0,0,0,618.19,449.57Z"/><path id="Frame" d="M616.89,454.45l1.23-.1s3.33-1.65,5-.54l1.11-.17a4.64,4.64,0,0,1,4-1s.69.07.81.07.14,0,.13.29,0,.51-.18.67a1.3,1.3,0,0,0-.12.47,4.47,4.47,0,0,1-.41,1.28,2.29,2.29,0,0,1-1.45.89,2.16,2.16,0,0,1-1.63-.26,3,3,0,0,1-.89-1.34.49.49,0,0,0-.61-.42c-.57.07-.51.9-.51.9a2.25,2.25,0,0,1-2.9,2s-1.05-.22-1.33-1c0,0-.38-.88-.64-1l-.23-.2H617Z"/><path id="Lens" class="cls-12" d="M619.27,454.46s-.49.34-.1,1.35a1.67,1.67,0,0,0,1.08,1.14s1.61.36,2.31-.64.47-1.58.47-1.58a1,1,0,0,0-1-1A3.29,3.29,0,0,0,619.27,454.46Z"/><path id="Lens-2" data-name="Lens" class="cls-12" d="M625,453.63s-.42.14-.1,1.34a1.76,1.76,0,0,0,1.58,1.25,2.52,2.52,0,0,0,1.69-.75,2.56,2.56,0,0,0,.41-1.45,1.17,1.17,0,0,0-1.1-1.12C626.37,452.74,625.06,453.29,625,453.63Z"/><path class="cls-12" d="M618,459.5c-.41.47-.59.3-.59.3-.5-.56,0-1.32,0-1.32Z"/><path class="cls-12" d="M629.42,456.45s.8.95,0,1"/><circle cx="617.64" cy="459.47" r="0.17"/><circle cx="629.57" cy="457.22" r="0.12"/><path class="cls-16" d="M619,461.15c-.29-.11-.69.17-1,.45a8.05,8.05,0,0,0-1.81,2.41,7.5,7.5,0,0,0,0,1.63s-.84,1.81-.15,2.14a9.75,9.75,0,0,0,2.62.37l1.21.52s1,2.11,2.91,2,1.49-.24,1.49-.24a5.11,5.11,0,0,0,.95-.06,6.29,6.29,0,0,0,1.46-.06,7.9,7.9,0,0,1,1.87.23,7.28,7.28,0,0,0,.78-.51,6,6,0,0,0,1-1.07l.76-.83.92-.46c2.23-1.11,3-1.45,3.61-2.31a1.34,1.34,0,0,0,.31-1,1.41,1.41,0,0,0-.71-.9,6.28,6.28,0,0,0-1.07-1.6,7.41,7.41,0,0,0-5-2.23l-.48,1.29.37,1.68a1.31,1.31,0,0,1,0,1.87,27,27,0,0,0-.57,3.34l-2.35,1.92a7.38,7.38,0,0,0-4-2l-1.69-2.34-.56-3.17a5.83,5.83,0,0,1-.57-.6C619.14,461.31,619.09,461.2,619,461.15Z"/><path class="cls-17" d="M619,462.59l-.82.47a1.84,1.84,0,0,0-.51.57,2.06,2.06,0,0,0-.26.78,2.26,2.26,0,0,0,.23.61,2,2,0,0,0,.46.54,3.44,3.44,0,0,0,.58.53,3.39,3.39,0,0,0,.78.42l2.67,1.18-1.69-2.34-.45-2.8-.11-.37Z"/><path class="cls-18" d="M628.64,460.89a7,7,0,0,1,1.55.5,3.52,3.52,0,0,1,2.06,1.72,1.71,1.71,0,0,1,.1,1,1.64,1.64,0,0,1-.46.86c-.28.31-.59.64-.94,1a16.14,16.14,0,0,1-2.47,1.89c0-.45.08-.81.12-1,.13-.81.27-1.12.33-1.89,0-.35,0-.65,0-.65,0-.37,0-.68,0-.88,0-.39,0-.47,0-.69s0-.21,0-.24-.08-.43-.19-1.13C628.69,461.17,628.67,461,628.64,460.89Z"/><path class="cls-18" d="M619.92,462.18s0,0-.19.22l-.33.52a2.08,2.08,0,0,0-.23.38,1.5,1.5,0,0,0-.08.27,1.56,1.56,0,0,0,.11.28,1.48,1.48,0,0,0,.31.41c.2.21.53.57,1,1.09-.08-.47-.14-.86-.18-1.12s-.1-.74-.16-1.1C620.05,462.48,620,462.2,619.92,462.18Z"/><path class="cls-19" d="M628.5,469.14v-.05s0,0,0-.07a.05.05,0,0,1,0,0,.14.14,0,0,1,.08,0l.13,0a.76.76,0,0,1,.2,0,.33.33,0,0,1,.13,0l0,.09a.2.2,0,0,1,0,.12.37.37,0,0,1-.05.11l-.06.3.08.66.12.88.08.88.11,1.18,0,.43.07.35.14,1.38.17,1.52.06.34-.09.22-.1.06,0,.71-.16,0-.13,0-.07-.69-.09-.05,0-.52,0-.52,0-1.43-.18-1.22-.1-.88,0-1.13-.23-1.85Z"/><path class="cls-17" d="M630,460.57a5.17,5.17,0,0,1,2.2.93l.27.23.72.62a2.38,2.38,0,0,1,.59.62,1.9,1.9,0,0,1,.27.88l0,.6a1.92,1.92,0,0,1-.27.64,2.86,2.86,0,0,1-1.13.81c-.67.37-.37.25-1.11.66s-1.58.81-1.91,1a24.15,24.15,0,0,0-2.81,1.55l.57-.46.6-.48.44-.36c.89-.73,1.76-1.34,2.63-2.14a13.89,13.89,0,0,0,1.06-1.08,1.63,1.63,0,0,0-.08-1.72,4.11,4.11,0,0,0-1.62-1.27c-.31-.17-.47-.26-.7-.36-.58-.23-1.06-.12-1.13-.32a.3.3,0,0,1,.1-.26C628.81,460.55,629,460.37,630,460.57Z"/><path class="cls-19" d="M622.92,468.49v0a.2.2,0,0,1,0-.07l0,0h-.23a.51.51,0,0,0-.19,0,.26.26,0,0,0-.11.07l0,.09a.26.26,0,0,0,0,.1.15.15,0,0,0,.08.08l.15.25.12.6.15.79.18.79.25,1.05.16.37,0,.31.28,1.25.28,1.36.05.31.16.17.11,0,.18.62h.16l.12-.06-.14-.61.08-.08-.11-.46-.11-.47-.39-1.25-.19-1.11-.17-.78-.29-1-.33-1.67Z"/></g><g id="Astronaut"><path class="cls-20" d="M687.78,499.3a14.31,14.31,0,1,1-16.61-14.12l.14,0a14,14,0,0,1,2.16-.16,14.55,14.55,0,0,1,1.75.1l.27,0A14.31,14.31,0,0,1,687.78,499.3Z"/><rect class="cls-21" x="658.05" y="493.93" width="3.07" height="6.84" rx="1.54"/><rect class="cls-22" x="657.63" y="493.93" width="3.07" height="6.84" rx="1.54"/><rect class="cls-21" x="685.82" y="493.93" width="3.07" height="6.84" rx="1.54"/><rect class="cls-23" x="686.24" y="493.93" width="3.07" height="6.84" rx="1.54"/><path class="cls-21" d="M675.49,485.7v2.92a2.09,2.09,0,1,1-4.18,0v-2.9a14,14,0,0,1,2.16-.17,14.55,14.55,0,0,1,1.75.11Z"/><path class="cls-22" d="M675.49,485.14v2.93a2.09,2.09,0,1,1-4.18,0v-2.91a14,14,0,0,1,2.16-.16,14.55,14.55,0,0,1,1.75.1Z"/><rect class="cls-24" x="673.26" y="478.57" width="0.28" height="7.12"/><circle class="cls-24" cx="673.4" cy="478.57" r="0.42"/><rect class="cls-20" x="656.93" y="509.14" width="32.8" height="48.58" rx="16.4"/><path class="cls-20" d="M659.16,511q-.06,4.45-.14,8.93a18.78,18.78,0,0,0-2.79,2.93c-1.45,1.92-2.28,3.84-3.21,7.56,0,.06,0,.12,0,.18-.07.25-.13.51-.19.78,0,.06,0,.11,0,.17-.34,1.48-.71,3.2-1.12,5.27-.47,2.33-1,5-1.54,8l-3.91-.14a45,45,0,0,1-.14-11.73c.11-.91.22-1.84.36-2.8l0-.2.12-.77,0-.21a24.35,24.35,0,0,1,4.77-11.65A23,23,0,0,1,659.16,511Z"/><rect class="cls-25" x="645.9" y="543.23" width="4.59" height="7.64" rx="2.29"/><rect class="cls-22" x="649.55" y="543.42" width="1.22" height="4.68" rx="0.61" transform="translate(-191.53 655.93) rotate(-47.47)"/><rect class="cls-22" x="645.9" y="543.79" width="4.59" height="7.64" rx="2.29"/><path class="cls-26" d="M653,530.56c-.08.31-.16.62-.23,1l-6.35-1.44c.05-.32.09-.64.15-1Z"/><path class="cls-27" d="M653,530.38c0,.06,0,.12,0,.18-.07.25-.13.51-.19.78l-6.36-1.47.12-.77,0-.21Z"/><path class="cls-20" d="M687.46,511c0,3,.09,5.95.14,8.93a17.89,17.89,0,0,1,2.79,2.93c1.46,1.92,2.29,3.84,3.21,7.56,0,.06,0,.12,0,.18q.09.38.18.78l0,.17c.34,1.48.7,3.2,1.12,5.27.47,2.33,1,5,1.53,8l3.91-.14a44.58,44.58,0,0,0,.14-11.73c-.11-.91-.22-1.84-.36-2.8l0-.2c0-.25-.07-.51-.11-.77a1.55,1.55,0,0,0,0-.21,24.33,24.33,0,0,0-4.76-11.65A23,23,0,0,0,687.46,511Z"/><rect class="cls-25" x="696.41" y="543.23" width="4.59" height="7.64" rx="2.29" transform="translate(1397.41 1094.11) rotate(-180)"/><rect class="cls-22" x="696.41" y="543.79" width="4.59" height="7.64" rx="2.29" transform="translate(1397.41 1095.23) rotate(180)"/><rect class="cls-22" x="696.13" y="543.42" width="1.22" height="4.68" rx="0.61" transform="translate(765.57 1428.14) rotate(-132.53)"/><path class="cls-26" d="M693.65,530.7c.07.31.15.62.23.95l6.34-1.44c0-.32-.09-.64-.14-1Z"/><path class="cls-27" d="M693.6,530.52c0,.06,0,.12,0,.18q.09.38.18.78l6.36-1.47c0-.25-.07-.51-.11-.77a1.55,1.55,0,0,0,0-.21Z"/><rect class="cls-22" x="661.61" y="587.79" width="8.19" height="3.77" rx="1.88"/><path class="cls-20" d="M673.33,551.08c-.25,2.12-.49,4.23-.73,6.35,0,.37-.09.75-.13,1.12l-1.62,14.17c0,.14,0,.28,0,.42s-.07.55-.1.83,0,.28-.05.42q-.82,7.26-1.66,14.52h-6.48l-1-14.52,0-.42c0-.28,0-.55,0-.83l0-.42q-.63-9.6-1.27-19.19c0-.4,0-.81-.08-1.21s-.05-.82-.08-1.24Z"/><path class="cls-26" d="M672.6,557.71c0,.37-.09.75-.13,1.12l-12.29-5c0-.4,0-.81-.08-1.21Z"/><path class="cls-27" d="M672.6,557.43c0,.37-.09.75-.13,1.12l-12.29-5c0-.4,0-.81-.08-1.21Z"/><path class="cls-26" d="M670.81,573.14c0,.28-.07.55-.1.83s0,.28-.05.42h-9.1l0-.42c0-.28,0-.55,0-.83Z"/><path class="cls-27" d="M670.85,572.72c0,.14,0,.28,0,.42s-.07.55-.1.83h-9.18c0-.28,0-.55,0-.83l0-.42Z"/><rect class="cls-22" x="676.74" y="587.79" width="8.19" height="3.77" rx="1.88"/><path class="cls-20" d="M673.33,551.08l.72,6.35c0,.37.09.75.13,1.12l1.62,14.17c0,.14,0,.28.05.42l.09.83c0,.14,0,.28,0,.42q.82,7.26,1.66,14.52h6.48l1-14.52,0-.42.06-.83,0-.42q.64-9.6,1.27-19.19c0-.4.06-.81.08-1.21s.06-.82.08-1.24Z"/><path class="cls-26" d="M674.05,557.71c0,.37.09.75.13,1.12l12.29-5c0-.4.06-.81.08-1.21Z"/><path class="cls-27" d="M674.05,557.43c0,.37.09.75.13,1.12l12.29-5c0-.4.06-.81.08-1.21Z"/><path class="cls-26" d="M675.85,573.14l.09.83c0,.14,0,.28,0,.42h9.1l0-.42.06-.83Z"/><path class="cls-27" d="M675.8,572.72c0,.14,0,.28.05.42l.09.83h9.18l.06-.83,0-.42Z"/><path class="cls-22" d="M692.66,509.58v29.83c0,.15,0,.3,0,.44a10.61,10.61,0,0,1-.24,2,11.47,11.47,0,0,1-11.21,9.07H665.46a11.47,11.47,0,0,1-11.21-9.07,10.61,10.61,0,0,1-.24-2c0-.14,0-.29,0-.44V509.58c0-.38,0-.76,0-1.13a11.47,11.47,0,0,1,11.41-10.33H681.2a11.47,11.47,0,0,1,11.41,10.33A10.56,10.56,0,0,1,692.66,509.58Z"/><path class="cls-28" d="M654.16,510h.05a1.44,1.44,0,0,1,.94.52c.31.46-.2,1.34-.31,1.52-.72,1.26-1.39,3.56-2.74,8.15a17,17,0,0,0-.83,5.55c.07,1.5.52,5,4.11,9a6,6,0,0,0,.83.54c.72.39,1,.35,1.22.61a1.65,1.65,0,0,1,.23,1.9,1.86,1.86,0,0,1-2.59.38c-1.79-1.51-6.67-6-6.92-12.41a22.26,22.26,0,0,1,1.14-7.07,30.25,30.25,0,0,1,3.35-7.54C652.93,510.73,653.62,509.92,654.16,510Z"/><path class="cls-29" d="M692.65,539.85a10.61,10.61,0,0,1-.24,2H654.25a10.61,10.61,0,0,1-.24-2Z"/><path class="cls-29" d="M692.61,508.45H654.05a11.5,11.5,0,0,1,.37-2h37.82A11.5,11.5,0,0,1,692.61,508.45Z"/></g></svg>