<svg xmlns="http://www.w3.org/2000/svg" viewBox="0 0 1366 768"><defs><style>.cls-1{fill:#f2de77;}.cls-2{fill:#c4c6c6;}.cls-3{fill:#ecf0f1;}</style></defs><title>Artboard 1</title><g id="Layer_1" data-name="Layer 1"><circle class="cls-1" cx="683" cy="402" r="219"/><path class="cls-2" d="M908.85,501.06,792.7,384.91a35.19,35.19,0,0,0-49.76,0l-42.8,42.79a35.2,35.2,0,0,0,0,49.77L816.29,593.62a35.21,35.21,0,0,0,49.76,0l42.8-42.8A35.17,35.17,0,0,0,908.85,501.06ZM854.78,570.2a10.16,10.16,0,0,1-14.37,0L722.16,452a10.18,10.18,0,0,1,14.39-14.39L854.78,555.82A10.17,10.17,0,0,1,854.78,570.2Zm33.5-32.3a10.17,10.17,0,0,1-14.38,0L755.66,419.67a10.18,10.18,0,0,1,14.39-14.39L888.28,523.53A10.16,10.16,0,0,1,888.28,537.9Z"/><path class="cls-2" d="M731.88,418c-6.54,6.54-16.79,6.89-22.89.8L441.07,150.86a95.48,95.48,0,0,1-4.34-11.27,98.7,98.7,0,0,1-4.08-20.24,84.59,84.59,0,0,1,20.83,3.49,81.42,81.42,0,0,1,11.27,4.34L732.68,395.1C738.77,401.2,738.42,411.45,731.88,418Z"/><rect class="cls-3" x="597.96" y="139.65" width="80.51" height="492.4" transform="translate(459.77 -338.28) rotate(45)"/><path class="cls-3" d="M919,202c0,52.47-43.52,95-97.2,95s-97.21-42.53-97.21-95,43.52-95,97.21-95a98.94,98.94,0,0,1,31.67,5.17l-64.49,63,60.72,59.34L914,171.73A92.91,92.91,0,0,1,919,202Z"/></g></svg>