<svg xmlns="http://www.w3.org/2000/svg" viewBox="0 0 1366 768"><defs><style>.cls-1{fill:#bfbfbf;}.cls-2{fill:#ecf0f1;}.cls-3{fill:#d9d9d9;}.cls-4{fill:#e74c3c;}.cls-5{fill:#fff;}.cls-6{fill:#de5b49;}.cls-7{fill:#f0ca4d;}.cls-8{fill:#46b39d;}.cls-9{fill:#2c3e50;}.cls-10{fill:#00c5a2;}</style></defs><title>Artboard 1</title><g id="Background"><rect class="cls-1" width="1366" height="768"/></g><g id="Graph"><rect class="cls-2" y="62" width="1366" height="702"/><rect class="cls-2" y="70.91" width="1366" height="697.09"/><rect class="cls-3" x="99.39" y="122.76" width="13.21" height="594.06"/><rect class="cls-3" x="627.44" y="75.86" width="12.04" height="1170.86" transform="translate(1294.76 27.83) rotate(90)"/><path class="cls-4" d="M441,170,153.55,624.6l9.79,5L447,176Z"/><path class="cls-4" d="M435,181,731.7,423.64l8.07-8.14L441.11,169.88Q438.05,175.43,435,181Z"/><polygon class="cls-4" points="1264.69 138.5 725.33 413.87 731.14 423.22 1270.5 147.85 1264.69 138.5"/><rect class="cls-5" width="1366" height="62"/><circle class="cls-6" cx="55" cy="31" r="16"/><circle class="cls-7" cx="104.86" cy="31" r="16"/><circle class="cls-8" cx="153.98" cy="31" r="16"/></g><g id="Terminal"><rect class="cls-5" x="629" y="312" width="737" height="456"/><circle class="cls-6" cx="654" cy="336" r="11"/><circle class="cls-7" cx="688.28" cy="336" r="11"/><circle class="cls-8" cx="722.05" cy="336" r="11"/><rect class="cls-9" x="628.47" y="359" width="737.53" height="409"/><rect class="cls-10" x="648" y="380" width="253" height="20" rx="10"/><rect class="cls-10" x="922" y="380" width="96" height="20" rx="10"/><rect class="cls-9" x="628.47" y="405" width="737.53" height="363"/><rect class="cls-10" x="648" y="426" width="79" height="20" rx="10"/><rect class="cls-10" x="743" y="426" width="179" height="20" rx="10"/><rect class="cls-10" x="648" y="520" width="45" height="20" rx="10"/><rect class="cls-10" x="709" y="520" width="115" height="20" rx="10"/><rect class="cls-10" x="931" y="426" width="20" height="20" rx="10" transform="translate(1882 872) rotate(180)"/><rect class="cls-10" x="1193" y="380" width="48" height="20" rx="10"/><rect class="cls-10" x="1082" y="472" width="48" height="20" rx="10"/><rect class="cls-10" x="1037" y="380" width="138" height="20" rx="10"/><rect class="cls-10" x="648" y="568" width="96" height="20" rx="10"/><rect class="cls-10" x="763" y="568" width="138" height="20" rx="10"/><rect class="cls-10" x="648" y="472" width="181" height="20" rx="10"/><rect class="cls-10" x="848" y="472" width="212" height="20" rx="10"/><rect class="cls-10" x="647" y="617" width="253" height="20" rx="10"/><rect class="cls-10" x="921" y="617" width="96" height="20" rx="10"/></g></svg>