<svg id="Layer_1" data-name="Layer 1" xmlns="http://www.w3.org/2000/svg" viewBox="0 0 456.59 456.59"><defs><style>.cls-1{fill:#f2cb57;}.cls-2{fill:#fff;}</style></defs><title>database</title><circle class="cls-1" cx="228.29" cy="228.29" r="228.29"/><path class="cls-2" d="M461.75,131.27c0-33.53-59.7-59.8-135.91-59.8s-135.91,26.27-135.91,59.8a28.35,28.35,0,0,0,.54,5.44h-.54v212c0,33.53,59.69,59.8,135.91,59.8s135.91-26.27,135.91-59.8v-212h-.55A28.36,28.36,0,0,0,461.75,131.27ZM450.87,348.73c0,23.62-50.24,48.92-125,48.92s-125-25.3-125-48.92V318.2c20.55,21.35,68.19,36,125,36s104.48-14.61,125-36Zm0-54.37c0,23.63-50.24,48.93-125,48.93s-125-25.3-125-48.93V263.84c20.55,21.34,68.19,36,125,36s104.48-14.62,125-36Zm0-54.36c0,23.63-50.24,48.93-125,48.93s-125-25.3-125-48.93V209.47c20.55,21.35,68.19,36,125,36s104.48-14.62,125-36Zm0-54.36c0,23.62-50.24,48.92-125,48.92s-125-25.3-125-48.92V155.11c20.55,21.34,68.19,36,125,36s104.48-14.62,125-36Zm-125-5.44c-74.8,0-125-25.3-125-48.93s50.24-48.93,125-48.93,125,25.31,125,48.93S400.63,180.2,325.84,180.2Z" transform="translate(-91.71 -11.71)"/></svg>