<svg id="Layer_1" data-name="Layer 1" xmlns="http://www.w3.org/2000/svg" viewBox="0 0 1366 768"><defs><style>.cls-1{fill:#ecf0f1;}.cls-2{fill:#de5b49;}.cls-3{fill:#f0ca4d;}.cls-4{fill:#46b39d;}.cls-5{fill:#c1d1d2;}.cls-6{fill:#bfc1c1;}.cls-7{fill:#2980b9;}</style></defs><title>Artboard 1</title><rect class="cls-1" y="66" width="1366" height="702"/><circle class="cls-2" cx="55" cy="35" r="16"/><circle class="cls-3" cx="104.86" cy="35" r="16"/><circle class="cls-4" cx="153.98" cy="35" r="16"/><rect class="cls-5" x="683" y="93" width="656" height="561"/><rect class="cls-5" x="39" y="93" width="399.13" height="23" rx="11.5"/><rect class="cls-6" x="39" y="131" width="609" height="34"/><rect class="cls-5" x="39" y="217" width="399.13" height="23" rx="11.5"/><rect class="cls-6" x="39" y="255" width="609" height="34"/><rect class="cls-5" x="39" y="348" width="399.13" height="23" rx="11.5"/><rect class="cls-6" x="39" y="386" width="609" height="34"/><rect class="cls-5" x="39" y="465" width="399.13" height="23" rx="11.5"/><rect class="cls-6" x="39" y="503" width="609" height="34"/><rect class="cls-5" x="39" y="582" width="399.13" height="23" rx="11.5"/><rect class="cls-6" x="39" y="620" width="609" height="34"/><rect class="cls-7" x="39" y="699" width="99" height="37" rx="18.5"/><rect class="cls-7" x="1240" y="699" width="99" height="37" rx="18.5"/></svg>