<svg id="Layer_1" data-name="Layer 1" xmlns="http://www.w3.org/2000/svg" viewBox="0 0 456.59 456.59"><defs><style>.cls-1{fill:#f2cb57;}.cls-2{fill:#bcbcbc;}.cls-3{fill:#fff;}.cls-4{fill:#ecf0f1;}.cls-5{fill:#de5b49;}.cls-6{fill:#f0ca4d;}.cls-7{fill:#46b39d;}.cls-8{fill:#026773;}.cls-9{fill:#03a696;}.cls-10{fill:#04bfad;}.cls-11{fill:#d1d1d1;}</style></defs><title>frontend</title><circle class="cls-1" cx="228.29" cy="228.29" r="228.29"/><rect class="cls-2" x="74.3" y="129.9" width="325.25" height="232.41"/><rect class="cls-3" x="57.04" y="102.7" width="334.27" height="251.03"/><rect class="cls-4" x="57.04" y="121.32" width="334.27" height="232.41"/><ellipse class="cls-5" cx="66.37" cy="112.11" rx="3.75" ry="3.9"/><ellipse class="cls-6" cx="78.05" cy="112.11" rx="3.75" ry="3.9"/><ellipse class="cls-7" cx="89.56" cy="112.11" rx="3.75" ry="3.9"/><g id="symbol"><rect class="cls-8" x="66.37" y="129.9" width="194.7" height="112.51"/><rect class="cls-9" x="271.83" y="129.9" width="108.49" height="76.03"/><rect class="cls-10" x="271.83" y="215.01" width="108.49" height="127.19"/><rect class="cls-11" x="66.37" y="253.24" width="166.05" height="9.5"/><rect class="cls-11" x="66.37" y="269.11" width="76.66" height="9.5"/><rect class="cls-11" x="66.37" y="284.97" width="114.21" height="9.5"/><rect class="cls-11" x="66.37" y="300.84" width="62.36" height="9.5"/><rect class="cls-11" x="66.37" y="316.71" width="143.17" height="9.5"/><rect class="cls-11" x="66.37" y="332.58" width="104.73" height="9.5"/></g></svg>