<svg xmlns="http://www.w3.org/2000/svg" viewBox="0 0 456.59 456.59"><defs><style>.cls-1{fill:#f2cb57;}.cls-2{fill:#bcbcbc;}.cls-3{fill:#fff;}.cls-4{fill:#113a52;}.cls-5{fill:#de5b49;}.cls-6{fill:#f0ca4d;}.cls-7{fill:#46b39d;}.cls-8{fill:#00c3b6;}</style></defs><title>programming</title><g id="Layer_1" data-name="Layer 1"><circle class="cls-1" cx="228.29" cy="228.29" r="228.29"/></g><g id="Computer"><rect class="cls-2" x="79.3" y="121.9" width="325.25" height="232.41"/><rect class="cls-3" x="62.04" y="94.7" width="334.27" height="251.03"/><rect class="cls-4" x="62.04" y="113.32" width="334.27" height="232.41"/><ellipse class="cls-5" cx="72.38" cy="104.63" rx="3.75" ry="3.9"/><ellipse class="cls-6" cx="84.06" cy="104.63" rx="3.75" ry="3.9"/><ellipse class="cls-7" cx="95.57" cy="104.63" rx="3.75" ry="3.9"/><rect class="cls-8" x="68.63" y="121.9" width="40.75" height="13.35" rx="6.68"/><rect class="cls-8" x="188.93" y="121.9" width="68.23" height="13.35" rx="6.68"/><rect class="cls-8" x="117.21" y="121.9" width="63.22" height="13.35" rx="6.68"/><rect class="cls-8" x="68.63" y="144.25" width="23.19" height="13.35" rx="6.68"/><rect class="cls-8" x="99.32" y="144.25" width="44.25" height="13.35" rx="6.68"/><rect class="cls-8" x="68.63" y="166.6" width="48.58" height="13.35" rx="6.68"/><rect class="cls-8" x="124.53" y="166.6" width="78.52" height="13.35" rx="6.68"/><rect class="cls-8" x="68.63" y="211.3" width="74.94" height="13.35" rx="6.68"/><rect class="cls-8" x="174.97" y="211.3" width="48.08" height="13.35" rx="6.68"/><rect class="cls-8" x="129.39" y="233.65" width="75.19" height="13.35" rx="6.68"/><rect class="cls-8" x="151.46" y="211.3" width="13.35" height="13.35" rx="6.68"/><rect class="cls-8" x="68.63" y="233.65" width="52.81" height="13.35" rx="6.68"/><rect class="cls-8" x="68.63" y="256" width="26.94" height="13.35" rx="6.68"/><rect class="cls-8" x="161.5" y="256" width="87.98" height="13.35" rx="6.68"/><rect class="cls-8" x="103.74" y="256" width="47.72" height="13.35" rx="6.68"/><rect class="cls-8" x="68.63" y="323.05" width="40.75" height="13.35" rx="6.68"/><rect class="cls-8" x="117.21" y="323.05" width="13.35" height="13.35" rx="6.68"/><rect class="cls-8" x="138.11" y="323.05" width="46.27" height="13.35" rx="6.68"/><rect class="cls-8" x="234.03" y="323.05" width="81.82" height="13.35" rx="6.68"/><rect class="cls-8" x="195.65" y="323.05" width="29.53" height="13.35" rx="6.68"/></g></svg>