<svg id="Layer_1" data-name="Layer 1" xmlns="http://www.w3.org/2000/svg" viewBox="0 0 1920 1080"><defs><style>.cls-1{fill:#1df2a4;}.cls-2{fill:#fff;}</style></defs><title>Artboard 1</title><rect class="cls-1" x="-0.5" y="0.5" width="1920" height="1080"/><path class="cls-2" d="M1983.37-290.53c14.62,2.34-17.37,29.62-17.37,44.42s30,14.81,30,29.61-30,14.8-30,29.6,30,14.81,30,29.61-30,14.81-30,29.61,30,14.8,30,29.61-30,14.81-30,29.61,30,14.81,30,29.62S1966-24,1966-9.23s30,14.81,30,29.61-2.74,12.47-17.36,14.81C1887,49.81,1888.23,65,1795.46,65s-92.77-30-185.55-30-92.77,30-185.54,30-92.77-30-185.55-30-92.77,30-185.54,30S960.51,35,867.74,35,775,65,682.2,65,589.42,35,496.65,35,403.88,65,311.11,65,218.33,35,125.55,35,29.24,79.49-62.37,64.81C-77,62.46-45,35.14-45,20.27S-75,5.41-75-9.45s30-14.86,30-29.72S-75-54-75-68.9s30-14.86,30-29.72-30-14.86-30-29.73,30-14.86,30-29.73-30-14.86-30-29.73,30-14.86,30-29.72-30-14.87-30-29.74,2.68-12.57,17.36-14.92C34-276.81,32.78-291.94,125.55-291.88s92.76,30.05,185.53,30.11,92.79-29.94,185.56-29.88,92.75,30.06,185.53,30.12,92.79-30,185.56-29.89,92.75,30.06,185.52,30.12,92.79-29.94,185.56-29.88,92.76,30.05,185.53,30.11,92.79-29.94,185.56-29.88,94.82,39.61,187.1,30C1891.42-270.71,1891.76-305.2,1983.37-290.53Z"/></svg>