<svg id="Layer_1" data-name="Layer 1" xmlns="http://www.w3.org/2000/svg" viewBox="0 0 256 250"><defs><style>.cls-1{fill:#1c1c1c;}</style></defs><title>Artboard 1</title><path class="cls-1" d="M128,0A128,128,0,0,0,87.53,249.46c6.4,1.19,8.75-2.78,8.75-6.16,0-3.05-.12-13.13-.17-23.83C60.5,227.22,53,204.37,53,204.37c-5.82-14.8-14.21-18.73-14.21-18.73-11.61-7.94.88-7.78.88-7.78,12.85.9,19.62,13.19,19.62,13.19C70.68,210.62,89.21,205,96.52,201.69c1.14-8.27,4.46-13.92,8.12-17.12-28.43-3.23-58.32-14.21-58.32-63.25A49.57,49.57,0,0,1,59.51,87c-1.33-3.23-5.71-16.24,1.24-33.88,0,0,10.75-3.44,35.21,13.12a121.63,121.63,0,0,1,64.11,0c24.43-16.56,35.16-13.12,35.16-13.12,7,17.64,2.59,30.65,1.26,33.88a49.46,49.46,0,0,1,13.17,34.36c0,49.16-29.94,60-58.45,63.15,4.59,4,8.69,11.76,8.69,23.71,0,17.12-.15,30.91-.15,35.12,0,3.41,2.3,7.4,8.79,6.14A128,128,0,0,0,128,0ZM47.94,182.34c-.28.64-1.28.83-2.19.39s-1.45-1.28-1.15-1.92,1.28-.84,2.2-.4S48.26,181.7,47.94,182.34Zm6.3,5.62c-.61.56-1.81.3-2.62-.59s-1-2.09-.37-2.66,1.78-.3,2.62.59S54.87,187.39,54.24,188Zm4.32,7.19c-.79.54-2.07,0-2.86-1.11s-.79-2.5,0-3,2.06-.05,2.87,1.08S59.36,194.59,58.56,195.15Zm7.3,8.32c-.7.77-2.19.57-3.29-.49s-1.43-2.5-.73-3.27,2.22-.56,3.32.49S66.61,202.71,65.86,203.47Zm9.44,2.81c-.31,1-1.75,1.46-3.2,1s-2.39-1.61-2.1-2.62,1.75-1.49,3.21-1S75.6,205.26,75.3,206.28Zm10.75,1.19c0,1.06-1.2,1.93-2.72,1.95s-2.77-.82-2.78-1.86,1.2-1.93,2.73-1.95S86.05,206.42,86.05,207.47Zm10.55-.4c.18,1-.87,2.09-2.38,2.37s-2.87-.37-3-1.39.89-2.11,2.37-2.38S96.41,206,96.6,207.07Z"/></svg>